<svg xmlns="http://www.w3.org/2000/svg" class="back-to-top-fixed__icon" viewBox="0 0 26 26">
	<path d="M13.8 1.3L21.6 9c.1.1.1.3.2.4.1.1.1.3.1.4s0 .3-.1.4c-.1.1-.1.3-.3.4-.1.1-.2.2-.4.3-.2.1-.3.1-.4.1-.1 0-.3 0-.4-.1-.2-.1-.3-.2-.4-.3L14.2 5v19.1c0 .2-.1.3-.1.5 0 .1-.1.3-.3.4-.1.1-.2.2-.4.3-.1.1-.3.1-.5.1-.1 0-.3 0-.4-.1-.1-.1-.3-.1-.4-.3-.1-.1-.2-.2-.3-.4-.1-.1-.1-.3-.1-.5V5L6 10.7c0 .1-.2.2-.3.3-.1.1-.3.1-.4.1-.2 0-.3 0-.4-.1-.1-.1-.3-.2-.4-.3-.1-.1-.1-.2-.2-.4-.2-.1-.3-.2-.2-.4 0-.1 0-.3.1-.4 0-.1.1-.3.3-.4l7.7-7.8c.1 0 .2-.1.2-.1s.1-.1.2-.1.2 0 .2-.1h.4c.1 0 .2 0 .2.1.1 0 .1.1.2.1s.2 0 .2.1z"/>
</svg>
