<svg version="1.1" xmlns="http://www.w3.org/2000/svg" xmlns:xlink="http://www.w3.org/1999/xlink" x="0px" y="0px"
	 viewBox="0 0 80 80" enable-background="new 0 0 80 80" xml:space="preserve">
<path d="M0.5,10.9c-0.2,0.2-0.3,0.4-0.4,0.6c-0.2,0.4-0.2,0.9,0,1.3c0.1,0.2,0.2,0.4,0.4,0.6l10.4,10.4c0.3,0.3,0.8,0.5,1.2,0.5
	s0.9-0.2,1.2-0.5c0.7-0.7,0.7-1.8,0-2.5l-7.5-7.5h68.1l-7.5,7.5c-0.7,0.7-0.7,1.8,0,2.5c0.3,0.3,0.8,0.5,1.2,0.5s0.9-0.2,1.2-0.5
	l10.4-10.4c0.2-0.2,0.3-0.4,0.4-0.6c0.2-0.4,0.2-0.9,0-1.3c-0.1-0.2-0.2-0.4-0.4-0.6L69.1,0.5C68.7,0.2,68.3,0,67.8,0
	c-0.4,0-0.9,0.2-1.2,0.5c-0.7,0.7-0.7,1.8,0,2.5l7.5,7.5H5.9L13.4,3c0.7-0.7,0.7-1.8,0-2.5C13.1,0.2,12.6,0,12.2,0
	c-0.4,0-0.9,0.2-1.2,0.5L0.5,10.9z"/>
<path d="M55.7,78.3V36.5c0-8.6-7-15.7-15.7-15.7c-8.6,0-15.7,7-15.7,15.7v41.7c0,1,0.8,1.7,1.7,1.7c1,0,1.7-0.8,1.7-1.7V36.5
	c0-6.7,5.5-12.2,12.2-12.2c6.7,0,12.2,5.5,12.2,12.2v41.7c0,1,0.8,1.7,1.7,1.7C54.9,80,55.7,79.2,55.7,78.3z"/>
<path d="M40,27.8c-4.8,0-8.7,3.9-8.7,8.7v7c0,1,0.8,1.7,1.7,1.7H47c1,0,1.7-0.8,1.7-1.7v-7C48.7,31.7,44.8,27.8,40,27.8z M47,43.5
	H33v-7c0-3.8,3.1-7,7-7s7,3.1,7,7V43.5z"/>
<path d="M40,29.6c-3.8,0-7,3.1-7,7v7H47v-7C47,32.7,43.8,29.6,40,29.6z M45.2,41.7H34.8v-5.2c0-2.9,2.3-5.2,5.2-5.2s5.2,2.3,5.2,5.2
	V41.7z"/>
<path d="M43.5,48.7h-7c-1,0-1.7,0.8-1.7,1.7c0,1,0.8,1.7,1.7,1.7h7c1,0,1.7-0.8,1.7-1.7C45.2,49.5,44.4,48.7,43.5,48.7z"/>
<path d="M43.5,59.1h-7c-1,0-1.7,0.8-1.7,1.7s0.8,1.7,1.7,1.7h7c1,0,1.7-0.8,1.7-1.7S44.4,59.1,43.5,59.1z"/>
</svg>
