<svg xmlns="http://www.w3.org/2000/svg" width="39" height="32"><title>aligned</title><path fill="#959595" d="M36.267 18.844H11.023c-1.6 0-2.844-1.244-2.844-2.844s1.244-2.844 2.844-2.844h25.422c1.422 0 2.667 1.244 2.667 2.844s-1.244 2.844-2.844 2.844zm-33.6 0c-.711 0-1.422-.356-1.956-.889 0 0-.178-.178-.178-.356-.178-.178-.178-.356-.356-.533 0-.178-.178-.356-.178-.533v-1.067c0-.178 0-.356.178-.533 0-.178.178-.356.178-.533l.356-.356c1.067-1.067 2.844-1.244 3.911-.178.178.178.356.356.356.533.178.178.178.356.356.533 0 .178 0 .356.178.533v1.067c-.178.178-.178.356-.178.533s-.178.356-.356.533c-.178.178-.178.356-.356.356-.356.533-1.067.889-1.956.889zM36.267 32H11.023c-1.6 0-2.844-1.422-2.667-2.844 0-1.422 1.244-2.667 2.667-2.667h25.422c1.6 0 2.844 1.422 2.667 2.844 0 1.422-1.244 2.667-2.844 2.667zm-33.6 0c-.711 0-1.422-.356-1.956-.889-.178-.178-.178-.356-.356-.356-.178-.178-.178-.356-.178-.533s-.178-.356-.178-.533v-1.067c0-.178 0-.356.178-.533 0-.178.178-.356.178-.533.178-.178.178-.356.356-.356 1.067-1.067 2.667-1.067 3.733 0 .178.178.178.356.356.356.178.178.178.356.356.533s.178.356.356.533v1.067c-.178.178-.178.356-.178.533s-.178.356-.356.533c-.178.178-.178.356-.356.356-.356.533-1.067.889-1.956.889zm33.6-26.311H11.023c-1.6 0-2.844-1.422-2.667-2.844 0-1.6 1.067-2.844 2.667-2.844h25.422c1.422 0 2.667 1.422 2.667 2.844 0 1.6-1.244 2.844-2.844 2.844zm-33.6 0c-.711 0-1.422-.356-1.956-.889 0-.178-.178-.178-.178-.356-.178-.178-.178-.356-.356-.533 0-.178-.178-.356-.178-.533V2.311c0-.178 0-.356.178-.533 0-.178.178-.356.178-.533.178-.178.178-.356.356-.356C1.778-.178 3.555-.355 4.622.711c.178.178.178.356.356.356.178.356.178.533.356.711 0 .178 0 .356.178.533v1.067c-.178.178-.178.356-.178.533s-.178.356-.356.533c0 .178-.178.178-.356.356-.356.533-1.067.889-1.956.889z"/></svg>