<svg xmlns="http://www.w3.org/2000/svg" width="59" height="32"><title>aligned-plus</title><path fill="#959595" d="M37.689 13.156H11.378c-1.6 0-2.844 1.244-2.844 2.844s1.244 2.844 2.844 2.844h26.311c1.6 0 2.844-1.244 2.844-2.844s-1.244-2.844-2.844-2.844zm-33.245.533c-.178-.178-.356-.178-.533-.356-.533-.178-1.067-.178-1.6-.178-.178 0-.356 0-.533.178-.178 0-.356.178-.533.356a.383.383 0 0 0-.356.356C.356 14.578 0 15.289 0 16.001v.533c0 .178.178.356.178.533s.178.356.178.533c.178.178.178.356.356.533s.356.178.356.356.356.178.533.356c.178 0 .356.178.533.178h1.067c.178 0 .356-.178.533-.178s.356-.178.533-.356c.178-.178.356-.178.356-.356.178-.178.178-.356.356-.533.356-.178.356-.356.533-.533 0-.178.178-.356.178-.533v-.533c0-.711-.356-1.422-.889-1.956a.383.383 0 0 0-.356-.356zm33.245 12.622H11.378c-1.6-.178-3.022 1.067-3.022 2.667C8.178 30.578 9.423 32 11.023 32h26.844c1.6.178 3.022-1.067 3.022-2.667.178-1.6-1.067-3.022-2.667-3.022h-.533zM5.511 28.089c0-.178-.178-.356-.178-.533-.178-.178-.178-.356-.356-.356-.178-.178-.356-.178-.356-.356-.356-.178-.533-.178-.711-.356-.178 0-.356-.178-.533-.178a1.133 1.133 0 0 0-1.067 0c-.178 0-.356 0-.533.178-.178 0-.356.178-.533.178-.178.178-.356.178-.356.356-.178.178-.178.356-.356.356-.178.178-.178.356-.178.533s-.178.356-.178.533v1.067c0 .178.178.356.178.533s.178.356.178.533c.178.178.178.356.356.356.178.178.356.178.356.356.178.178.356.178.533.356.178 0 .356.178.533.178h1.067c.178 0 .356-.178.533-.178s.356-.178.533-.356c.356-.178.533-.533.711-.711.178 0 .178-.178.356-.356 0-.178.178-.356.178-.533v-1.067c0-.178-.178-.356-.178-.533zm5.867-22.4h26.311c1.6 0 2.844-1.244 2.844-2.844S39.289.001 37.689.001H11.378c-1.6 0-2.844 1.244-2.844 2.844s1.244 2.844 2.844 2.844zm44.444.889h-3.733V2.845c0-1.6-1.244-2.844-2.844-2.844s-2.844 1.244-2.844 2.844v3.733h-3.733c-1.6-.178-3.022 1.067-3.022 2.667-.178 1.6 1.067 3.022 2.667 3.022h4.267V16c0 1.6 1.244 2.844 2.844 2.844S52.268 17.6 52.268 16v-3.733h3.733c1.6.178 3.022-1.067 3.022-2.667.178-1.6-1.067-3.022-2.667-3.022h-.533zm-50.311-4.8c-.178-.178-.178-.356-.356-.533-.178-.356-.356-.533-.711-.711-.178-.178-.356-.178-.533-.356C3.378 0 2.844 0 2.311 0c-.178 0-.356.178-.533.178s-.356.178-.533.356A.383.383 0 0 0 .889.89a.383.383 0 0 0-.356.356c-.178.178-.178.356-.356.533 0 .178-.178.356-.178.533v.533c0 .711.356 1.422.889 1.956.178.178.356.178.356.356.178.178.356.178.533.356.178 0 .356.178.533.178h1.067c.178 0 .356-.178.533-.178.178-.178.356-.178.533-.356s.356-.178.356-.356c.533-.533.889-1.244.889-1.956v-.533c0-.178-.178-.356-.178-.533z"/></svg>