<svg xmlns="http://www.w3.org/2000/svg" width="35" height="60" viewBox="0 0 19 32"><title>brands</title><path fill="#728cdd" d="M4.062 27.702l.519-3.422c.065-.373.389-.665.762-.665h9.164c.422 0 .778.341.778.779v3.422a.78.78 0 0 1-.778.779H4.824a.77.77 0 0 1-.762-.892z"/><path d="M15.918 20.209h-.211l-.114-1.881a.65.65 0 0 0-1.297.065l.097 1.8h-3.244l.778-10.169a.604.604 0 0 1 .6-.568h.714c.324 0 .584.243.6.584l.324 5.839a.65.65 0 0 0 1.297-.065l-.324-5.823a1.88 1.88 0 0 0-1.881-1.817h-.714a1.885 1.885 0 0 0-1.881 1.784l-.778 10.25H4.142a2.763 2.763 0 0 0-2.757 2.368l-1.427 9.423h18.749v-9.002a2.8 2.8 0 0 0-2.79-2.79zm1.492 10.493H1.467l1.2-7.931c.114-.73.73-1.265 1.476-1.265h11.759c.827 0 1.492.665 1.492 1.492v7.704zM15.334 1.346a.77.77 0 0 0 .276.065.644.644 0 0 0 .584-.373c.016-.032.032-.081.049-.114a.648.648 0 0 0-.341-.86.648.648 0 0 0-.86.341.274.274 0 0 1-.032.081.654.654 0 0 0 .324.86zM11.572 6.39a.65.65 0 0 0 .649-.649c0-1.638.681-2.108 1.525-2.498.13-.065.259-.114.373-.178l.081-.032c.178-.081.373-.162.551-.276a.656.656 0 0 0 .243-.892.656.656 0 0 0-.892-.243c-.13.081-.276.146-.438.211l-.081.032c-.13.049-.259.114-.405.178-.73.341-2.271 1.07-2.271 3.665.016.389.308.681.665.681zm4.508-3.114c-.324.714-.487.779-1.006 1.022-.097.049-.195.081-.308.13-1.119.519-1.8 1.46-1.8 2.53 0 .357.292.649.649.649s.649-.292.649-.649c0-.779.73-1.2 1.038-1.346.097-.049.195-.081.276-.13.714-.308 1.2-.584 1.687-1.671a.654.654 0 0 0-.324-.86.624.624 0 0 0-.86.324z"/></svg>