<svg xmlns="http://www.w3.org/2000/svg" width="33" height="32"><title>cart</title><path fill="#d97c3e" d="M27.867 10.4l-14.4-1.6c-1.067-.133-1.867.533-2 1.6-.267.933.533 1.867 1.467 2h.133l14.4 1.6c1.2.133 2.267 1.2 2.267 2.4v4.133c0 1.333-1.2 2.533-2.533 2.533H11.468c-1.333 0-2.533-1.067-2.533-2.533v-13.6c0-2.4-1.467-4.533-3.6-5.467L2.535.133c-.933-.4-2 0-2.4.933s0 2 .8 2.4l2.8 1.333c.933.267 1.6 1.2 1.6 2.133v13.733c0 3.333 2.8 6 6.133 6h15.733c3.333 0 6.133-2.667 6.133-6.133v-4.133c0-3.067-2.4-5.6-5.467-6zm-16 18c-.933 0-1.733.8-1.733 1.867 0 .933.8 1.733 1.867 1.733.933 0 1.733-.8 1.733-1.733 0-1.067-.8-1.867-1.867-1.867zm15.333 0c-.933 0-1.733.8-1.733 1.867 0 .933.8 1.733 1.867 1.733.933 0 1.733-.8 1.733-1.733 0-1.067-.933-1.867-1.867-1.867z"/></svg>