<svg xmlns="http://www.w3.org/2000/svg" width="38" height="32"><title>heart</title><path fill="#959595" d="M34.934 2.934a9.952 9.952 0 0 0-14.114 0L18.864 4.89l-1.956-1.956C13.135-.979 6.847-1.118 2.934 2.794c-4.052 3.773-4.052 10.061-.14 13.974l14.533 14.533c.419.419.978.699 1.537.699s1.118-.279 1.537-.699l4.751-4.891c.838-.838.838-2.236 0-3.074s-2.236-.838-3.074 0l-3.214 3.214L6.008 13.834c-2.236-2.096-2.236-5.59-.14-7.825s5.59-2.236 7.825-.14l3.633 3.633a2.194 2.194 0 0 0 3.074 0l3.493-3.493c2.096-2.096 5.59-2.096 7.825 0 2.096 2.096 2.096 5.59 0 7.825l-1.537 1.537c-.838.838-.838 2.236 0 3.074s2.236.838 3.074 0l1.537-1.537c4.052-3.773 4.052-10.061.14-13.974zm-5.17 17.188c0-.14-.14-.279-.14-.419a.3.3 0 0 1-.279-.279c-.559-.559-1.258-.699-1.956-.559-.14 0-.279.14-.419.14s-.279.14-.419.14c-.14.14-.279.14-.279.279-.14.14-.14.279-.279.279-.14.14-.14.279-.14.419s-.14.279-.14.419v.838c0 .14.14.279.14.419s.14.279.14.419c.14.14.14.279.279.279.14.14.279.14.279.279.14.14.279.14.419.14s.279.14.419.14h.419c.559 0 1.118-.279 1.537-.699.14-.14.14-.279.279-.279.14-.14.14-.279.14-.419s.14-.279.14-.419v-.838s-.14-.14-.14-.279z"/></svg>