<svg xmlns="http://www.w3.org/2000/svg" width="47" height="46" viewBox="0 0 33 32"><title>label</title><path d="M14.301 32.123a6.748 6.748 0 0 1-4.792-1.997l-7.513-7.512a6.784 6.784 0 0 1-1.997-4.792c0-1.822.699-3.519 1.997-4.792L12.678 2.323A6.754 6.754 0 0 1 19.591.676l3.719 1.223a.987.987 0 0 1 .624 1.248 1.004 1.004 0 0 1-1.273.624l-3.694-1.198c-1.722-.574-3.594-.125-4.892 1.173L3.393 14.428a4.806 4.806 0 0 0 0 6.789l7.512 7.512a4.806 4.806 0 0 0 6.789 0l10.682-10.682c1.298-1.298 1.722-3.17 1.173-4.892l-1.872-5.666a1.953 1.953 0 0 0-.225-.524c-.225-.499-.025-1.098.474-1.323s1.098-.025 1.323.474c.125.25.225.499.299.749l1.872 5.666a6.808 6.808 0 0 1-1.647 6.938L19.091 30.151a6.784 6.784 0 0 1-4.792 1.972z"/><path d="M21.814 14.527c-1.123 0-2.196-.449-2.995-1.248s-1.248-1.872-1.248-2.995.449-2.196 1.248-2.995c.275-.275.574-.499.923-.699.474-.275 1.098-.1 1.348.374.275.474.1 1.098-.374 1.348-.175.1-.349.225-.474.374-.424.424-.649.998-.649 1.597s.225 1.173.649 1.597a2.244 2.244 0 0 0 3.17 0 2.276 2.276 0 0 0 .624-1.997c-.1-.549.25-1.073.799-1.173s1.073.25 1.173.799a4.28 4.28 0 0 1-1.173 3.794c-.799.799-1.872 1.223-3.02 1.223z"/><path d="M21.988 11.108c-.1 0-.2-.025-.324-.05a1.004 1.004 0 0 1-.624-1.273c.699-2.096 2.471-5.067 4.842-6.938 1.248-.973 2.421-1.398 3.394-1.747.774-.275 1.348-.474 1.622-.849.324-.449.948-.524 1.398-.2s.524.948.2 1.398c-.649.874-1.572 1.198-2.571 1.547-.849.3-1.822.649-2.82 1.423-2.047 1.622-3.594 4.243-4.193 5.99-.1.449-.499.699-.923.699z"/><path fill="#a1b200" d="M8.835 12.281l-3.769 3.794c-.948.948-.948 2.496 0 3.469l7.513 7.512c.948.948 2.496.948 3.469 0l3.794-3.794a2.41 2.41 0 0 0 0-3.419l-7.587-7.562c-.923-.923-2.471-.923-3.419 0z"/></svg>