<svg xmlns="http://www.w3.org/2000/svg" width="43" height="43" viewBox="0 0 32 32"><title>refresh</title><path fill="#15d154" d="M26.224 15.986c0 5.654-4.584 10.238-10.238 10.238S5.748 21.64 5.748 15.986 10.332 5.748 15.986 5.748s10.238 4.584 10.238 10.238z"/><path d="M29.18 6.926a1.097 1.097 0 0 0-1.533-.274 1.097 1.097 0 0 0-.274 1.533 13.723 13.723 0 0 1 2.436 7.829c0 7.61-6.186 13.796-13.796 13.796-2.053 0-4.024-.438-5.858-1.287.575-.164.931-.766.766-1.341s-.766-.931-1.341-.766l-2.464.684c-.575.164-.931.766-.766 1.341l.684 2.464c.137.493.575.794 1.068.794.11 0 .192 0 .301-.027.52-.137.849-.657.794-1.177a15.923 15.923 0 0 0 6.843 1.533c8.814 0 15.986-7.172 15.986-15.986-.027-3.312-1.013-6.46-2.847-9.115zM15.986 2.19c2.19 0 4.325.52 6.241 1.478-.575.11-.958.684-.849 1.259.11.52.547.903 1.068.903.055 0 .137 0 .192-.027l2.518-.465c.602-.109.985-.684.876-1.287l-.465-2.518A1.096 1.096 0 0 0 24.28.657c-.547.11-.931.602-.903 1.122A16.176 16.176 0 0 0 15.986 0C7.172 0 0 7.172 0 15.986c0 3.175.931 6.269 2.683 8.896.219.328.547.493.903.493a.983.983 0 0 0 .602-.192c.493-.329.63-1.013.301-1.506a13.864 13.864 0 0 1-2.327-7.665C2.189 8.375 8.376 2.188 15.986 2.188z"/></svg>