<svg xmlns="http://www.w3.org/2000/svg" width="33" height="44" viewBox="0 0 24 32"><title>security</title><path d="M12.011 32c-.472 0-.943-.112-1.392-.337C3.702 28.048-2.091 18.863.491 6.467c.247-1.123 1.078-2.021 2.178-2.313 1.347-.359 3.009-.764 3.66-.921.135-.045.269-.09.382-.18l.494-.337a.91.91 0 0 1 1.258.247.91.91 0 0 1-.247 1.258l-.494.337a2.985 2.985 0 0 1-.943.427c-.651.157-2.291.584-3.638.921a1.183 1.183 0 0 0-.876.943c-2.403 11.475 2.897 19.919 9.207 23.242.337.18.764.18 1.1 0 6.31-3.301 11.587-11.767 9.185-23.242a1.182 1.182 0 0 0-.876-.943 191.18 191.18 0 0 0-3.638-.921 2.985 2.985 0 0 1-.943-.427l-3.907-2.65a.679.679 0 0 0-.764 0l-.539.359a.91.91 0 0 1-1.258-.247.91.91 0 0 1 .247-1.258l.539-.359a2.515 2.515 0 0 1 2.785 0l3.885 2.627c.112.09.247.135.382.18.651.157 2.291.584 3.66.921a2.981 2.981 0 0 1 2.178 2.313c2.605 12.418-3.211 21.603-10.128 25.218a2.937 2.937 0 0 1-1.37.337z"/><path fill="#ce3a3a" d="M10.866 26.251c-4.02-3.099-7.006-8.893-6.131-16.505a1.821 1.821 0 0 1 1.37-1.572c.584-.157 1.078-.269 1.37-.337a6.444 6.444 0 0 0 1.886-.831l1.617-1.1a1.826 1.826 0 0 1 2.066 0l1.617 1.078a5.901 5.901 0 0 0 1.886.831c.292.067.786.202 1.37.337.741.18 1.28.808 1.37 1.572.876 7.613-2.111 13.406-6.131 16.505-.696.539-1.617.539-2.291.022z"/></svg>