<svg xmlns="http://www.w3.org/2000/svg" width="85" height="37" viewBox="0 0 74 32"><title>tracker</title><path fill="#cebf00" d="M25.928 20.913V7.229c0-.9.72-1.62 1.62-1.62h20.526c.9 0 1.62.72 1.62 1.62v13.658c0 .9-.72 1.62-1.62 1.62H27.548c-.9 0-1.62-.72-1.62-1.595z"/><path fill="#020608" d="M15.382 14.071c0-.566-.463-1.029-1.029-1.029H1.029c-.566 0-1.029.463-1.029 1.029S.463 15.1 1.029 15.1h13.324c.566 0 1.029-.463 1.029-1.029zm-5.299 8.797h-.232c-.566 0-1.029.463-1.029 1.029s.463 1.029 1.029 1.029h.232c.566 0 1.029-.463 1.029-1.029s-.463-1.029-1.029-1.029z"/><path fill="#020608" d="M71.764 14.225l-8.951-7.279a4.701 4.701 0 0 0-2.984-1.055h-4.604v-1.08A4.765 4.765 0 0 0 50.466.052H25.104c-2.289 0-4.193 1.621-4.656 3.781H7.201c-.566 0-1.029.463-1.029 1.029s.463 1.029 1.029 1.029h13.144v16.977h-6.456c-.566 0-1.029.463-1.029 1.029s.463 1.029 1.029 1.029h6.739a4.736 4.736 0 0 0 4.476 3.164h.669c.463 2.212 2.444 3.858 4.784 3.858s4.296-1.646 4.784-3.858h23.098c.463 2.212 2.444 3.858 4.784 3.858s4.296-1.646 4.784-3.858h.823a4.71 4.71 0 0 0 4.707-4.707v-5.505a4.821 4.821 0 0 0-1.775-3.653zM30.558 29.89c-1.569 0-2.829-1.26-2.829-2.829s1.26-2.829 2.829-2.829 2.829 1.26 2.829 2.829-1.26 2.829-2.829 2.829zm22.635-3.858H35.342c-.463-2.212-2.444-3.858-4.784-3.858s-4.296 1.646-4.784 3.858h-.669a2.7 2.7 0 0 1-2.701-2.701V4.811a2.7 2.7 0 0 1 2.701-2.701h25.388a2.7 2.7 0 0 1 2.701 2.701v21.221zm10.032 3.858c-1.569 0-2.829-1.26-2.829-2.829s1.26-2.829 2.829-2.829 2.829 1.26 2.829 2.829-1.286 2.829-2.829 2.829zm8.231-6.508a2.645 2.645 0 0 1-2.649 2.649h-.823c-.463-2.212-2.444-3.858-4.784-3.858s-4.296 1.646-4.784 3.858h-3.19V7.948h4.604c.617 0 1.209.206 1.672.592l8.977 7.279c.617.514.977 1.26.977 2.058v5.505z"/></svg>