<svg xmlns="http://www.w3.org/2000/svg" viewBox="0 0 162 30"><path class="st0" d="M96.8 25.1c-.4 0-.4-.1-.4-.3v-6.7c0-.1 0-.2.4-.3v-.2h-2.9v.2c.4 0 .4.1.4.3v6.7c0 .1 0 .2-.4.3v.2h2.9v-.2zm-13.7-7V22c0 2.5 1.7 3.4 3.9 3.4s3.9-.8 3.9-3.4v-3.9c0-.1 0-.2.4-.3v-.2h-2.9v.2c.4 0 .4.1.4.3V22c0 1.1-.6 1.6-1.8 1.6-1.1 0-1.8-.4-1.8-1.6v-3.9c0-.1 0-.2.4-.3v-.2h-2.9v.2c.3.1.4.2.4.3zm32 7c.5-.2.9-.4 1.3-.8s.7-.8.9-1.3c.2-.5.3-1 .3-1.5 0-2.1-1.2-3.8-3.8-3.8h-4.7v.2c.4 0 .4.1.4.3v6.7c0 .1 0 .2-.4.3v.2h4.5c.5-.1 1-.1 1.5-.3zm-3.5-1.5v-4.2h1.8c.3 0 .6 0 .8.1.3.1.5.2.7.4.2.2.4.4.5.7.1.3.1.6.1.9 0 .3 0 .6-.1.9-.1.3-.3.5-.5.7-.2.2-.4.4-.7.4-.3.1-.6.1-.8.1h-1.8zm16.2 1.5c-.4 0-.4-.1-.4-.3v-4.5c1.9 2.2 2.9 3.3 3.5 3.9.5.6.6.7.6.8 0 .1-.1.2-.3.2v.2h2.7v-.2c-.4 0-.4-.1-.4-.3v-6.7c0-.1 0-.2.4-.3v-.2h-2.6v.2c.2 0 .3.1.3.3V22c-.2-.3-.6-.6-.9-1-1.1-1.2-2.5-2.8-2.5-2.9 0-.1.1-.2.4-.2v-.2h-3.4v.2c.4 0 .4.1.4.3v6.7c0 .1 0 .2-.4.3v.2h2.7v-.3zm-20.7.6h.2v-2.5h-.2c0 .3-.1.4-.3.4H102v-5.4c0-.1 0-.2.4-.3v-.2h-2.9v.2c.4 0 .4.1.4.3v6.7c0 .1 0 .2-.4.3v.2h7.3c.2-.1.2 0 .3.3zm33.2-.3c1.6 0 3.1-.3 4.5-1.1v-.2h-.1c-.1 0-.2-.1-.2-.2v-2.4c0-.2.1-.2.2-.2v-.2h-4.2c-.2 0-.2-.1-.2-.3h-.2v2h.2c0-.2.1-.3.2-.3h1.8v1c-.6.2-1.3.3-2 .3-1.2 0-2.7-.7-2.7-2.2 0-1.6 1.2-2.3 2.6-2.3 1.2 0 2.6.4 2.6.7v.2l.2.1.9-1.9-.2-.1-.1.1h-.1c-.1 0-.2-.1-.3-.1-.2-.1-.4-.2-.7-.3-.7-.2-1.5-.4-2.3-.3-2.3 0-4.6 1.3-4.6 3.9.1 2.5 2.3 3.8 4.7 3.8zm-17.8-.3c-.4 0-.4-.1-.4-.3v-6.7c0-.1 0-.2.4-.3v-.2h-2.9v.2c.4 0 .4.1.4.3v6.7c0 .1 0 .2-.4.3v.2h2.9v-.2z"/><path class="st0" d="M149.7 27.4h-97V11.8H32.2V6h-.1l-16-6L0 6v23.1h1.6v-22l14.5-5.3 14.5 5.3v6.3h20.5v15.7h98.6v.3h.3V27h-.3zm2.3-.6h.4v3h-.4z"/><path class="st0" d="M80.5 23.1c0-1.1-.7-1.6-1.6-1.8.4 0 .7-.2 1-.5.2-.3.4-.7.4-1.1 0-1.4-1.1-2-2.6-2h-5.4v.2c.4 0 .4.1.4.3v6.7c0 .1 0 .2-.4.3v.2h5.4c1.9-.1 2.8-1.1 2.8-2.3zm-5.8-3.9h1.9c1.2 0 1.5.1 1.5.7s-.3.7-1.5.7h-1.9v-1.4zm0 4.6V22h2.4c1 0 1.4.2 1.4.9 0 .6-.4.9-1.4.9h-2.4zm87 3.4l-4.9-1v.4l3.1.7v.1h-2.3v-.6h-5.1v3l5.1.2v-.4h4V28h.4v-.8zm-10.9-.4h.4v2.8h-.4zm.6 0h.4v2.8h-.4zm-1.2.2h.4v2.4h-.4zm-84.7-1.9c-.4 0-.4-.1-.4-.3v-2.3h2.5c1.8 0 2.7-1.1 2.7-2.4s-.9-2.4-2.7-2.4h-5v.2c.4 0 .4.1.4.3v6.7c0 .1 0 .2-.4.3v.2h2.9v-.3zm1.8-5.8c.8 0 1.1.2 1.1.8 0 .6-.4.9-1.1.9h-2.1v-1.7h2.1zM60 25.1c-.4 0-.4-.1-.4-.3v-6.7c0-.1 0-.2.4-.3v-.2h-2.9v.2c.4 0 .4.1.4.3v6.7c0 .1 0 .2-.4.3v.2H60v-.2z"/></svg>