<svg xmlns="http://www.w3.org/2000/svg" style="border: 0 !important; clip: rect(0 0 0 0) !important; height: 1px !important; margin: -1px !important; overflow: hidden !important; padding: 0 !important; position: absolute !important; width: 1px !important;" class="root-svg-symbols-element">
    <symbol id="adobe-photoshop" viewBox="0 0 512 512">
      <path fill="#00C8FF" d="M341.146,233.353c-16.816,0-21.861,8.408-21.861,15.135c0,6.727,4.204,12.612,26.275,24.384
				c32.792,15.765,43.722,31.11,43.722,53.812c0,33.633-25.224,52.131-60.539,52.131c-15.122,0.671-30.167-2.512-43.722-9.249
				c-1.682-0.841-1.682-1.682-1.682-3.363v-31.11c0-1.682,0.841-2.522,2.522-1.682c12.437,8.315,27.081,12.708,42.041,12.612
				c16.816,0,23.543-6.727,23.543-15.765c0-7.567-5.255-14.294-26.276-25.224c-29.429-14.294-42.041-28.588-42.041-52.971
				c0-26.906,21.02-49.608,57.806-49.608c12.875-0.52,25.728,1.479,37.837,5.886c1.579,0.582,2.388,2.334,1.806,3.914
				c-0.036,0.099-0.078,0.196-0.124,0.29v28.588c0,1.682-0.841,2.522-3.363,1.682c-10.967-6.006-23.232-9.253-35.735-9.459H341.146z
				 M263.37,216.537c0,53.812-38.678,76.514-86.604,76.514h-15.765v80.718c0.189,1.204-0.634,2.334-1.839,2.522
				c-0.227,0.036-0.457,0.036-0.684,0h-33.212c-1.204,0.189-2.334-0.634-2.522-1.839c-0.036-0.227-0.036-0.457,0-0.684l0.841-227.02
				c0-1.682,3.363-2.522,5.255-2.522c13.453-0.841,33.633-0.841,53.812-0.841C240.458,143.386,263.37,175.337,263.37,216.537z
				 M225.113,216.537c0-26.906-16.816-40.359-44.563-40.359c-6.738-0.24-13.485,0.042-20.18,0.841v81.559h16.816
				C201.781,258.578,225.113,250.17,225.113,216.537z"/><path fill="#00C8FF" d="M341.146,233.353c-16.816,0-21.861,8.408-21.861,15.135c0,6.727,4.204,12.612,26.275,24.384
				c32.792,15.765,43.722,31.11,43.722,53.812c0,33.633-25.224,52.131-60.539,52.131c-15.122,0.671-30.167-2.512-43.722-9.249
				c-1.682-0.841-1.682-1.682-1.682-3.363v-31.11c0-1.682,0.841-2.522,2.522-1.682c12.437,8.315,27.081,12.708,42.041,12.612
				c16.816,0,23.543-6.727,23.543-15.765c0-7.567-5.255-14.294-26.276-25.224c-29.429-14.294-42.041-28.588-42.041-52.971
				c0-26.906,21.02-49.608,57.806-49.608c12.875-0.52,25.728,1.479,37.837,5.886c1.579,0.582,2.388,2.334,1.806,3.914
				c-0.036,0.099-0.078,0.196-0.124,0.29v28.588c0,1.682-0.841,2.522-3.363,1.682c-10.967-6.006-23.232-9.253-35.735-9.459H341.146z
				 M263.37,216.537c0,53.812-38.678,76.514-86.604,76.514h-15.765v80.718c0.189,1.204-0.634,2.334-1.839,2.522
				c-0.227,0.036-0.457,0.036-0.684,0h-33.212c-1.204,0.189-2.334-0.634-2.522-1.839c-0.036-0.227-0.036-0.457,0-0.684l0.841-227.02
				c0-1.682,3.363-2.522,5.255-2.522c13.453-0.841,33.633-0.841,53.812-0.841C240.458,143.386,263.37,175.337,263.37,216.537z
				 M225.113,216.537c0-26.906-16.816-40.359-44.563-40.359c-6.738-0.24-13.485,0.042-20.18,0.841v81.559h16.816
				C201.781,258.578,225.113,250.17,225.113,216.537z" opacity=".15"/>
    </symbol>
    <symbol id="babel" viewBox="0 0 128 128">
      <path d="M87.44,43.79l0-.27-.44,0,0,.27.44,0Zm2.94,7.08V51l.31,0a1.18,1.18,0,0,1,.09-.43l0-.27c-.13,0-.26.21-.38.58ZM78.9,59.79a14.06,14.06,0,0,0-2.35-3c0-.32.5-.79,1.59-1.42l3.11-2.71a7.79,7.79,0,0,0,1.23-4.31l0-.46c-.12-1.38-1.12-2.49-3-3.34q-1.68-1.13-6-1.25A35.58,35.58,0,0,0,64,45.94a38.58,38.58,0,0,1-3.63,2.29l0,.23a.86.86,0,0,0,.36-.16.21.21,0,0,1,.26.21l.23-.12h.11v.1a12.78,12.78,0,0,1-2.53,2l.13.24h-.11l-.28-.1c0,.08-.11.14-.34.16v.1l.27.34a1,1,0,0,1-.39-.09,1.88,1.88,0,0,0-1.16.63l.16-.69a56.31,56.31,0,0,0,1.16-6.5l0-.12a4.73,4.73,0,0,1-1.13-1.05,3.71,3.71,0,0,0,0-.49l0-.1-.11,0q-1.84,2.77-7.11,9.45-4,4.75-4.14,5.28c-1.09,1.13-1.61,1.81-1.56,2-.29.19-.41.37-.36.58a.12.12,0,0,1-.16-.09,3.17,3.17,0,0,1-2.08,1.45l-1,.22a.23.23,0,0,0-.19.28l0,.12.36-.08,0,.1-.82.32-1.45.34-.76,0c-.11.11.61,0,.33.06l-1,.22c-.58.13-.89.08-1-.15l-.11,0a.55.55,0,0,1,0,.24L36.07,63l-.76.18q-.08-.53-3.09-3.86c0-.43.67-1.05,2.12-1.86l4.08-3.59q1.37-1.76,1.63-5.65L40,47.63c-.16-1.83-1.48-3.3-4-4.44-1.47-1-4.12-1.53-7.94-1.61A47.83,47.83,0,0,0,15.69,45a47.39,47.39,0,0,1-4.78,3l0,.32a1.25,1.25,0,0,0,.48-.19.27.27,0,0,1,.34.26l.32-.18h.16v.15a18.64,18.64,0,0,1-3.34,2.6l.18.28H8.9l-.34-.12c0,.09-.15.16-.48.19l0,.17.37.41a1.36,1.36,0,0,1-.5-.1,3.17,3.17,0,0,0-2.13,1.57l.18.28a4.47,4.47,0,0,1,1.06-.85l0,.46a1.53,1.53,0,0,0-.48.19L7,54a12.62,12.62,0,0,1,2.43-2c.44.11.67.25.68.4l.34,0a26,26,0,0,1,7.14-3.86l0,.32q-.66,1-.89,1a1,1,0,0,0,.23.59q.06.6-3.21,8.1Q6.37,75.88,1.34,84.21a1.07,1.07,0,0,0,.2.45,4.16,4.16,0,0,0,1.57-.6l.18,0,0,.32.31,0,.32-.18c0,.09.11.14.33.12l0,.32A2.83,2.83,0,0,1,3.77,86a7.36,7.36,0,0,0-1.08,2.4v.15l.31,0a19.54,19.54,0,0,0,3.06-4.41,48.82,48.82,0,0,0,9-3.38,8.39,8.39,0,0,0,4.74-1.63l0-.17-.78.23-.18,0,0-.17a7.07,7.07,0,0,0,3.17-1q4.46-3.44,6.74-4.87,4.68-3.44,6.07-6.7l.52-.12a6.82,6.82,0,0,0,.75,0c0-.08,0-.13.1-.15.7-.07.36,0,.81-.06l1.17-.27c-.07,0-.1.06-.08.13l.18-.11-.09,0,.2,0-.09.06a1.15,1.15,0,0,0,.43,0l.08.34L33.38,74.6,32.2,76.08,31.62,78l.11,0,.58-.24-.19.75.06.22.16.2c-.07,0-.1.07-.08.15l0,.12.24-.06q.53-.46.45-.84a2.21,2.21,0,0,0,.76.06l0,.12c-.23.06-.35.24-.37.56l0,.12.13,0c1.94-2.12,6.69-9.35,10.5-14.27q-.18-.8,6-2.22l.13,0q.22,1-1,4.67a12.58,12.58,0,0,0-.71,2.44,18.72,18.72,0,0,0-.92,3.22l-1.45,4.76a43.48,43.48,0,0,0-2.16,7.71.94.94,0,0,1,.4,0l.2-.18a.12.12,0,0,0,.16.09L44.63,85l.63,0c.19,0,.34-.28.48-.71,0-.64.1-1,.39-1.06a10.28,10.28,0,0,1,.72-2.32,10.29,10.29,0,0,1,.81-2.6c.55-2,1-3,1.21-3.06l.06.24-.4,1a50.69,50.69,0,0,1-2.12,7.35l.21.89.13,0q2.6-5.59,7.48-22.14a2.89,2.89,0,0,1,1.39-2.25l-.19-.2,0-.1a1.27,1.27,0,0,0,.78-.44c0-.08-.34-.21-1-.37l1.62-7a2.4,2.4,0,0,1,.62-.48l0,.35a.86.86,0,0,0-.36.16l.31.44a10,10,0,0,1,1.83-1.57c.34.09.5.21.52.32l.24,0a19.75,19.75,0,0,1,5.43-2.91l0,.23q-.49.74-.67.75a1,1,0,0,0,.15.45,42.43,42.43,0,0,1-2.41,6.16,167.45,167.45,0,0,1-9.44,19.55.87.87,0,0,0,.17.34,3,3,0,0,0,1.18-.46h.11l0,.23.26,0,.23-.12q0,.1.25.08l0,.25a2.11,2.11,0,0,1-.4,1.06,5.31,5.31,0,0,0-.85,1.82V79l.24,0a14.72,14.72,0,0,0,2.32-3.35,37.54,37.54,0,0,0,6.8-2.56,6.39,6.39,0,0,0,3.62-1.24v-.12l-.61.18h-.13v-.12a5.36,5.36,0,0,0,2.4-.77c2.25-1.73,4-3,5.12-3.7,3.6-2.62,5.27-5.13,5.07-7.55Zm-.61.16.08.94c-.11.23-.23.35-.34.36l-.14-1.6c.26.09.39.19.4.3ZM7.73,52.37H7.57l0-.29L8.19,52v.15a1.24,1.24,0,0,0-.47.19ZM4.59,83.78a2,2,0,0,0-1-.21l0-.46c0-.18.08-.3.31-.34s.33.13.34.43a6.79,6.79,0,0,1,.89-1l.34.14c-.11.93-.4,1.41-.86,1.44Zm33.55-35.1c-.16,0-.48-.48-.93-1.45l0-.29c.3,0,.61.46.93,1.45l0,.29ZM37.7,45.2l-.13.31L33,43.61q4.56.15,4.69,1.59ZM18.46,61.72l-.64.06,0-.29.64-.06,0,.29Zm-.52-9.92h.16l0,.46c-.15,0-.34.23-.59.66l0-.32c.29-.34.44-.61.42-.79ZM16.58,55l.06.61h-.16L16.42,55Zm-.71,1.14.31,0c0,.5-.17.77-.42.79H15.6a1.46,1.46,0,0,0,.27-.77Zm-.53,1.58.18,0v.15l-.29.48-.31,0V58.2a.4.4,0,0,0,.42-.49Zm-.52,1.43-.09.76h-.16l-.07-.75.32,0ZM9.59,74c-.21,1-.43,1.57-.66,1.59v-.15A1.67,1.67,0,0,1,9.59,74Zm-1,2.08v.15a.27.27,0,0,1-.28.34v-.15q0-.27.28-.34Zm-.28,4.31.48,0,0,.17a1.25,1.25,0,0,0-.48.19l-.31,0c0-.16.08-.28.28-.34Zm13.79-4.26a25.55,25.55,0,0,0-4.8,2.73Q12.93,80.39,13,80.77A48.06,48.06,0,0,0,7.8,83a1.86,1.86,0,0,1-.85-.22,1.37,1.37,0,0,1,.71-1.3,2.75,2.75,0,0,1,1.31.2,12.79,12.79,0,0,1,2.53-.83l0-.32-1,.08a13.15,13.15,0,0,1,2.8-1.31l.48,0v.15c-.83.07-1.29.32-1.39.75,0,.2.13.28.34.26.62-.39.93-.62.92-.69q1.78-.34,9.81-5.13l0,.29c0,.14-.45.53-1.37,1.2Zm-8.22,2.7a3.17,3.17,0,0,0,2-.93c.22,0,.34.07.35.26a7.16,7.16,0,0,0-2.19,1h-.16l0-.31ZM27.19,68.64,23.08,71.9a42,42,0,0,1-4.93,3q-7.3,4-9.07,4.17l-.18,0q.22-.82,6.5-13.31a35.45,35.45,0,0,0,8.71-2.58l1-.08a5.59,5.59,0,0,1,4.49,1.15l.06.61q-1.12,3.21-2.45,3.76Zm-8-4.52.66-.06v.15l-.66.06v-.15Zm9.29-1.57.48,0c.45.21.68.4.7.57v.15a1.36,1.36,0,0,1-1.19-.67Zm1.31-7.48a19,19,0,0,1-3.52,2.62c-.63.06-3,1-7.07,2.76a1.29,1.29,0,0,0-.65-.11l0-.29a3.81,3.81,0,0,1,.79-2.22c.32-1.68.66-2.64,1-2.87l3.4-7.65q-.06-.71,2.18-1.09l.48,0,0,.44c1.46-.22,2.38-.35,2.73-.38,2.7-.23,4.11.32,4.22,1.63l.31,0-.07-.77L34,47a2.12,2.12,0,0,1,1.28,1.59,2.48,2.48,0,0,1-.69,1.59c-.2,0-.33-.13-.34-.43l-.34,0-.07.93q-2.05,3.07-3,3.16c-.56.77-.9,1.16-1,1.16Zm2.09,5.36a1.2,1.2,0,0,0-.67-.26l0-.46.31,0,.68.4a.27.27,0,0,1-.28.34ZM34,63c.3.12.48.25.51.37l-.15,0h0l-.09,0-.22.18L34,63Zm.21,1.29,0-.12.39-.09,0,.12-.39.09Zm.94,1.05c.4-.07.6-.09,1.34-.26l0,.12-1.42.33a1.8,1.8,0,0,0,0-.19Zm1.38.59a6.06,6.06,0,0,0-1.42.2l0-.12,1.18-.38.57-.13.06.22c-.25.06-.07.06-.36.21Zm1.26-.3a.26.26,0,0,1-.32-.19l.36-.08a.22.22,0,0,1,.3.19l-.34.08Zm3.41-3.67,0-.12.59-.14.06.22-.62,0Zm3.64,22.34a.92.92,0,0,0,0-.37l.13,0a.21.21,0,0,1,.29.17l0,.12-.48.11ZM47.4,62.91l-.26,0a7.4,7.4,0,0,1-1.06.35l-.24.06a.24.24,0,0,1-.31-.17l1.71-.39.56-.26.19.21a1.24,1.24,0,0,0-.58.24Zm1.31-.42,0-.12a.71.71,0,0,0,.32-.21l1.21-.28,0,.12a9.37,9.37,0,0,0-1.53.48ZM48.9,60a1,1,0,0,0-.34.21c0-.08-.19-.08-.5,0-.06-.23.84-.56,2.69-1l.26-.06.06.22c-1.3.38-2,.6-2.17.62Zm3.26-3.52C52,58,51.51,58.83,50.58,59l0-.12-.82.32-.36.08a.92.92,0,0,1-.5,0L48.79,59a49.26,49.26,0,0,1,3.56-4.91l.28,0a5.09,5.09,0,0,1-.48,2.39Zm5.77-4.94h-.11l0-.23.48,0v.12a1.57,1.57,0,0,0-.36.15ZM55.55,75.44a1.5,1.5,0,0,0-.75-.17l0-.35q0-.18.22-.25c.16,0,.25.09.27.34a4.08,4.08,0,0,1,.67-.77l.25.1c-.09.71-.31,1.08-.64,1.11ZM81,48.79c-.12,0-.35-.36-.72-1.12l0-.23c.23,0,.48.34.72,1.09l0,.26Zm-.34-2.66-.11.24-3.45-1.44c2.3.07,3.49.48,3.56,1.2ZM66.07,58.67l-.48,0,0-.23.48,0,0,.22Zm-.4-7.54h.13l0,.35q-.18,0-.45.5l0-.23a1.08,1.08,0,0,0,.31-.62Zm-1,2.42,0,.46h-.13l0-.46Zm-.55.87.24,0q0,.59-.31.62h-.13a1.26,1.26,0,0,0,.2-.61Zm-.39,1.19h.11v.12l-.21.37-.24,0V56c.25,0,.36-.15.34-.38Zm-.39,1.08-.08.6h-.11l0-.59.24,0Zm-4,11.3q-.24,1.17-.5,1.2v-.1a1.33,1.33,0,0,1,.51-1.1Zm-.74,1.57v.1a.21.21,0,0,1-.22.27v-.12q0-.18.22-.25Zm-.21,3.28.37,0v.12a1.07,1.07,0,0,0-.36.14l-.24,0q0-.2.22-.25Zm10.46-3.23a21.75,21.75,0,0,0-3.65,2.06c-2.24.78-3.34,1.27-3.33,1.46A35.34,35.34,0,0,0,58,74.87a1.45,1.45,0,0,1-.64-.18,1,1,0,0,1,.54-1,2.1,2.1,0,0,1,1,.15,10.82,10.82,0,0,1,1.93-.62l0-.23-.76.06a10,10,0,0,1,2.14-1l.37,0v.1c-.63.06-1,.24-1.06.58a.21.21,0,0,0,.26.21c.47-.31.69-.48.69-.54q1.34-.24,7.44-3.9l0,.23c0,.1-.34.4-1,.91Zm-6.24,2a2.5,2.5,0,0,0,1.55-.7.21.21,0,0,1,.26.21,5.93,5.93,0,0,0-1.66.71h-.13l0-.22ZM72.7,63.93l-3.1,2.5a30.14,30.14,0,0,1-3.77,2.3q-5.53,3-6.89,3.16h-.13q.17-.63,4.95-10.1a27.26,27.26,0,0,0,6.61-2l.75-.07a4.2,4.2,0,0,1,3.4.89l0,.46c-.57,1.6-1.18,2.54-1.85,2.83ZM66.61,60.5l.48,0v.12l-.48,0V60.5Zm7.05-1.2.37,0c.34.17.52.32.53.44v.1a1,1,0,0,1-.91-.51Zm1-5.67a14.26,14.26,0,0,1-2.66,2,35.65,35.65,0,0,0-5.37,2.08,1.22,1.22,0,0,0-.49-.07l0-.23a2.93,2.93,0,0,1,.59-1.69c.24-1.29.51-2,.79-2.17l2.6-5.81c0-.34.52-.62,1.64-.84l.37,0,0,.35q1.65-.27,2.07-.31c2-.18,3.12.23,3.21,1.24l.24,0,0-.56.24,0a1.55,1.55,0,0,1,1,1.18A1.93,1.93,0,0,1,78.29,50c-.16,0-.25-.09-.27-.34l-.24,0-.07.7c-1,1.57-1.79,2.39-2.26,2.42-.42.57-.68.86-.8.87Zm1.09,3.88,0-.35.24,0,.52.32a.22.22,0,0,1-.22.25,1,1,0,0,0-.51-.2ZM32.36,80.13l-.24.06-.21.18a.21.21,0,0,0,.29.17c.16,0,.22-.13.19-.28l0-.12Zm-.92-1.84,0,.12c.16,0,.22-.13.19-.28l0-.12a.22.22,0,0,0-.19.28ZM38,62.69l.28-.07-.06-.24-.28.07.06.24Zm84.55,7.1a15.73,15.73,0,0,1-3.78.57l0,.23.26,0h.14l0,0,.31-.12c2.8-.31,3.13-.2,3.1-.51v-.11Zm-15.25,2,0,.23h0l0-.23Zm-1.75-6.14-.25-.08a4.21,4.21,0,0,0-.3,1v.1c.2,0,.37-.34.54-1Zm17.58,4.07,0,.23.41.07,0-.23-.41-.07ZM103.84,72.1l-.63-.07-.11.24v.12l3.77-.32,0-.23-3,.26Zm-1.71-8.26v-.12H102l-.23.15.13.22c.18,0,.26-.1.24-.26ZM124.91,68l.18,0c.1,0,.15-.09.14-.24l-.1-.22a3,3,0,0,0-1.46.37V67.8l-.77.07c0-.23-.08-.35-.19-.34l-.4,0c-.47,0-.69,0-.92.2,0-.08,0-.12-.08-.12l-.45,0-.26.15c0-.08,0-.12-.08-.12l-.16.14v-.12l-.62,0h-.15l0,.23.32.08.3,0a.54.54,0,0,0,.34.07l.26-.13V68a19.08,19.08,0,0,1-2.46.47.42.42,0,0,0-.25-.1l0,0a.2.2,0,0,1-.19-.21l.52-.07a3.26,3.26,0,0,0,.35.09c.42-.21.44-.29.66-.31l0-.23a15.16,15.16,0,0,1-2.66.25h-.08l0-.23c2.31-.28,1.54-.12,2.33-.34,0,.08,0,.12.08.12a.54.54,0,0,1,.32-.16h.16a8.46,8.46,0,0,0,2.68-.35v.1l.26-.13.24,0c0-.23.34-.27.46-.28l0-.25c-2.81.57-3.55.41-4.33.63v-.1a3.41,3.41,0,0,1-1,.08.49.49,0,0,0-.23.15c0-.08,0-.12-.09-.12h0l-2.39.39c0-.07,0-.1-.09-.09a12.17,12.17,0,0,1-2.56.46.78.78,0,0,0-.31.13c0-.07,0-.1-.13-.09l-1,.08-.68.17c0-.07,0-.1-.13-.09a5.43,5.43,0,0,1-1,.19h0c-.17,0,.08,0,0-.1l-.21.12c-.3,0-.14,0-1.16,0-1.8.22-1.6.25-1.8.26l-.67,0a.09.09,0,0,1-.1.11c-.76-.1-1.16-.22-1.16-.36q.15-1.09.53-1.12h.13l-.11.24h.13c.24-.13.35-.25.34-.36l0-.25-.24,0,0-.23a.84.84,0,0,1,.07-.47l.55-.89,0,.23.26,0,0-.23-.15-.21a1,1,0,0,1,.47-.27v-.12l-.35,0,0-.35a10,10,0,0,0,1-2.57l.25.1c.16,0,.23-.1.22-.27l-.24,0v-.1a.89.89,0,0,1,.09-.49,1.56,1.56,0,0,0,.52-1.22c.07,0,.11,0,.12.11.33-.19.58-.68.76-1.5A46.85,46.85,0,0,0,110.81,52c2-5.52,2-6.1,2.25-7.41l-.24,0a.84.84,0,0,1-.09.48,1,1,0,0,0-.39-.09v-.1a2.83,2.83,0,0,1,.61-1.71H113l.21.8.24,0a7.33,7.33,0,0,1,.19-1c0-.12-.1-.2-.29-.21l-.23.15c0-.17,0-.61,0-1.3h-.12a.91.91,0,0,1-.32-.51l-1.33.13a1.23,1.23,0,0,0-.15-.41c0-.12.29-.24.9-.36l.27.1.25-.15c0,.08.06.12.15.11l.25-.15c0,.08.06.12.15.11h.12l0-.27c-.19,0-.68,0-1.46,0l-.25.17V40.2q-9.38.77-10.65.89c-.11,0-.55,0-1.32,0,0,.1-.08.16-.27.18l-.27-.12-.91.23a6.08,6.08,0,0,1-1.08,0,.93.93,0,0,1-.51.2l2.67-.17a1.22,1.22,0,0,1-.65.21.9.9,0,0,1-.53-.09,15.14,15.14,0,0,1-2,.47l-.27-.1-4.36.67a1.09,1.09,0,0,0-.59-.09,7.26,7.26,0,0,0-1.16.25l-2.11.88.16.26a1.16,1.16,0,0,0,.43-.17l.75.07-.09.7a1.88,1.88,0,0,0-1.2,1.34c-1,.46-1.55.78-1.55,1v.12h.16l.28-.15.33.39,0,.54q0,.25-5.21,11c-3,6.9-4.6,10.67-4.75,11.35-1,.29-1.63.71-1.81,1.27,0,.18.33.3.92.34l0,.27-.27.45,0,.54q0,.42,2.26.64c0-.09,0-.15.14-.16a8.14,8.14,0,0,1-.28,2h.16A3.47,3.47,0,0,0,79,73.49h.13c.15,0,.31.16.49.52q-.28.11-2,4.45l.16.26H78q2.05-5.2,2.58-5.75,2.7-.24,9.33-1l.28-.17a.13.13,0,0,0,.17.13l.29,0,.28-.17a.13.13,0,0,0,.17.13l3.35-.29c.89-.07,1.3-.34,1.27-.8,0-.12.51-.26,1.57-.41a1.28,1.28,0,0,1,.46.08c0-.08.52-.17,1.58-.26,0-.56.21-.86.52-.89l0-.27a4.63,4.63,0,0,0-1,.23,6.27,6.27,0,0,1-1.33-.16,1.23,1.23,0,0,1-.43.17l-2.33.07-.28.15q0-.13-.17-.11h-.13l-.3.15c0-.08-.25-.15-.74-.21l-.3.18-.58,0v-.15q4.5-.49,4.44-1.22a.26.26,0,0,1,.32.27l.88-.22,0-.27-7.18.2c0,.09,0,.15-.14.16l-.88-.07a1.06,1.06,0,0,0-.56.2l-.33-.12a10,10,0,0,0-2,.33,12.73,12.73,0,0,0-2,0l-1.61.14-.75-.08c0-.48.89-2.81,2.79-7a6.11,6.11,0,0,1,1.54-2.64,1.08,1.08,0,0,1,.46.11l1.15-.39.59.09a13.45,13.45,0,0,0,3.45-.85,1.61,1.61,0,0,1,.75.07l.88-.21,2.61-.22a17.3,17.3,0,0,0,3.62-.74l0-.27c-.48,0-.74,0-.75-.23,0-.36-.38-.51-1.06-.46l0-.27.72-.21,1.88-.16,0-.27c-.07,0-.46,0-1.16,0l0-.29.73-.07c.2,0,.28-.11.26-.3-1,0-1.47,0-1.48-.15q-10.23.5-10.26.19a1.17,1.17,0,0,0-.43.19l-.18-.28q2.71-5.76,3.18-5.8a1.61,1.61,0,0,1-.23.72v.12l.29,0c.72-1.71,1.32-2.6,1.83-2.64,2.14-.19-.3-.33,4.29-1a.9.9,0,0,0,.41.11q2.7-.54,7.52-1.14l0-.27-1.71.16,0-.27a.93.93,0,0,0,.51-.2v.15a1,1,0,0,0,.39-.19,1.22,1.22,0,0,1,.68.08,9.92,9.92,0,0,1,1.43-.29l1.07-.1c.26-.17.38-.32.37-.46v-.12a3.38,3.38,0,0,1-.94-.06.27.27,0,0,1,.24-.3l2-.19.91-.23c0,.1.06.14.13.14a1,1,0,0,0,.39-.19l.15,0a7.42,7.42,0,0,0-.4,1.09l-.26,0a1.14,1.14,0,0,0-.15-.48h-.13c-2.42,6.75-3.5,9.89-5.74,15.07-.41,1.32-.75,2.06-1.05,2.22a.21.21,0,0,0,.26.21,3.25,3.25,0,0,1-.46,1.93c-1,3-1.72,4.61-2.08,4.91l.23,1.41a.22.22,0,0,1-.22.25l-.24,0c0-.39-.18-.58-.43-.55h-.13a5.54,5.54,0,0,0-.72,1.72l.24,0a.81.81,0,0,0,.45-.75l.48,0,.28.1a1.5,1.5,0,0,0-.31.85l.13.22-.32.75v.12a1.51,1.51,0,0,1,.91.26,1.63,1.63,0,0,0,.74-.3c.28,0,1.32,0,3.12,0l.9-.31A21,21,0,0,0,108.5,71l.39,0,.21-.14v.12A6.11,6.11,0,0,1,111,71v.12l-.55,0,0,.23a.79.79,0,0,0,.44-.17c.14,0,.22.07.23.23a3.28,3.28,0,0,0-.75.17l-.24-.08c-.38.1-.3.13-.56.15l-.38-.07a.09.09,0,0,1-.09.11.2.2,0,0,0,.23.21l.39,0,2-.18.77-.17c0,.07,0,.1.1.09l.37-.14.7-.06c.54,0,.53-.08,1.7-.27,0-.07,0-.1.07-.11v.1a17.2,17.2,0,0,0,2.34-.45l0,.06c.48-.11.21-.08.34-.18,0,.08,0,.12.08.12l.34,0,0-.25h-.68v0l-.07,0h-.09v0a3.59,3.59,0,0,1-.76.06l-1.71.09v-.12l1-.13.34,0,.2-.14v.12c1.34-.11,1.82.22,8-1.1.34,0,.31-.31.52-.89a.58.58,0,0,1-.33-.07,9.7,9.7,0,0,1-1.77.26c-.08,0-.15-.07-.18-.21v-.1l1,0a2.4,2.4,0,0,0,1-.34c0,.08-.19.13-.07.12ZM79,68.77l-.44,0a8.27,8.27,0,0,1,.7-2l.29,0a7.62,7.62,0,0,1-.55,2Zm.53-2.12v-.12c0-.15.08-.25.29-.3v.12c0,.18-.08.28-.29.3Zm5.82,4.5v.12l-.73.07v-.12l.73-.07Zm-.88-.07c0,.15-.21.32-.7.48l-.89-.07-.29,0,0-.27,1.91-.18ZM90.4,44,90,44v-.15c0-.15.07-.25.26-.3h.16l.3.12a.26.26,0,0,1-.27.3Zm6.66-1.3h.14l0,.27-.4,0a.27.27,0,0,1,.24-.3Zm-1.68.59-.66-.07V43a7.16,7.16,0,0,0,1.69-.32c0,.1.1.14.27.12l0,.27-.26,0a.9.9,0,0,1-.53-.09,1.14,1.14,0,0,1-.51.19Zm.83,2.41v-.12l1.07-.1v.12l-1.07.1Zm1.15-.93v-.15l.52,0v.15l-.52,0Zm.12-1.83h-.14l.12-.29,1.19-.11v.15a7.18,7.18,0,0,0-1.18.24Zm.61,2.57,0-.27.52,0q.27,0,.28.25l-.78.07Zm3.16-4.3-.67.19h-.12a6.85,6.85,0,0,1-1.21,0c.87-.06,1.7-.12,2-.17Zm-.72,3v.12l-.92.08v-.12l.92-.08Zm1.51.72c0-.11-.19-.19-.55-.22l-.92.26-.71,0c-.16-.11-.24-.19-.25-.24l.82,0,1.84-.3.94,0v.15a5.29,5.29,0,0,0-1.18.24Zm9.49-2.45h.21a3.58,3.58,0,0,1,1.11-.75A6.55,6.55,0,0,1,111.28,45l-.52-.32a17.07,17.07,0,0,0,.77-2.22Zm-1.6,2.75h.13c-.18.34-.34.51-.47.52l0-.35a.8.8,0,0,0,.36-.16Zm-1,2.47a3.5,3.5,0,0,1,.72-1.72V46c-.13.93-.34,1.43-.61,1.46l0,.59a1.32,1.32,0,0,0-.32.75h-.13l-.07-.81c.15,0,.27-.15.35-.39Zm-.4,1.34a3.4,3.4,0,0,1-.27,1h-.13l0-.35c.18-.41.33-.62.43-.62ZM101,70.8v-.1l.24,0,0,.35c-.13,0-.22-.07-.26-.23Zm10.74.28c0-.08,0-.12-.13-.11L111,71V70.9H111l1.43-.12v.12a1.26,1.26,0,0,0-.75.18Zm-.72-.3c.06,0,0,.06,0,.07s-.07,0,0-.07Zm.07-1.68-.8.07V69L111,69l.63-.16c0,.07,0,.1.13.09.75-.13.68-.17,1-.2.12,0,.2.07.21.21l-1.93.17Zm2.8-.24a3.19,3.19,0,0,0-.79-.06v-.1l.72-.07v.1c-.07,0,.2,0,.07.12Zm.06-.13v-.1l.39,0v.1l-.39,0Zm.87-.07v-.1a.68.68,0,0,0,.28-.15.28.28,0,0,1,.32.26Zm1.11-.14v-.12l.48,0v.12l-.48,0Zm.66-.06c0-.14,0-.22.17-.24l.16.21a.09.09,0,0,1,.07-.11l.12.22-.52-.07Zm-7,3,0-.23h-.07l0,.23Zm16.37-4.24c.07,0,.11-.09-.07-.12s.09.12-.09.13v.08l.1-.07-.1.08h0l-.2.25.39-.14h0l0-.23Zm.68.53h-.07l0,.23.55,0c0-.15-.37-.2-.49-.2Zm-.85-.41h0v0Z"/><path fill="#f9dc3e" d="M90,50.13v.15l.31,0a1.18,1.18,0,0,1,.09-.43l0-.27c-.13,0-.26.21-.38.58ZM87,43l0-.27-.44,0,0,.27L87,43ZM78.48,59a14.07,14.07,0,0,0-2.35-3c0-.32.5-.79,1.59-1.42L80.84,52a7.79,7.79,0,0,0,1.23-4.31l0-.46c-.12-1.38-1.12-2.49-3-3.34q-1.68-1.13-6-1.25a35.58,35.58,0,0,0-9.41,2.58,38.64,38.64,0,0,1-3.63,2.29l0,.23a.87.87,0,0,0,.36-.16.21.21,0,0,1,.26.21l.23-.12h.11v.1a12.79,12.79,0,0,1-2.52,2l.13.24h-.11l-.28-.1c0,.08-.11.14-.34.16v.1l.27.34a1,1,0,0,1-.39-.09,1.88,1.88,0,0,0-1.16.63l.16-.69a56.27,56.27,0,0,0,1.16-6.5l0-.12a4.73,4.73,0,0,1-1.13-1.05,3.71,3.71,0,0,0,0-.49l0-.1-.11,0q-1.85,2.77-7.11,9.45-4,4.75-4.14,5.28c-1.09,1.13-1.61,1.81-1.56,2-.29.19-.41.37-.36.58a.12.12,0,0,1-.16-.09,3.17,3.17,0,0,1-2.08,1.45l-1,.22a.23.23,0,0,0-.19.28l0,.12.36-.08,0,.1-.82.32-1.45.34-.76,0c-.11.11.61,0,.33.06l-1,.22c-.58.13-.89.08-1-.15l-.11,0a.54.54,0,0,1,0,.24l-.06-.23-.76.18q-.08-.53-3.09-3.86c0-.43.67-1.05,2.12-1.86L38,53.14q1.37-1.76,1.63-5.65l-.06-.61c-.16-1.83-1.48-3.3-4-4.44-1.47-1-4.12-1.53-7.94-1.61A47.82,47.82,0,0,0,15.27,44.2a47.39,47.39,0,0,1-4.78,3l0,.32a1.25,1.25,0,0,0,.48-.19.27.27,0,0,1,.34.26l.32-.18h.16v.15a18.64,18.64,0,0,1-3.34,2.6l.18.28H8.49l-.34-.12c0,.09-.15.16-.48.19l0,.17.37.41a1.36,1.36,0,0,1-.5-.1,3.17,3.17,0,0,0-2.13,1.57l.18.28A4.47,4.47,0,0,1,6.66,52l0,.46a1.53,1.53,0,0,0-.48.19l.38.58a12.63,12.63,0,0,1,2.43-2c.44.11.67.25.68.4l.34,0a26,26,0,0,1,7.14-3.86l0,.32q-.66,1-.89,1a1,1,0,0,0,.23.59q.06.6-3.21,8.1Q6,75.13.92,83.47a1.08,1.08,0,0,0,.2.45,4.17,4.17,0,0,0,1.57-.6l.18,0,0,.32.31,0,.32-.18c0,.09.11.14.33.12l0,.32a2.83,2.83,0,0,1-.52,1.42,7.37,7.37,0,0,0-1.08,2.4v.15l.31,0a19.55,19.55,0,0,0,3.06-4.41,48.85,48.85,0,0,0,9-3.38,8.39,8.39,0,0,0,4.74-1.63l0-.17-.78.23-.18,0,0-.17a7.07,7.07,0,0,0,3.17-1q4.46-3.44,6.74-4.87,4.68-3.44,6.08-6.7l.52-.12a6.81,6.81,0,0,0,.75,0c0-.08,0-.13.1-.15.7-.07.36,0,.81-.06L37.69,65l.2,0-.09.06a1.14,1.14,0,0,0,.43,0l.08.34L33,73.85l-1.18,1.48-.58,1.94.11,0,.58-.24-.19.75.06.22.16.2c-.07,0-.1.07-.08.15l0,.12.24-.06q.53-.46.45-.84a2.21,2.21,0,0,0,.76.06l0,.12c-.23.06-.35.24-.37.56l0,.12.13,0c1.94-2.12,6.69-9.35,10.5-14.27q-.18-.8,6-2.22l.13,0q.22,1-1,4.67A12.58,12.58,0,0,0,48.07,69a18.69,18.69,0,0,0-.92,3.22L45.69,77a43.46,43.46,0,0,0-2.16,7.71,1,1,0,0,1,.4,0l.21-.18a.12.12,0,0,0,.16.09l-.08-.34.63,0c.19,0,.34-.28.48-.71,0-.64.1-1,.39-1.06a10.29,10.29,0,0,1,.72-2.32,10.29,10.29,0,0,1,.81-2.6c.55-2,1-3,1.21-3.06l.06.24-.4,1A50.68,50.68,0,0,1,46,83.14l.21.89.13,0q2.6-5.59,7.48-22.14a2.89,2.89,0,0,1,1.39-2.25l-.19-.2,0-.1a1.27,1.27,0,0,0,.78-.44c0-.08-.34-.21-1-.37l1.62-7a2.41,2.41,0,0,1,.62-.48l0,.35a.87.87,0,0,0-.36.16L57,52a10,10,0,0,1,1.83-1.57c.34.09.5.21.52.32l.24,0A19.75,19.75,0,0,1,65,47.85l0,.23q-.49.74-.67.75a1,1,0,0,0,.15.45,42.49,42.49,0,0,1-2.41,6.16A167.41,167.41,0,0,1,52.66,75a.87.87,0,0,0,.17.34A3,3,0,0,0,54,74.88h.11l0,.23.26,0,.23-.12q0,.1.25.08l0,.25a2.12,2.12,0,0,1-.4,1.06,5.31,5.31,0,0,0-.85,1.82v.12l.24,0a14.72,14.72,0,0,0,2.32-3.35A37.55,37.55,0,0,0,63,72.36a6.39,6.39,0,0,0,3.62-1.24V71l-.61.18H65.9v-.12a5.36,5.36,0,0,0,2.4-.77c2.25-1.73,4-3,5.12-3.7C77,64,78.68,61.46,78.48,59Zm-.62.16.08.94c-.11.23-.23.35-.34.36l-.14-1.6c.26.09.39.19.4.3ZM7.31,51.62H7.15l0-.29.64-.06v.15a1.24,1.24,0,0,0-.47.19ZM4.17,83a2,2,0,0,0-1-.21l0-.46c0-.18.08-.3.31-.34s.33.13.34.43a6.78,6.78,0,0,1,.89-1l.34.14c-.11.93-.4,1.41-.86,1.44Zm33.55-35.1c-.16,0-.48-.48-.93-1.45l0-.29c.3,0,.61.46.93,1.45l0,.29Zm-.45-3.48-.13.31-4.56-1.9q4.56.15,4.69,1.59ZM18,61l-.64.06,0-.29.64-.06L18,61Zm-.52-9.92h.16l0,.46c-.15,0-.34.23-.59.66l0-.32c.29-.34.44-.61.42-.79Zm-1.35,3.19.06.61h-.16L16,54.25Zm-.71,1.14.31,0c0,.5-.17.77-.42.79h-.16a1.46,1.46,0,0,0,.27-.77ZM14.92,57l.18,0v.15l-.29.48-.31,0v-.15a.4.4,0,0,0,.42-.49Zm-.52,1.43-.09.76h-.16l-.07-.75.32,0ZM9.17,73.25c-.21,1-.43,1.57-.66,1.59v-.15a1.67,1.67,0,0,1,.67-1.44Zm-1,2.08v.15a.27.27,0,0,1-.28.34v-.15q0-.27.28-.34Zm-.28,4.31.48,0,0,.17a1.25,1.25,0,0,0-.48.19l-.31,0c0-.16.08-.28.28-.34Zm13.79-4.26a25.56,25.56,0,0,0-4.8,2.73Q12.51,79.65,12.55,80A48,48,0,0,0,7.38,82.3a1.86,1.86,0,0,1-.85-.22,1.37,1.37,0,0,1,.71-1.3A2.75,2.75,0,0,1,8.55,81a12.78,12.78,0,0,1,2.53-.83l0-.32-1,.08a13.17,13.17,0,0,1,2.8-1.31l.48,0v.15c-.83.07-1.29.32-1.39.75,0,.2.13.28.34.26.62-.39.93-.62.92-.69q1.77-.34,9.81-5.13l0,.29c0,.14-.45.53-1.37,1.2Zm-8.22,2.7a3.17,3.17,0,0,0,2-.93c.22,0,.34.07.35.26a7.17,7.17,0,0,0-2.19,1h-.16l0-.31ZM26.77,67.9l-4.11,3.26a40.68,40.68,0,0,1-4.94,3q-7.3,4-9.07,4.17l-.18,0q.22-.82,6.5-13.31a35.47,35.47,0,0,0,8.71-2.58l1-.08a5.59,5.59,0,0,1,4.49,1.15l.06.61c-.74,2.13-1.56,3.38-2.44,3.75Zm-8-4.52.66-.06v.15l-.66.06v-.15ZM28,61.81l.48,0c.45.21.68.4.7.57v.15A1.36,1.36,0,0,1,28,61.81Zm1.31-7.48a19,19,0,0,1-3.52,2.62c-.63.06-3,1-7.07,2.76a1.29,1.29,0,0,0-.65-.11l0-.29a3.81,3.81,0,0,1,.79-2.22c.32-1.68.66-2.64,1-2.87l3.4-7.65q-.06-.71,2.18-1.09l.48,0,0,.44c1.46-.22,2.38-.35,2.73-.38,2.7-.23,4.11.32,4.22,1.63l.31,0-.07-.77.34,0a2.12,2.12,0,0,1,1.28,1.59,2.48,2.48,0,0,1-.69,1.59c-.21,0-.33-.13-.34-.43l-.34,0-.07.93q-2.05,3.07-3,3.16c-.56.77-.9,1.16-1,1.16Zm2.09,5.36a1.2,1.2,0,0,0-.67-.26l0-.46.31,0,.68.4a.27.27,0,0,1-.28.34Zm2.16,2.56c.3.12.48.25.51.37l-.15,0h0l-.09,0-.22.18-.06-.62Zm.2,1.29,0-.12.39-.09,0,.12-.39.09Zm.94,1.05c.4-.07.6-.09,1.34-.26l0,.12-1.42.33a1.87,1.87,0,0,0,0-.19Zm1.38.59a6.06,6.06,0,0,0-1.42.2l0-.12,1.19-.38.57-.13.06.22c-.26.06-.07.06-.37.21Zm1.26-.3a.26.26,0,0,1-.32-.19l.36-.08a.22.22,0,0,1,.3.19l-.34.08Zm3.41-3.67,0-.12.59-.14.06.22-.62,0Zm3.64,22.34a.92.92,0,0,0,0-.37l.13,0a.21.21,0,0,1,.29.17l0,.12-.48.11ZM47,62.16l-.26,0a7.38,7.38,0,0,1-1.06.35l-.24.06a.24.24,0,0,1-.31-.17L46.81,62l.56-.26.19.21a1.25,1.25,0,0,0-.58.24Zm1.31-.42,0-.12a.71.71,0,0,0,.32-.21l1.21-.28,0,.12a9.36,9.36,0,0,0-1.53.48Zm.19-2.45a1,1,0,0,0-.34.21c0-.08-.19-.08-.5,0-.06-.23.84-.56,2.69-1l.26-.06.06.22c-1.3.38-2,.6-2.17.62Zm3.26-3.52c-.13,1.48-.65,2.32-1.57,2.53l0-.12-.82.32-.36.08a.91.91,0,0,1-.5,0l-.07-.33a49.32,49.32,0,0,1,3.56-4.91l.28,0a5.09,5.09,0,0,1-.48,2.39Zm5.77-4.94h-.11l0-.23.48,0v.12a1.57,1.57,0,0,0-.36.15ZM55.13,74.69a1.49,1.49,0,0,0-.75-.17l0-.35q0-.18.22-.25c.16,0,.25.09.27.34a4.09,4.09,0,0,1,.67-.77l.25.1c-.09.71-.31,1.08-.64,1.11ZM80.6,48c-.12,0-.35-.36-.72-1.12l0-.23c.23,0,.48.34.72,1.09l0,.26Zm-.34-2.66-.11.24-3.45-1.44c2.3.07,3.49.48,3.56,1.2ZM65.65,57.93l-.48,0,0-.23.48,0,0,.23Zm-.4-7.54h.13l0,.35q-.18,0-.45.5l0-.23a1.08,1.08,0,0,0,.31-.62Zm-1,2.42,0,.46h-.13l0-.46Zm-.55.87.24,0q0,.59-.31.61h-.13a1.26,1.26,0,0,0,.2-.61Zm-.39,1.19h.11V55l-.21.37-.24,0v-.12c.25,0,.36-.15.34-.38ZM62.9,56l-.08.6H62.7l0-.59.24,0Zm-4,11.3q-.24,1.17-.5,1.2v-.1a1.33,1.33,0,0,1,.51-1.1Zm-.74,1.57v.1a.21.21,0,0,1-.22.27v-.12q0-.18.22-.25ZM58,72.11l.37,0v.12a1.07,1.07,0,0,0-.36.14l-.24,0q0-.2.22-.25Zm10.46-3.23a21.75,21.75,0,0,0-3.65,2.06c-2.24.78-3.34,1.27-3.33,1.46a35.33,35.33,0,0,0-3.9,1.72,1.45,1.45,0,0,1-.64-.18,1,1,0,0,1,.54-1,2.1,2.1,0,0,1,1,.15,10.83,10.83,0,0,1,1.93-.62l0-.23-.75.07a10,10,0,0,1,2.14-1l.37,0v.1c-.63.06-1,.24-1.06.58a.21.21,0,0,0,.26.21c.47-.31.69-.48.69-.54q1.34-.24,7.44-3.9l0,.23c0,.09-.34.39-1,.9Zm-6.24,2a2.5,2.5,0,0,0,1.55-.7c.16,0,.25.06.26.21a5.92,5.92,0,0,0-1.66.71h-.13l0-.22Zm10.08-7.74-3.1,2.5A30.16,30.16,0,0,1,65.41,68q-5.53,3-6.89,3.16h-.13q.17-.63,4.95-10.1a27.26,27.26,0,0,0,6.61-2L70.7,59a4.2,4.2,0,0,1,3.4.89l0,.46C73.57,62,73,62.9,72.28,63.18Zm-6.09-3.43.48,0v.12l-.48,0v-.12Zm7.05-1.2.37,0c.34.17.52.32.53.44v.1a1,1,0,0,1-.91-.51Zm1-5.67a14.26,14.26,0,0,1-2.66,2A35.66,35.66,0,0,0,66.2,57a1.23,1.23,0,0,0-.49-.07l0-.23A2.92,2.92,0,0,1,66.27,55c.24-1.29.51-2,.79-2.17L69.67,47c0-.34.52-.62,1.64-.84l.37,0,0,.35q1.65-.27,2.07-.31c2-.18,3.12.23,3.21,1.24l.24,0,0-.56.24,0a1.55,1.55,0,0,1,1,1.18,1.93,1.93,0,0,1-.49,1.22c-.16,0-.25-.09-.27-.34l-.24,0-.07.7C76.25,51.16,75.5,52,75,52c-.42.57-.68.86-.8.87Zm1.09,3.88,0-.35.24,0,.52.32a.22.22,0,0,1-.22.25,1,1,0,0,0-.51-.2ZM31.94,79.39l-.24.06-.21.18a.21.21,0,0,0,.29.17c.16,0,.22-.13.19-.28l0-.12ZM31,77.55l0,.12c.16,0,.22-.13.19-.28l0-.12a.22.22,0,0,0-.19.28Zm6.6-12.39.18-.11-.09,0a.11.11,0,0,0-.08.13Zm0-3.21.28-.07-.06-.24-.28.07.06.24Zm65.85,9.41-.63-.07-.11.24v.12l3.77-.32,0-.23-3,.26Zm3.45-.29,0,.23h0l0-.23ZM122.7,69l0,.23.41.07,0-.23L122.7,69Zm-.58,0a15.72,15.72,0,0,1-3.78.57l0,.23.26,0h.14l0,0,.31-.12c2.8-.31,3.13-.2,3.1-.51V69Zm-17-4.12-.25-.08a4.2,4.2,0,0,0-.3,1v.1c.2,0,.37-.34.54-1Zm-3.41-1.84V63h-.13l-.23.15.13.22c.18,0,.26-.1.24-.26Zm7.41,7.66,0-.23H109l0,.23Zm15.37-3.47.18,0c.1,0,.15-.09.14-.24l-.1-.22a3,3,0,0,0-1.46.37v-.12l-.77.07c0-.23-.08-.35-.19-.34l-.4,0c-.47,0-.69,0-.92.2,0-.08,0-.12-.08-.12l-.45,0-.26.15c0-.08,0-.12-.08-.12l-.16.14V67l-.62,0h-.15l0,.23.32.08.3,0a.54.54,0,0,0,.34.07l.26-.13v.1a19.08,19.08,0,0,1-2.46.47.43.43,0,0,0-.25-.1l0,0a.2.2,0,0,1-.19-.21l.52-.07a3.19,3.19,0,0,0,.35.09c.42-.21.44-.29.66-.31l0-.23a15.19,15.19,0,0,1-2.66.25h-.08l0-.23c2.31-.28,1.54-.12,2.33-.34,0,.08,0,.12.08.12a.54.54,0,0,1,.32-.16h.16a8.46,8.46,0,0,0,2.68-.35v.1l.26-.13.24,0c0-.23.34-.27.46-.28l0-.25c-2.81.57-3.55.41-4.33.63v-.1a3.41,3.41,0,0,1-1,.08.49.49,0,0,0-.23.15c0-.08,0-.12-.09-.12h0l-2.39.39c0-.07,0-.1-.09-.09a12.17,12.17,0,0,1-2.56.46.78.78,0,0,0-.31.13c0-.07,0-.1-.13-.09l-1,.08-.68.17c0-.07,0-.1-.13-.09a5.41,5.41,0,0,1-1,.19h0c-.17,0,.08,0,0-.1l-.21.12c-.3,0-.14,0-1.16,0-1.8.22-1.6.25-1.8.26l-.67,0a.09.09,0,0,1-.1.11c-.76-.1-1.16-.22-1.16-.36q.15-1.09.53-1.12h.13l-.11.24h.13c.24-.13.35-.25.34-.36l0-.25-.24,0,0-.23a.84.84,0,0,1,.07-.47l.55-.89,0,.23.26,0,0-.23-.15-.21a1,1,0,0,1,.47-.27v-.12l-.35,0,0-.35a10,10,0,0,0,1-2.57l.25.1c.16,0,.23-.1.22-.27l-.24,0v-.1a.89.89,0,0,1,.09-.49,1.56,1.56,0,0,0,.52-1.22c.07,0,.11,0,.12.11.33-.19.58-.68.76-1.5a46.87,46.87,0,0,0,2.47-6.25c2.05-5.52,2-6.1,2.25-7.41l-.24,0a.84.84,0,0,1-.09.48,1,1,0,0,0-.39-.09v-.1a2.83,2.83,0,0,1,.61-1.71h.11l.21.8.24,0a7.3,7.3,0,0,1,.19-1c0-.12-.1-.2-.29-.21l-.23.15c0-.17,0-.61,0-1.3h-.12a.91.91,0,0,1-.32-.51l-1.33.13a1.22,1.22,0,0,0-.15-.41c0-.12.29-.24.9-.36l.27.1.25-.15c0,.08.06.12.15.11l.25-.15c0,.08.06.12.15.11h.12l0-.27c-.19,0-.68,0-1.46,0l-.25.17v-.15q-9.38.77-10.65.89c-.11,0-.55,0-1.32,0,0,.1-.08.16-.27.18l-.27-.12-.91.23a6.06,6.06,0,0,1-1.08,0,.93.93,0,0,1-.51.2l2.67-.17a1.22,1.22,0,0,1-.65.21.9.9,0,0,1-.53-.09,15.15,15.15,0,0,1-2,.47l-.27-.1-4.36.67a1.09,1.09,0,0,0-.59-.09,7.24,7.24,0,0,0-1.16.25l-2.11.88.16.26a1.17,1.17,0,0,0,.43-.17l.75.07-.09.7A1.88,1.88,0,0,0,87.24,45c-1,.46-1.55.78-1.55,1v.12h.16l.28-.15.33.39,0,.54q0,.25-5.21,11c-3,6.9-4.6,10.67-4.75,11.35-1,.29-1.63.71-1.81,1.27,0,.18.33.3.92.34l0,.27-.27.45,0,.54q0,.42,2.26.64c0-.09,0-.15.14-.16a8.16,8.16,0,0,1-.28,2h.16a3.47,3.47,0,0,0,.88-1.73h.13c.15,0,.31.16.49.52q-.28.11-2,4.45l.16.26h.16q2.05-5.2,2.58-5.75,2.7-.24,9.33-1l.28-.17a.13.13,0,0,0,.17.13l.29,0,.28-.17a.13.13,0,0,0,.17.13L94,70.87c.89-.07,1.3-.34,1.27-.8,0-.12.51-.26,1.57-.41a1.28,1.28,0,0,1,.46.08c0-.08.52-.17,1.58-.26,0-.56.2-.86.52-.89l0-.27a4.63,4.63,0,0,0-1,.23,6.26,6.26,0,0,1-1.33-.16,1.23,1.23,0,0,1-.43.17l-2.33.07-.28.15q0-.13-.17-.11h-.13l-.3.15c0-.08-.25-.15-.74-.21l-.3.18-.58,0V68.7q4.5-.49,4.44-1.22a.26.26,0,0,1,.32.27l.88-.22,0-.27-7.18.2c0,.09,0,.15-.14.16l-.88-.07a1.06,1.06,0,0,0-.56.2l-.33-.12a10,10,0,0,0-2,.33,12.73,12.73,0,0,0-2,0l-1.61.14L81.9,68c0-.48.89-2.81,2.79-7a6.11,6.11,0,0,1,1.54-2.64,1.08,1.08,0,0,1,.46.11l1.15-.39.59.09a13.45,13.45,0,0,0,3.45-.85,1.62,1.62,0,0,1,.75.07l.88-.21L96.09,57a17.3,17.3,0,0,0,3.62-.74l0-.27c-.48,0-.74,0-.75-.23,0-.36-.38-.51-1.06-.46l0-.27.72-.21,1.88-.16,0-.27c-.07,0-.46,0-1.16,0l0-.29.73-.07c.2,0,.28-.11.26-.3-1,0-1.47,0-1.48-.15q-10.23.5-10.26.19a1.17,1.17,0,0,0-.43.19l-.18-.28q2.71-5.76,3.18-5.8a1.69,1.69,0,0,1-.22.72v.12l.29,0c.72-1.71,1.32-2.6,1.83-2.64,2.14-.19-.3-.33,4.29-1a.89.89,0,0,0,.41.11q2.7-.55,7.52-1.14l0-.27-1.71.16,0-.27a.93.93,0,0,0,.51-.2v.15a1,1,0,0,0,.39-.19,1.23,1.23,0,0,1,.68.08,9.92,9.92,0,0,1,1.44-.29l1.07-.1c.26-.17.38-.32.37-.46v-.12a3.38,3.38,0,0,1-.94-.06.27.27,0,0,1,.24-.3l2-.19.91-.23c0,.1.06.14.13.14a1,1,0,0,0,.39-.19l.15,0a7.45,7.45,0,0,0-.4,1.09l-.26,0a1.14,1.14,0,0,0-.15-.48h-.13c-2.42,6.75-3.5,9.89-5.74,15.07-.41,1.32-.75,2.06-1.05,2.22a.21.21,0,0,0,.26.21,3.25,3.25,0,0,1-.46,1.93c-1,3-1.72,4.61-2.08,4.91L101,68a.22.22,0,0,1-.22.25l-.24,0c0-.39-.18-.58-.43-.55h-.13a5.54,5.54,0,0,0-.72,1.72l.24,0a.81.81,0,0,0,.45-.75l.48,0,.28.1a1.49,1.49,0,0,0-.31.85l.13.22-.32.75v.12a1.51,1.51,0,0,1,.91.26,1.63,1.63,0,0,0,.74-.3c.28,0,1.32,0,3.12,0l.9-.31a20.9,20.9,0,0,0,2.23-.07l.39,0,.21-.14v.12a6.11,6.11,0,0,1,1.84.07v.12l-.55,0,0,.23a.79.79,0,0,0,.44-.17c.14,0,.22.07.23.23a3.28,3.28,0,0,0-.75.17l-.24-.08c-.38.1-.3.13-.56.15l-.38-.07a.09.09,0,0,1-.09.11.2.2,0,0,0,.23.21l.39,0,2-.18.77-.17c0,.07,0,.1.1.09l.37-.14.7-.06c.54,0,.53-.08,1.71-.27,0-.07,0-.1.07-.11v.1A17.2,17.2,0,0,0,117.4,70l0,.06c.48-.11.21-.08.34-.18,0,.08,0,.12.08.12l.34,0,0-.25h-.68v0l-.07,0h-.09v0a3.59,3.59,0,0,1-.76.06l-1.71.09v-.12l1-.13.34,0,.2-.14v.12c1.34-.11,1.82.22,8-1.1.34,0,.31-.31.52-.89a.58.58,0,0,1-.33-.07,9.7,9.7,0,0,1-1.77.26c-.08,0-.15-.07-.18-.21v-.1l1,0a2.4,2.4,0,0,0,1-.34c0,.08-.2.13-.08.12ZM78.61,68l-.44,0a8.26,8.26,0,0,1,.7-2l.29,0a7.62,7.62,0,0,1-.55,2Zm.53-2.12v-.12c0-.15.08-.25.29-.3v.12c0,.18-.08.28-.29.3ZM85,70.4v.12l-.73.07v-.12L85,70.4Zm-.88-.07c0,.15-.21.32-.7.48l-.89-.07-.29,0,0-.27,1.91-.18ZM90,43.22l-.44,0v-.15c0-.15.07-.25.26-.3h.16l.3.12a.26.26,0,0,1-.27.3Zm6.66-1.3h.14l0,.27-.4,0a.27.27,0,0,1,.24-.3ZM95,42.5l-.66-.07V42.3A7.15,7.15,0,0,0,96,42c0,.1.1.14.27.12l0,.27-.26,0a.9.9,0,0,1-.53-.09,1.14,1.14,0,0,1-.51.19Zm.83,2.41v-.12l1.07-.1v.12l-1.07.1ZM96.94,44v-.15l.52,0v.15l-.52,0Zm.12-1.83h-.14l.12-.29,1.19-.11v.15a7.2,7.2,0,0,0-1.18.24Zm.61,2.57,0-.27.52,0q.27,0,.28.25l-.78.07Zm3.16-4.3-.67.19H100a6.85,6.85,0,0,1-1.21,0c.87-.06,1.7-.12,2-.17Zm-.72,3v.12l-.92.08v-.12l.92-.08Zm1.51.72c0-.11-.19-.19-.55-.22l-.92.26-.71,0c-.16-.11-.24-.19-.25-.24l.82,0,1.84-.3.94,0v.15a5.28,5.28,0,0,0-1.18.24Zm9.49-2.45h.21a3.57,3.57,0,0,1,1.11-.75,6.55,6.55,0,0,1-1.57,3.27l-.52-.32a17,17,0,0,0,.77-2.22Zm-1.6,2.75h.13c-.18.34-.34.51-.47.52l0-.35a.79.79,0,0,0,.36-.16Zm-1,2.47a3.5,3.5,0,0,1,.72-1.72v.12c-.13.93-.34,1.43-.61,1.46l0,.59a1.32,1.32,0,0,0-.32.75h-.13l-.07-.81c.15,0,.27-.15.35-.39Zm-.4,1.34a3.41,3.41,0,0,1-.27,1h-.13l0-.35c.18-.41.33-.62.43-.62Zm-7.52,21.82v-.1l.24,0,0,.35c-.13,0-.22-.07-.26-.23Zm10.74.28c0-.08,0-.12-.13-.11l-.61.06v-.12h.06L112,70v.12a1.26,1.26,0,0,0-.75.18Zm-.72-.3c.06,0,0,.06,0,.07s-.07,0,0-.07Zm.07-1.68-.8.07V68.3l.73-.07.63-.16c0,.07,0,.1.13.09.75-.13.68-.17,1-.2.12,0,.2.07.21.21l-1.93.17Zm2.8-.24a3.19,3.19,0,0,0-.79-.06V68l.72-.07V68c-.07,0,.2,0,.07.12Zm.06-.13v-.1l.39,0v.1l-.39,0Zm.87-.07v-.1a.68.68,0,0,0,.28-.15.28.28,0,0,1,.32.26Zm1.11-.14v-.12l.48,0v.12l-.48,0Zm.66-.06c0-.14,0-.22.17-.24l.16.21a.09.09,0,0,1,.07-.11l.12.22-.52-.07Zm9.17-1.08h0v0Zm.17-.12c.07,0,.11-.09-.07-.12s.09.12-.09.13v.08l.1-.07-.1.08h0l-.2.25.39-.14h0l0-.23Zm.68.53h-.07l0,.23.55,0c0-.15-.37-.2-.49-.2Z"/>
    </symbol>
    <symbol id="back-to" viewBox="0 0 26 26">
       <path d="M13.8 1.3L21.6 9c.1.1.1.3.2.4.1.1.1.3.1.4s0 .3-.1.4c-.1.1-.1.3-.3.4-.1.1-.2.2-.4.3-.2.1-.3.1-.4.1-.1 0-.3 0-.4-.1-.2-.1-.3-.2-.4-.3L14.2 5v19.1c0 .2-.1.3-.1.5 0 .1-.1.3-.3.4-.1.1-.2.2-.4.3-.1.1-.3.1-.5.1-.1 0-.3 0-.4-.1-.1-.1-.3-.1-.4-.3-.1-.1-.2-.2-.3-.4-.1-.1-.1-.3-.1-.5V5L6 10.7c0 .1-.2.2-.3.3-.1.1-.3.1-.4.1-.2 0-.3 0-.4-.1-.1-.1-.3-.2-.4-.3-.1-.1-.1-.2-.2-.4-.2-.1-.3-.2-.2-.4 0-.1 0-.3.1-.4 0-.1.1-.3.3-.4l7.7-7.8c.1 0 .2-.1.2-.1s.1-.1.2-.1.2 0 .2-.1h.4c.1 0 .2 0 .2.1.1 0 .1.1.2.1s.2 0 .2.1z"/> 
    </symbol>
    <symbol id="bootstrap" viewBox="0 0 256 256">
      <path d="M106.158 113.238V76.985h31.911c3.04 0 5.97.253 8.792.76 2.822.506 5.319 1.41 7.49 2.713 2.17 1.303 3.907 3.112 5.21 5.427 1.302 2.316 1.954 5.283 1.954 8.9 0 6.513-1.954 11.217-5.862 14.111-3.907 2.895-8.9 4.342-14.979 4.342h-34.516zM72.075 50.5v155h75.112c6.947 0 13.713-.868 20.298-2.605 6.585-1.737 12.446-4.414 17.584-8.032 5.137-3.618 9.226-8.286 12.265-14.002 3.04-5.717 4.559-12.483 4.559-20.298 0-9.697-2.352-17.982-7.055-24.856-4.704-6.875-11.832-11.687-21.384-14.437 6.947-3.328 12.194-7.598 15.74-12.808 3.545-5.21 5.318-11.722 5.318-19.538 0-7.236-1.194-13.314-3.582-18.235-2.388-4.92-5.753-8.864-10.095-11.831-4.341-2.967-9.551-5.102-15.63-6.404-6.078-1.303-12.808-1.954-20.189-1.954H72.075zm34.083 128.515v-42.549h37.121c7.381 0 13.315 1.7 17.802 5.102 4.486 3.401 6.73 9.081 6.73 17.041 0 4.053-.688 7.381-2.063 9.986-1.375 2.605-3.22 4.668-5.536 6.187-2.315 1.52-4.993 2.605-8.032 3.257-3.04.65-6.223.976-9.552.976h-36.47z" fill="#563D7C"/>
    </symbol>
    <symbol id="circle-gradient" viewBox="0 0 100 100">
       <linearGradient id="circleGrad"> <stop offset="0%" stop-color="#fbc2eb"/> <stop offset="100%" stop-color="#a6c1ee"/> </linearGradient> 
    </symbol>
    <symbol id="css" viewBox="0 0 16 16">
      <path fill="#2196F3" d="M12.274 4.709l-.161 1.809-.486 5.423L8 12.944l-.003.001-3.625-1.004-.253-2.836h1.776l.132 1.471 1.971.532.001-.001 1.974-.532.269-2.451-6.208.017-.176-1.676 6.533-.077.132-1.794-6.84.019-.115-1.669h8.864z"/>
    </symbol>
    <symbol id="figma" viewBox="0 0 48 48">
      <path fill="#0ACF83" d="M19.2 38.3999C21.851 38.3999 24 36.2509 24 33.5999V28.7999H19.2C16.549 28.7999 14.4 30.949 14.4 33.5999C14.4 36.2509 16.549 38.3999 19.2 38.3999Z"/><path fill="#A259FF" d="M14.4 24C14.4 21.349 16.549 19.2 19.2 19.2H24V28.8H19.2C16.549 28.8 14.4 26.6509 14.4 24Z"/><path fill="#F24E1E" d="M14.4 14.4C14.4 11.749 16.549 9.59998 19.2 9.59998H24V19.2H19.2C16.549 19.2 14.4 17.0509 14.4 14.4Z"/><path fill="#FF7262" d="M24 9.59998H28.8C31.451 9.59998 33.6 11.749 33.6 14.4C33.6 17.0509 31.451 19.2 28.8 19.2H24V9.59998Z"/><path fill="#1ABCFE" d="M33.6 24C33.6 26.6509 31.451 28.8 28.8 28.8C26.149 28.8 24 26.6509 24 24C24 21.349 26.149 19.2 28.8 19.2C31.451 19.2 33.6 21.349 33.6 24Z"/>
    </symbol>
    <symbol id="git" viewBox="0 0 128 128">
      <path fill="#F34F29" d="M76.004 50.588c-7.655 0-11.459 3.996-11.459 9.75 0 3.704 1.852 6.328 4.304 7.529-1.201 1.101-2.201 2.064-3.102 3.014-.902.952-1.452 1.957-1.452 3.059 0 1.352.55 2.605 2.202 3.303-1.751 1.654-2.753 2.854-2.753 5.107 0 3.953 3.453 6.256 12.511 6.256 8.708 0 13.761-3.251 13.761-9.007 0-6.653-5.103-6.904-13.761-7.456l-4.904-.3 1.652-2.652c.899.25 2.352.45 3.955.45 6.304 0 10.658-3.252 10.658-8.808 0-2.302-1.137-3.903-2.037-5.055l4.421-.35v-4.428h-9.391c-1.15 0-2.453-.412-4.605-.412zm2.252 28.511c2.404.15 4.306.25 4.306 1.854 0 2.699-3.955 2.902-6.856 2.902-3.504 0-6.056-.602-6.056-2.603 0-1.002.65-1.852 1.302-2.652l7.304.499zm-1.949-14.712c-3.304 0-4.655-1.703-4.655-4.154 0-3.253 2.051-4.605 4.804-4.605 2.852 0 4.554 1.552 4.554 4.504 0 2.604-1.902 4.255-4.703 4.255zM99.173 46.685c2.902 0 4.554-1.652 4.554-4.506 0-2.85-1.652-4.403-4.554-4.403-2.853 0-4.505 1.553-4.505 4.403 0 2.853 1.652 4.506 4.505 4.506zM103 71.455v-20.455h-9.733l-.55 3.896 2.667.874c.502.149.616.423.616.973v14.712c0 .752-.422.902-1.123 1.003l-2.877.35v4.192h15v-4.192l-2.876-.35c-.753-.101-1.124-.2-1.124-1.003zM125.418 70.415c-1.202.45-2.632.799-4.035.799-2.701 0-3.383-1.15-3.383-4.103v-12.111h7v-5h-6.638c-.401 0-.362-.003-.362-.353v-6.647h-4.793c-.55 5-3.207 7.196-7.207 7.698v4.302h4.003c.401 0-.003.353-.003.652v13.111c0 5.657 2.454 8.058 8.408 8.058 2.854 0 6.107-.951 8.26-2.001l-1.25-4.405zM29.738 38.806c-1.317-1.318-3.455-1.318-4.773 0l-4.751 4.751 6.027 6.027c1.401-.473 3.007-.156 4.124.961 1.122 1.123 1.437 2.743.952 4.149l5.809 5.809c1.406-.484 3.027-.171 4.149.953 1.57 1.568 1.57 4.11 0 5.679-1.569 1.57-4.11 1.57-5.68 0-1.18-1.181-1.624-2.914-1.025-4.368l-5.57-5.417v14.257c0 .189.895.441 1.214.759 1.568 1.568 1.644 4.11.075 5.681-1.569 1.568-4.074 1.568-5.642 0-1.568-1.571-1.549-4.112.02-5.681.388-.387.333-.68 1.333-.876v-14.389c-1-.196-.927-.487-1.314-.876-1.188-1.188-1.474-2.931-.865-4.39l-5.942-5.943-15.689 15.689c-1.319 1.319-1.319 3.457 0 4.774l22.882 22.881c1.317 1.317 3.454 1.317 4.773 0l22.775-22.776c1.317-1.318 1.317-3.456 0-4.774l-22.882-22.88z"/>
    </symbol>
    <symbol id="gulp" viewBox="0 0 256 566">
      <path d="M197.28 548.749l5.427-90.43 14.985-25.58s-34.106 13.952-91.205 13.952c-57.1 0-90.689-13.694-90.689-13.694l16.794 27.904 5.941 87.848c0 9.418 31.059 17.052 69.374 17.052 38.313 0 69.373-7.634 69.373-17.052M180.161 126.454l11.391-45.025 63.081-66.376L238.007.892l-66.784 70.707-13.226 53.793a886.14 886.14 0 0 0-29.873-.497c-70.336 0-127.355 8.016-127.355 17.902 0 9.887 57.019 17.902 127.355 17.902 70.335 0 127.353-8.015 127.353-17.902 0-7.28-30.924-13.546-75.316-16.343" fill="#D34A47"/><path d="M173.535 151.669s-2.467.553-9.724.584c-7.259.03-12.413-.047-14.466-1.917-.552-.502-.854-1.499-.851-2.174.006-1.285.918-2.042 2.08-2.516l1.099 1.724c-.478.165-.751.36-.752.568-.004.976 7.422 1.644 13.102 1.572 5.681-.07 12.545-.538 12.551-1.5 0-.291-.519-.565-1.422-.781l1.094-1.712c1.472.457 2.757 1.34 2.754 2.868-.014 2.598-3.32 2.993-5.465 3.284" fill="#FFF"/><path d="M254.509 15.184c1.586-1.832-.821-6.518-5.376-10.465C244.576.774 239.596-.94 238.007.892c-1.587 1.832.821 6.518 5.378 10.463 4.555 3.946 9.537 5.662 11.124 3.829M194.246 327.865c-1.495-14.384 31.462-35.216 23.004-35.883-18.208 1.041-27.27 21.338-36.431 42.596-3.357 7.791-14.844 41.013-22.378 36.923-7.532-4.088 9.765-31.407 14.613-47.631-5.594 4.102-26.109 20.041-31.396 5.114-8.5 7.219-26.663 11.13-24.614-7.833-4.522 8.01-14.671 19.193-26.853 14.546-15.998-6.101 9.27-57.062 15.553-54.491 6.284 2.57-1.268 14.179-3.246 18.687-4.35 9.921-9.375 22.393-6.018 24.946 5.751 4.374 21.401-16.547 21.749-17.007 2.927-3.867 11.266-29.166 17.987-26.261 6.721 2.905-16.764 36.308-7.983 42.937 1.771 1.338 9.017-.825 13.425-5.594 2.852-3.085 1.871-9.918 11.378-32.59 9.507-22.671 17.98-50.905 24.5-48.754 6.52 2.15 1.146 16.641-1.193 22.043-10.976 25.354-29.956 67.241-21.005 64.07 8.951-3.17 13.612-3.356 22.377-13.613 8.765-10.257 8.361-27.152 14.203-26.793 5.844.36 4.863 5.777 3.446 9.902 5.75-6.58 27.256-20.438 32.448-6.713 6.15 16.249-30.769 39.72-21.564 38.523 8.975-1.167 23.515-10.376 29.723-18.749l17.088-153.626s-17.195 14.23-126.589 14.23c-109.395 0-124.811-13.934-124.811-13.934l14.548 140.224c7.722-21.947 26.059-66.339 54.963-64.849 13.148.678 30.7 25.995 15.665 26.853-6.364.362-7.01-12.637-14.546-14.546-5.438-1.378-13.009 3.043-17.902 7.833-9.758 9.55-30.745 47.229-27.972 66.014 3.533 23.949 33.048-8.322 38.042-17.903 3.517-6.749 5.893-26.745 13.585-24.647 7.693 2.098-.671 22.734-6.247 40.979-6.264 20.487-9.557 42.098-17.408 39.612-7.852-2.484 4.938-28.932 4.475-33.566-7.38 6.809-20.976 24.047-38.37 15.515l9.035 87.078s24.013 18.973 96.35 18.973c72.337 0 97.239-18.677 97.239-18.677l11.219-100.857c-9.179 8.938-38.229 24.81-40.089 6.919" fill="#D34A47"/>
    </symbol>
    <symbol id="html" viewBox="0 0 512 512">
      <path fill="#e34f26" d="M256 208h-75l-5-58h80V94H114l15 171h127zm-1 147l-63-17-4-45h-56l7 89 116 32z"/><path fill="#e34f26" d="M255 208v57h70l-7 73-63 17v59l116-32 16-174zm0-114v56h137l5-56z"/>
    </symbol>
    <symbol id="ionic" viewBox="0 0 128 128">
      <rect width=".91" height="17.19" x="57.01" y="58.34" fill="#4e8ef7"/><path fill="#4e8ef7" d="M70.83 57.92a9 9 0 1 0 9.05 9A8.85 8.85 0 0 0 70.83 57.92zm0 17.19A8.18 8.18 0 1 1 79 66.94 8 8 0 0 1 70.83 75.11zM97 59.64a8.56 8.56 0 0 0-5.48-1.72c-2.72 0-5.74 1.27-6.81 3.73h-.07V58.34h-.91V75.53h.91V65.64c0-4.31 2.66-6.88 7-6.88a6.82 6.82 0 0 1 4.87 1.62c1.3 1.17 2.11 3.08 2.11 6.07v9.08h.91V66.45C99.54 63.37 98.73 61.06 97 59.64z"/><rect width=".91" height="17.19" x="104.57" y="58.34" fill="#4e8ef7"/><path fill="#4e8ef7" d="M118.38,75.11a8,8,0,0,1-8.14-8.18,8.18,8.18,0,0,1,2.37-5.87,7.9,7.9,0,0,1,5.81-2.3,7.77,7.77,0,0,1,7.53,5.16h1a9.06,9.06,0,1,0-8.56,12,8.72,8.72,0,0,0,8.53-5.84h-1A7.78,7.78,0,0,1,118.38,75.11Z"/><circle cx="57.46" cy="53.01" r=".98" fill="#4e8ef7"/><circle cx="105.02" cy="53.01" r=".98" fill="#4e8ef7"/><circle cx="22.97" cy="63.99" r="8.97" fill="#4e8ef7"/><path fill="#4e8ef7" d="M41.27,48.77a3.08,3.08,0,0,0-5.1-2.33,22,22,0,1,0,4.35,4.35A3.07,3.07,0,0,0,41.27,48.77ZM23,85.22A21.23,21.23,0,1,1,35.67,47a3.08,3.08,0,0,0,4.3,4.3A21.22,21.22,0,0,1,23,85.22Z"/>
    </symbol>
    <symbol id="javascript" viewBox="0 0 256 256">
      <path fill="#F7DF1E" d="M67.312 213.932l19.59-11.856c3.78 6.701 7.218 12.371 15.465 12.371 7.905 0 12.89-3.092 12.89-15.12v-81.798h24.057v82.138c0 24.917-14.606 36.259-35.916 36.259-19.245 0-30.416-9.967-36.087-21.996M152.381 211.354l19.588-11.341c5.157 8.421 11.859 14.607 23.715 14.607 9.969 0 16.325-4.984 16.325-11.858 0-8.248-6.53-11.17-17.528-15.98l-6.013-2.58c-17.357-7.387-28.87-16.667-28.87-36.257 0-18.044 13.747-31.792 35.228-31.792 15.294 0 26.292 5.328 34.196 19.247L210.29 147.43c-4.125-7.389-8.591-10.31-15.465-10.31-7.046 0-11.514 4.468-11.514 10.31 0 7.217 4.468 10.14 14.778 14.608l6.014 2.577c20.45 8.765 31.963 17.7 31.963 37.804 0 21.654-17.012 33.51-39.867 33.51-22.339 0-36.774-10.654-43.819-24.574"/>
    </symbol>
    <symbol id="jquery" viewBox="0 0 523.596 128.25">
      <path d="M223.9 46.171l.001-.005-3.352 11.88 3.351-11.875zM241.14 71.962l-3.693-.022 3.693.022zM240.19 89.703h.004l-22.131.08 22.127-.08zM244.83 71.984l-3.695-.022 3.695.022zM242.13 88.195l3.854-14.702-3.854 14.705v-.003zM323.61 20.49l-7.181 33.76 7.181-33.76zM305.15 20.49l-5.451 25.22 5.451-25.222v.002z" fill="#131b28"/><path d="M322.38 18.971h-15.356c-.852 0-1.697.684-1.88 1.517l-5.451 25.222-5.452 25.223c-.181.832-1.025 1.514-1.877 1.514h-10.869c-10.753 0-9.51-7.438-7.308-17.627l.066-.308.241-1.284.046-.242.49-2.615.526-2.803c.16-.845.402-2.08.562-2.856l2.478-12.109 2.48-12.109c.171-.835-.388-1.521-1.24-1.521h-15.762c-.852 0-1.695.686-1.87 1.519l-3.389 16.079-3.389 16.077c-.003.007-.004.017-.005.024l-.315 1.494c-3.903 17.822-2.868 34.817 18.348 35.349.347.01.615.013.615.013h33.302c.852 0 1.695-.684 1.874-1.519l7.181-33.757 7.182-33.76c.176-.837-.376-1.52-1.228-1.521zM383.64 72.621c.854 0 1.411.684 1.24 1.519l-1.491 7.288M381.9 88.719l1.491-7.292-1.492 7.295.001-.003zM380.03 90.253l.008-.002c-4.52.036-18.1.14-28.307.14 12.422 0 28.298-.137 28.299-.138zM342.57 63.234c-.012-.798.896-2.173 1.75-2.173l-1.918-.032c-.865 8.692.168 2.205.168 2.205z" fill="#0868ac"/><path d="M353.13 90.387c-.098 0-.198 0-.296.002.098-.002.198-.002.296-.002zM383.64 72.621c.854 0 1.411.684 1.24 1.519l-1.491 7.288-.243 1.188M360.4 90.37h-.062.062zM356.63 90.382h-.219.219zM355.48 90.385c-.122 0-.241 0-.361.002.12-.002.239-.002.361-.002zM354.31 90.387h-.317.317zM356.41 90.382l-.931.002.931-.002zM360.34 90.37c-1.243.005-2.483.01-3.705.013 1.222-.002 2.464-.008 3.705-.013zM380.04 90.25zM381.9 88.723l1.249-6.106-1.25 6.11.001-.004zM355.12 90.387h-.811.811zM352.83 90.389h-1.097 1.097zM353.99 90.387h-.864.864zM129.36 63.417l2.386-10.574-2.728 12.087-2.617 12.312 2.294-10.793c.176-.835.477-2.2.665-3.032zM157.91 18.793h-16.864c-.854 0-1.704.681-1.895 1.511l-1.6 7.058-1.599 7.061c-.188.83.355 1.511 1.208 1.511h16.995c.853 0 1.699-.681 1.883-1.514l1.545-7.058 1.546-7.053v-.002c.183-.832-.365-1.514-1.219-1.514zM154.24 42.272v-.002l-4.946 22.882 4.946-22.88zM105.25 118.09s8.501.109 13.904.109c-4.104 0-10.885-.075-13.911-.111l.007.002zM134.13 42.269l-2.388 10.574 2.388-10.574z" fill="#0868ac"/><path d="M153.02 40.756h-16.997c-.852 0-1.704.681-1.892 1.514l-2.388 10.574-2.386 10.574c-.188.832-.488 2.197-.665 3.032l-2.294 10.793-2.292 10.793a32.847 32.847 0 0 1-.818 2.985s-3.175 9.448-8.513 9.341c-.228-.005-.448-.007-.667-.013-2.587-.049-4.619-.085-4.619-.085h-.004c-.851-.013-1.706.651-1.905 1.479l-1.763 7.41-1.761 7.406c-.197.828.337 1.512 1.185 1.526 3.027.036 9.807.112 13.912.112 13.334 0 20.363-7.388 24.869-28.647l5.273-24.398 4.946-22.883c.18-.831-.37-1.513-1.221-1.513zM394.47 89.525c-.853 0-1.405-.684-1.226-1.52l12.786-59.89M412.24 88.004l5.171-25.562-5.171 25.562z" fill="#0868ac"/><path d="M393.43 88.766c-.104-.417-.043-1.439.138-2.275l6.068-28.428-6.393 29.944c-.18.835.373 1.519 1.226 1.519h1.553c-.854-.001-2.49-.342-2.592-.76zM411.23 89.184c-.464.188-1.543.342-2.396.342h1.553c.853 0 1.689-.684 1.858-1.521l.308-1.519c-.171.834-.858 2.509-1.323 2.698zM414.83 75.223l2.282-11.282c-.001.007-.002.017-.004.022l-2.278 11.26zM465.28 32.128l.704 2.91c.194.833-.344 1.509-1.194 1.511M412.55 86.486l2.276-11.262-2.276 11.262zM464.579 29.147l.697 2.981-.697-2.981zM417.11 63.942c.17-.835.451-2.188.628-3.015l2.438-11.421-2.761 12.937-.305 1.499zM406.24 27.135c-.169.806-.387 1.824-.53 2.498l-6.068 28.43 6.393-29.946.205-.982z" fill="#0868ac"/><path d="M465.98 35.038l-.704-2.91-.697-2.981-.353-1.509c-1.381-5.363-5.434-8.459-14.233-8.459l-13.7-.015-12.617-.015H409.48c-.852 0-1.695.681-1.871 1.516h-.001l-.628 2.966-.74 3.503-.207.981-6.393 29.946-6.068 28.428c-.181.836-.241 1.858-.138 2.275.103.418 1.738.76 2.592.76h12.808c.854 0 1.933-.154 2.396-.342.465-.188 1.152-1.863 1.322-2.698l2.276-11.262 2.279-11.26.004-.022.304-1.499 2.762-12.937 2.438-11.426c.181-.83 1.021-1.509 1.871-1.511l40.3-.02c.85 0 1.389-.677 1.194-1.509z" fill="#0868ac"/><path d="M517.86 8.725c-.854.006-2.248.011-3.102.011h-12.899c-.854 0-1.945.576-2.427 1.28L470.91 51.803c-.482.706-1.031.601-1.221-.229l-2.099-9.207c-.189-.833-1.044-1.511-1.896-1.511h-18.338c-.853 0-1.358.669-1.125 1.489l8.217 28.784c.234.82.251 2.168.04 2.994l-3.581 13.931c-.213.827.312 1.504 1.166 1.504h18.122c.853 0 1.724-.677 1.936-1.504l3.583-13.931c.211-.826.804-2.061 1.318-2.742l46.306-61.459c.514-.681.235-1.235-.616-1.229l-4.862.032zM372.18 44.774l-.001-.017c-.107.925-.961 1.604-1.812 1.604h-23.248c-.804 0-1.213-.547-1.094-1.221.007-.02.01-.037.021-.054 0 0-.008.002-.015.007.005-.027.005-.052.013-.078l.106-.396c2.221-5.903 6.743-9.778 15.243-9.778 9.569.001 11.437 4.677 10.787 9.933zm-6.82-26.834c-29.841 0-36.912 18.113-40.879 36.394-3.967 18.633-3.625 36.055 27.253 36.055h1.097c.098-.002.197-.002.295-.002h1.992c.12-.002.239-.002.361-.002l.931-.002h.218c1.223-.002 2.463-.008 3.705-.012h.062c8.155-.032 16.334-.094 19.646-.12.848-.013 1.677-.696 1.851-1.523l1.25-6.11.243-1.189 1.492-7.287c.171-.836-.388-1.52-1.24-1.52h-27.762c-11.041 0-14.319-2.934-13.111-11.56h44.377l-.004.005c.011 0 .021-.005.03-.005.705-.013 1.357-.498 1.616-1.145.049-.125.091-.254.107-.388l-.005.005c6.589-24.854 4.699-41.592-23.528-41.592l.003-.002zM224.32 44.679l-.42 1.487-.001.005-3.351 11.875-3.35 11.873c-.231.82-1.118 1.491-1.973 1.491H197.49c-13.452 0-16.729-10.521-13.452-26.042 3.274-15.874 9.697-25.742 22.938-26.741 18.093-1.364 21.713 11.362 17.344 26.052zm12.163 25.818s8.362-20.303 10.262-32.031C249.334 22.767 241.474 0 211.114 0c-30.187 0-43.295 21.737-48.297 45.367-5.001 23.801 1.552 44.675 31.567 44.504l23.679-.088 22.131-.08c.853-.008 1.724-.684 1.941-1.507l3.854-14.705c.215-.825-.306-1.504-1.158-1.509l-3.695-.021-3.693-.022c-.726-.005-1.141-.474-1.053-1.097a1.5 1.5 0 0 1 .091-.347l.002.002z" fill="#0868ac"/><path d="M385.92 56.908a1.018 1.018 0 1 1-2.036 0 1.018 1.018 0 0 1 2.036 0z" fill="#0868ac"/><path d="M5.979 30.509c-8.335 11.98-7.298 27.566-.931 40.295.151.306.311.605.467.906.1.19.193.386.298.573.059.112.124.223.186.33.108.202.22.396.332.593.197.35.4.696.607 1.043.115.19.229.381.347.571.229.371.465.737.706 1.104.1.156.197.312.3.464.332.495.672.988 1.021 1.475l.029.039c.056.078.116.153.173.231.303.418.615.83.931 1.238.116.148.233.298.351.446a75.153 75.153 0 0 0 1.189 1.451 53.794 53.794 0 0 0 1.222 1.394c.018.02.032.031.046.051a58.825 58.825 0 0 0 2.583 2.632c.134.127.266.257.398.378a49.267 49.267 0 0 0 1.354 1.231c.077.068.156.133.232.198.397.345.803.687 1.21 1.022.166.135.335.267.502.4.333.267.67.53 1.01.789l.539.41c.375.275.752.547 1.133.813.14.1.273.197.413.292.039.027.074.055.113.081.361.249.731.488 1.1.728.159.105.316.215.477.317.566.359 1.142.713 1.723 1.055.157.091.317.179.476.269.428.247.857.488 1.293.726.235.127.478.246.715.368.308.161.613.325.926.481.07.034.144.068.214.103.125.061.252.119.378.183a59.307 59.307 0 0 0 1.777.819c.565.246 1.135.483 1.71.71.138.057.277.11.416.164a59.485 59.485 0 0 0 1.816.668c.595.208 1.195.4 1.8.589.144.042.289.088.435.13.615.186 1.224.407 1.857.524 40.311 7.351 52.02-24.224 52.02-24.224-9.834 12.812-27.29 16.19-43.829 12.429-.626-.142-1.234-.337-1.846-.518a53.388 53.388 0 0 1-2.237-.718l-.244-.088a57.277 57.277 0 0 1-1.567-.581c-.146-.059-.293-.114-.439-.173a51.415 51.415 0 0 1-1.692-.703c-.114-.049-.225-.101-.338-.149a77.238 77.238 0 0 1-1.84-.862c-.371-.181-.737-.373-1.104-.562-.245-.129-.494-.251-.737-.386a42.673 42.673 0 0 1-1.323-.742c-.147-.083-.298-.163-.446-.249a63.03 63.03 0 0 1-1.724-1.056c-.156-.1-.31-.206-.465-.31a47.36 47.36 0 0 1-1.226-.815c-.135-.09-.264-.188-.396-.277-.39-.275-.775-.555-1.159-.838-.174-.129-.345-.26-.514-.389a84.888 84.888 0 0 1-1.513-1.191 59.452 59.452 0 0 1-1.302-1.098l-.144-.12a59.96 59.96 0 0 1-1.369-1.245c-.131-.125-.258-.246-.386-.371a40.706 40.706 0 0 1-.984-.965c-.129-.129-.259-.256-.386-.385-.41-.42-.812-.846-1.207-1.277l-.06-.063a49.015 49.015 0 0 1-1.225-1.394c-.108-.13-.214-.254-.321-.381a51.13 51.13 0 0 1-.881-1.09 26.985 26.985 0 0 1-.323-.402c-.347-.45-.686-.899-1.018-1.355-9.183-12.524-12.481-29.8-5.143-43.987" fill="#0868ac"/><path d="M31.852 20.416c-6.027 8.674-5.7 20.286-.998 29.46a38.346 38.346 0 0 0 2.666 4.451c.903 1.294 1.904 2.834 3.103 3.875.435.479.889.945 1.353 1.404.117.12.237.234.356.352.45.437.908.867 1.382 1.284.02.015.037.034.056.049.006.005.011.007.014.013.523.459 1.064.901 1.614 1.335.122.093.242.19.366.286.55.422 1.112.837 1.688 1.233.018.012.032.024.049.037.254.176.513.339.771.508.123.08.24.166.365.241.411.264.827.521 1.251.767.061.037.118.068.177.103.365.21.735.417 1.106.617.13.073.261.137.394.205.256.135.513.271.773.4.039.02.079.037.117.054.531.262 1.066.514 1.613.752.117.052.238.098.356.146.438.186.879.367 1.323.537.188.071.379.14.566.208.403.149.808.286 1.215.423.185.059.365.119.55.176.579.18 1.152.407 1.756.508 31.123 5.156 38.309-18.807 38.309-18.807-6.478 9.329-19.021 13.779-32.405 10.305a38.002 38.002 0 0 1-2.292-.681 35.14 35.14 0 0 1-1.79-.633 40.373 40.373 0 0 1-1.327-.535c-.119-.051-.24-.098-.357-.151a37.454 37.454 0 0 1-1.623-.754c-.275-.134-.545-.276-.814-.415l-.47-.242a36.88 36.88 0 0 1-1.03-.581c-.081-.046-.165-.091-.247-.139-.421-.247-.836-.5-1.247-.762-.127-.081-.249-.168-.376-.251a49.173 49.173 0 0 1-.809-.535 45.035 45.035 0 0 1-1.682-1.23c-.127-.1-.254-.198-.379-.298-5.859-4.626-10.503-10.947-12.711-18.115-2.314-7.434-1.815-15.779 2.194-22.551" fill="#0868ac"/><path d="M53.613 12.875c-3.553 5.229-3.902 11.724-1.437 17.5 2.601 6.13 7.929 10.94 14.147 13.22.256.096.513.181.772.269.113.034.226.074.341.107.366.115.729.249 1.108.32 17.185 3.32 21.846-8.818 23.087-10.605-4.083 5.879-10.945 7.29-19.364 5.247a21.91 21.91 0 0 1-2.037-.629 24.899 24.899 0 0 1-2.419-1.005 25.021 25.021 0 0 1-4.241-2.588c-7.534-5.716-12.214-16.621-7.298-25.502M247.16 114.73l-4.954 11.281h-5.469l.448-10.251-4.026 10.251h-5.295l-.14-11.281.585-2.786h3.75l-.723 11.144 4.163-11.144h5.228l-.378 11.282 4.128-11.282h3.267l-.584 2.786zM255.79 118.07c.481-2.203.344-2.615-.791-2.615h-1.721l-1.101 5.161-1.686 5.397h-3.198l2.613-12.243.38-1.79h2.923l.379.825s1.686-.996 3.335-.996c3.51 0 3.234 2.646 2.477 6.26l-3.61.001zM266.18 110.189c-1.409 0-2.304-.412-1.96-2.131.378-1.721 1.479-2.134 2.854-2.134 1.378 0 2.306.413 1.928 2.134-.346 1.685-1.445 2.131-2.822 2.131zm-1.513 15.824h-3.166l.62-5.503 1.101-5.09-2.2-.483.618-2.991h6.019l-2.992 14.067zM278.39 114.93l-3.955.484-1.137 5.365c-.31 1.48-.31 1.893.999 1.893h2.647l-.551 2.819s-2.406.723-3.439.723c-4.059 0-4.025-2.235-3.301-5.573l1.101-5.262-2.202-.48.653-2.993h2.306l1.308-3.545h3.13l-.758 3.545h3.853l-.654 3.024zM286.61 115.109c-1.856 0-2.82.965-3.198 2.684l5.297-.447c.239-1.169-.001-2.237-2.099-2.237zm-3.713 5.228c-.243 1.722.411 2.305 2.612 2.305h5.537l-.55 2.614s-3.336.928-5.812.928c-6.157 0-6.227-3.471-5.435-7.188.791-3.646 2.2-7.256 8.15-7.256 5.746 0 6.021 3.473 4.61 8.597h-9.112zM304.63 126.01h-3.163l.619-5.503 2.236-10.457-2.204-.515.654-2.993h6.021l-4.163 19.468zM316.06 115.109c-1.859 0-2.821.965-3.2 2.684l5.298-.447c.239-1.169-.001-2.237-2.098-2.237zm-3.716 5.228c-.24 1.722.414 2.305 2.613 2.305h5.539l-.551 2.614s-3.338.928-5.814.928c-6.157 0-6.225-3.471-5.434-7.188.792-3.646 2.202-7.256 8.152-7.256 5.744 0 6.02 3.473 4.61 8.597h-9.115zM335.97 115.28s-4.024.034-5.125.034c-2.34 0-2.58.721-2.751 1.477l-.14.688 7.431.552s.034 2.373-.275 3.714c-.447 2.236-2.752 4.505-6.913 4.505-2.065 0-5.401-.789-5.401-.789l.584-2.717h5.126c2.271 0 2.581-.621 2.72-1.238l.171-.894-7.292-.552s-.275-1.824.103-3.645c.552-2.479 2.819-4.609 6.981-4.609 2.064 0 5.4.754 5.4.754l-.619 2.72zM349.8 115.28s-4.023.034-5.125.034c-2.339 0-2.579.721-2.751 1.477l-.14.688 7.432.552s.034 2.373-.275 3.714c-.447 2.236-2.752 4.505-6.914 4.505-2.063 0-5.4-.789-5.4-.789l.585-2.717h5.125c2.27 0 2.579-.621 2.719-1.238l.171-.894-7.293-.552s-.274-1.824.103-3.645c.552-2.479 2.82-4.609 6.984-4.609 2.062 0 5.398.754 5.398.754l-.619 2.72zM354.13 128.25h-2.75l.103-2.065c-.999-.065-1.514-.788-1.273-1.995.378-1.719 1.445-2.131 2.855-2.131 1.375 0 2.302.412 1.926 2.131l-.861 4.06zM372.53 115.42c-2.062 0-2.784 1.238-3.267 3.508-.481 2.271-.344 3.611 1.719 3.611h2.855l1.583-7.119h-2.89zm4.713 8.769l-.38 1.824-2.887-.035-.414-.893s-2.547 1.098-4.264 1.098c-4.404 0-4.611-3.61-3.82-7.256.791-3.715 2.512-7.224 6.88-7.224 1.584 0 3.715.791 3.715.791l1.754-5.95h3.166l-3.75 17.645zM388.63 115.28c-2.682 0-3.544 1.511-4.024 3.713-.447 2.236-.239 3.75 2.406 3.75 2.753 0 3.579-1.479 4.06-3.75.483-2.134.343-3.713-2.442-3.713zm-2.338 10.938c-5.676 0-6.124-3.542-5.367-7.224.792-3.68 2.787-7.188 8.463-7.188 5.64 0 6.157 3.508 5.364 7.188-.79 3.75-2.786 7.224-8.46 7.224zM418.49 126.01l.62-5.435.31-1.548c.447-2.062.723-3.576-1.445-3.576h-1.685c.069 1.066-.139 2.271-.413 3.542l-1.479 7.017h-3.199l.619-5.435.309-1.548c.448-2.062.722-3.576-1.442-3.576h-1.378l-2.271 10.559h-3.681l2.993-14.066h2.889l.447.859s1.962-1.033 3.544-1.033c1.203 0 2.098.552 2.408 1.238.687-.379 2.648-1.238 4.06-1.238 4.399 0 4.264 3.576 3.472 7.225l-1.479 7.016h-3.199v-.001zM433.11 115.28c-2.685 0-3.544 1.511-4.024 3.713-.447 2.236-.239 3.75 2.407 3.75 2.751 0 3.579-1.479 4.06-3.75.48-2.134.343-3.713-2.443-3.713zm-2.339 10.938c-5.678 0-6.123-3.542-5.366-7.224.791-3.68 2.786-7.188 8.462-7.188 5.643 0 6.157 3.508 5.365 7.188-.79 3.75-2.786 7.224-8.461 7.224zM448.79 118.07c.48-2.203.344-2.615-.79-2.615h-1.722l-1.101 5.161-1.687 5.397h-3.197l2.613-12.243.379-1.79h2.924l.377.825s1.687-.996 3.339-.996c3.507 0 3.231 2.646 2.475 6.26l-3.61.001zM461.11 115.109c-1.855 0-2.819.965-3.197 2.684l5.295-.447c.241-1.169-.001-2.237-2.098-2.237zm-3.715 5.228c-.239 1.722.413 2.305 2.614 2.305h5.538l-.55 2.614s-3.337.928-5.812.928c-6.157 0-6.226-3.471-5.438-7.188.793-3.646 2.204-7.256 8.153-7.256 5.743 0 6.021 3.473 4.609 8.597h-9.114zM469.6 126.22c-1.445 0-2.338-.412-1.959-2.097.342-1.724 1.408-2.134 2.854-2.134 1.341 0 2.269.41 1.927 2.134-.381 1.65-1.479 2.097-2.822 2.097z" fill="#0868ac"/>
    </symbol>
    <symbol id="nodejs" viewBox="0 0 48 48">
      <g id="surface1"><path d="M17.203 19.121l-4.906 2.715a.565.565 0 0 0-.297.492v5.434c0 .203.113.39.297.492l4.906 2.719c.184.097.41.097.594 0l4.906-2.72a.565.565 0 0 0 .297-.491v-5.434a.565.565 0 0 0-.297-.492l-4.906-2.715a.62.62 0 0 0-.297-.074.62.62 0 0 0-.297.074" fill="#388E3C"/><path d="M42.45 24.012l-.817.453c-.031.015-.047.047-.047.082v.906c0 .035.016.067.047.082l.816.453c.031.016.07.016.102 0l.816-.453a.091.091 0 0 0 .051-.082v-.906a.091.091 0 0 0-.05-.082l-.817-.453A.12.12 0 0 0 42.5 24a.12.12 0 0 0-.05.012" fill="#388E3C"/><path d="M35.75 13.363l-2.387-1.332a.234.234 0 0 0-.242.004.24.24 0 0 0-.121.207v8.055l-2.203-1.223A.62.62 0 0 0 30.5 19a.62.62 0 0 0-.297.074l-4.906 2.715a.565.565 0 0 0-.297.492v5.434c0 .203.113.39.297.492l4.906 2.719c.184.097.41.097.594 0l4.906-2.719a.565.565 0 0 0 .297-.492V13.789a.493.493 0 0 0-.25-.426zm-2.883 13.094l-2.23 1.234a.276.276 0 0 1-.27 0l-2.23-1.234a.256.256 0 0 1-.137-.223v-2.468c0-.094.05-.18.137-.227l2.23-1.234h-.004a.28.28 0 0 1 .137-.032c.047 0 .094.012.137.032l2.226 1.234a.257.257 0 0 1 .137.227v2.468a.26.26 0 0 1-.133.223z" fill="#37474F"/><path d="M17.203 19.121L12 27.761c0 .204.113.391.297.493l4.906 2.719c.184.097.41.097.594 0L23 22.328a.565.565 0 0 0-.297-.492l-4.906-2.715a.62.62 0 0 0-.297-.074.62.62 0 0 0-.297.074" fill="#2E7D32"/><path d="M17.203 19.121l-4.906 2.715a.565.565 0 0 0-.297.492l5.203 8.645c.184.097.41.097.594 0l4.906-2.72a.565.565 0 0 0 .297-.491l-5.203-8.64a.62.62 0 0 0-.297-.075.62.62 0 0 0-.297.074" fill="#4CAF50"/><path d="M47.703 21.79l-4.906-2.716A.62.62 0 0 0 42.5 19a.62.62 0 0 0-.297.074l-4.906 2.715a.578.578 0 0 0-.297.504v5.41c0 .211.113.402.297.504l4.906 2.719c.188.101.41.101.594 0l2.266-1.254c.207-.113.203-.41-.004-.527l-4.922-2.684a.268.268 0 0 1-.137-.23v-2.465a.26.26 0 0 1 .129-.223l2.234-1.234a.285.285 0 0 1 .137-.036.26.26 0 0 1 .133.036l2.234 1.238a.249.249 0 0 1 .133.219v2.011c0 .086.047.168.121.211.074.04.164.04.242-.004l2.399-1.39a.49.49 0 0 0 .238-.418v-1.88a.58.58 0 0 0-.297-.507z" fill="#37474F"/><path d="M10.703 21.79l-4.906-2.716A.62.62 0 0 0 5.5 19a.62.62 0 0 0-.297.074L.297 21.79a.578.578 0 0 0-.297.504v7.465c0 .086.047.168.121.21a.244.244 0 0 0 .242 0l2.399-1.394A.482.482 0 0 0 3 28.156v-4.39c0-.094.05-.18.129-.223l2.234-1.234a.285.285 0 0 1 .274 0l2.234 1.234a.26.26 0 0 1 .129.223v4.39c0 .172.09.332.238.418l2.399 1.395a.244.244 0 0 0 .242 0 .246.246 0 0 0 .121-.211v-7.461a.58.58 0 0 0-.297-.508z" fill="#37474F"/></g><metadata><rdf:RDF xmlns:rdf="http://www.w3.org/1999/02/22-rdf-syntax-ns#" xmlns:rdfs="http://www.w3.org/2000/01/rdf-schema#" xmlns:dc="http://purl.org/dc/elements/1.1/"><rdf:Description about="https://iconscout.com/legal#licenses" dc:title="nodejs" dc:description="nodejs" dc:publisher="Iconscout" dc:date="2017-12-15" dc:format="image/svg+xml" dc:language="en"><dc:creator><rdf:Bag><rdf:li>Icons8</rdf:li></rdf:Bag></dc:creator></rdf:Description></rdf:RDF></metadata>
    </symbol>
    <symbol id="npm" viewBox="0 0 512 512">
      <path fill="none" stroke="#cb3837" stroke-width="22" d="M166 333h90m146-101v68m-45-68v68m-112-68v45m-11 34h213V199H65v112h113V210m-45 22v68m157-90v90"/>
    </symbol>
    <symbol id="sass" viewBox="0 0 512 384">
      <path fill="#CF649A" d="M440.6 220.6c-17.9.101-33.4 4.4-46.4 10.801-4.8-9.5-9.6-17.801-10.399-24-.9-7.2-2-11.601-.9-20.2C384 178.6 389 166.4 389 165.4c-.101-.9-1.101-5.3-11.4-5.4s-19.2 2-20.2 4.7-3 8.9-4.3 15.3c-1.8 9.4-20.6 42.7-31.3 60.2-3.5-6.8-6.5-12.8-7.101-17.601-.899-7.199-2-11.6-.899-20.199 1.1-8.601 6.1-20.8 6.1-21.8-.1-.9-1.1-5.3-11.399-5.4-10.301-.1-19.2 2-20.2 4.7s-2.1 9.1-4.3 15.3C281.9 201.4 256.9 257 250.4 271.5c-3.3 7.4-6.199 13.3-8.3 17.3-2.1 4-.1.3-.3.7-1.8 3.4-2.8 5.3-2.8 5.3v.101c-1.4 2.5-2.9 4.899-3.601 4.899-.5 0-1.5-6.7.2-15.899 3.7-19.301 12.7-49.4 12.601-50.5 0-.5 1.699-5.801-5.801-8.5-7.3-2.7-9.899 1.8-10.5 1.8-.6 0-1.1 1.6-1.1 1.6s8.1-33.899-15.5-33.899c-14.8 0-35.2 16.1-45.3 30.8-6.4 3.5-20 10.899-34.4 18.8-5.5 3-11.2 6.2-16.6 9.1L117.9 251.9c-28.6-30.5-81.5-52.1-79.3-93.1.8-14.9 6-54.2 101.601-101.8 78.3-39 141-28.3 151.899-4.5 15.5 34-33.5 97.2-114.899 106.3-31 3.5-47.301-8.5-51.4-13-4.3-4.7-4.9-4.9-6.5-4-2.6 1.4-1 5.6 0 8.1 2.4 6.3 12.4 17.5 29.4 23.1 14.899 4.9 51.3 7.6 95.3-9.4 49.3-19.1 87.8-72.1 76.5-116.4-11.5-45.1-86.3-59.9-157-34.8C121.4 27.4 75.8 50.8 43 81.5 4 117.9-2.2 149.7.4 162.9c9.101 47.1 74 77.8 100 100.5-1.3.699-2.5 1.399-3.6 2-13 6.399-62.5 32.3-74.9 59.699-14 31 2.2 53.301 13 56.301 33.4 9.3 67.6-7.4 86.1-34.9 18.399-27.5 16.2-63.2 7.7-79.5l-.301-.6 10.2-6c6.601-3.9 13.101-7.5 18.8-10.601-3.199 8.7-5.5 19-6.699 34-1.4 17.601 5.8 40.4 15.3 49.4 4.2 3.899 9.2 4 12.3 4 11 0 16-9.101 21.5-20 6.8-13.3 12.8-28.7 12.8-28.7s-7.5 41.7 13 41.7c7.5 0 15-9.7 18.4-14.7v.1s.2-.3.6-1a36.13 36.13 0 0 0 1.2-1.899v-.2c3-5.2 9.7-17.1 19.7-36.8 12.899-25.4 25.3-57.2 25.3-57.2s1.2 7.8 4.9 20.6c2.199 7.601 6.999 15.9 10.699 24-3 4.2-4.8 6.601-4.8 6.601l.1.1c-2.399 3.2-5.1 6.601-7.899 10-10.2 12.2-22.4 26.101-24 30.101-1.9 4.699-1.5 8.199 2.2 11 2.7 2 7.5 2.399 12.6 2 9.2-.601 15.6-2.9 18.8-4.301 5-1.8 10.7-4.5 16.2-8.5 10-7.399 16.1-17.899 15.5-31.899-.3-7.7-2.8-15.3-5.9-22.5.9-1.3 1.801-2.601 2.7-4 15.8-23.101 28-48.5 28-48.5s1.2 7.8 4.9 20.6c1.899 6.5 5.7 13.601 9.1 20.601-14.8 12.1-24.1 26.1-27.3 35.3-5.9 17-1.3 24.7 7.4 26.5 3.899.8 9.5-1 13.699-2.8 5.2-1.7 11.5-4.601 17.301-8.9 10-7.4 19.6-17.7 19.1-31.6-.3-6.4-2-12.7-4.3-18.7 12.6-5.2 28.899-8.2 49.6-5.7 44.5 5.2 53.3 33 51.601 44.6-1.7 11.601-11 18-14.101 20-3.1 1.9-4.1 2.601-3.8 4 .4 2.101 1.8 2 4.5 1.601 3.7-.601 23.4-9.5 24.2-30.899 1.2-27.504-24.9-57.504-71.2-57.205zM97.4 336.3c-14.7 16.1-35.4 22.2-44.2 17-9.5-5.5-5.801-29.2 12.3-46.3 11-10.4 25.3-20 34.7-25.9 2.1-1.3 5.3-3.199 9.1-5.5.6-.399 1-.6 1-.6.7-.4 1.5-.9 2.3-1.4 6.7 24.4.3 45.8-15.2 62.7zm107.5-73.1c-5.1 12.5-15.9 44.6-22.4 42.8-5.601-1.5-9-25.8-1.101-49.8 4-12.101 12.5-26.5 17.5-32.101 8.101-9 16.9-12 19.101-8.3 2.6 4.801-9.9 39.601-13.1 47.401zm88.7 42.4c-2.2 1.101-4.2 1.9-5.1 1.301-.7-.4.899-1.9.899-1.9s11.1-11.9 15.5-17.4c2.5-3.199 5.5-6.899 8.7-11.1v1.2C313.6 292.1 299.8 301.7 293.6 305.6zm68.399-15.6c-1.6-1.2-1.399-4.9 4-16.5 2.101-4.6 6.9-12.3 15.2-19.6 1 3 1.601 5.899 1.5 8.6-.099 18-12.899 24.7-20.7 27.5z"/>
    </symbol>
    <symbol id="semantic" viewBox="0 0 256 256">
      <path d="M168.461 87.041c-13.516-7.842-25.514-14.009-41.21-13.737-8.98.156-16.69 5.037-18.311 13.97-1.509 8.311 5.879 12.921 13.565 15.751 12.747 4.694 23.844 9.65 36.369 14.869 22.769 9.489 34.444 24.856 33.064 44.573-1.756 25.087-16.854 43.08-40.849 49.012-31.354 7.752-61.801-4.056-87.526-20.54 6.493-9.891 14.026-16.643 20.48-26.474 14.862 6.326 26.538 14.874 42.086 16.207 10.963.94 23.385.417 25.848-12.46 2.22-11.612-7.886-17.837-17.743-21.314-11.735-4.139-23.448-9.202-34.956-13.902-21.273-8.689-29.929-25.684-28.472-45.705 0-11.739 9.74-35.466 33.621-42.846 36.692-11.34 56.908.272 83.515 17.371-7.067 9.346-12.5 15.991-19.481 25.225" fill="#34BDB2"/>
    </symbol>
    <symbol id="swipe" viewBox="0 0 80 80">
       <path d="M0.5,10.9c-0.2,0.2-0.3,0.4-0.4,0.6c-0.2,0.4-0.2,0.9,0,1.3c0.1,0.2,0.2,0.4,0.4,0.6l10.4,10.4c0.3,0.3,0.8,0.5,1.2,0.5
	s0.9-0.2,1.2-0.5c0.7-0.7,0.7-1.8,0-2.5l-7.5-7.5h68.1l-7.5,7.5c-0.7,0.7-0.7,1.8,0,2.5c0.3,0.3,0.8,0.5,1.2,0.5s0.9-0.2,1.2-0.5
	l10.4-10.4c0.2-0.2,0.3-0.4,0.4-0.6c0.2-0.4,0.2-0.9,0-1.3c-0.1-0.2-0.2-0.4-0.4-0.6L69.1,0.5C68.7,0.2,68.3,0,67.8,0
	c-0.4,0-0.9,0.2-1.2,0.5c-0.7,0.7-0.7,1.8,0,2.5l7.5,7.5H5.9L13.4,3c0.7-0.7,0.7-1.8,0-2.5C13.1,0.2,12.6,0,12.2,0
	c-0.4,0-0.9,0.2-1.2,0.5L0.5,10.9z"/> <path d="M55.7,78.3V36.5c0-8.6-7-15.7-15.7-15.7c-8.6,0-15.7,7-15.7,15.7v41.7c0,1,0.8,1.7,1.7,1.7c1,0,1.7-0.8,1.7-1.7V36.5
	c0-6.7,5.5-12.2,12.2-12.2c6.7,0,12.2,5.5,12.2,12.2v41.7c0,1,0.8,1.7,1.7,1.7C54.9,80,55.7,79.2,55.7,78.3z"/> <path d="M40,27.8c-4.8,0-8.7,3.9-8.7,8.7v7c0,1,0.8,1.7,1.7,1.7H47c1,0,1.7-0.8,1.7-1.7v-7C48.7,31.7,44.8,27.8,40,27.8z M47,43.5
	H33v-7c0-3.8,3.1-7,7-7s7,3.1,7,7V43.5z"/> <path d="M40,29.6c-3.8,0-7,3.1-7,7v7H47v-7C47,32.7,43.8,29.6,40,29.6z M45.2,41.7H34.8v-5.2c0-2.9,2.3-5.2,5.2-5.2s5.2,2.3,5.2,5.2
	V41.7z"/> <path d="M43.5,48.7h-7c-1,0-1.7,0.8-1.7,1.7c0,1,0.8,1.7,1.7,1.7h7c1,0,1.7-0.8,1.7-1.7C45.2,49.5,44.4,48.7,43.5,48.7z"/> <path d="M43.5,59.1h-7c-1,0-1.7,0.8-1.7,1.7s0.8,1.7,1.7,1.7h7c1,0,1.7-0.8,1.7-1.7S44.4,59.1,43.5,59.1z"/> 
    </symbol>
    <symbol id="webpack" viewBox="0 0 128 128">
      <path fill="#8ed6fb" d="M117.29,98.1,66.24,127V104.49L98,87,117.29,98.1Zm3.5-3.16V34.55L102.11,45.35V84.16l18.67,10.77ZM10.71,98.1l51,28.88V104.49L29.94,87Zm-3.5-3.16V34.55L25.89,45.35V84.16Zm2.19-64.3L61.76,1V22.76L28.21,41.21l-.27.15Zm109.18,0L66.24,1V22.76L99.79,41.2l.27.15,18.54-10.71Z"/><path fill="#1c78c0" d="M61.76,99.37,30.37,82.1V47.92L61.76,66Zm4.48,0L97.63,82.12V47.92L66.24,66ZM32.5,44,64,26.66,95.5,44,64,62.16,32.5,44Z"/>
    </symbol>
    <symbol id="yarn" viewBox="0 0 128 128">
      <path fill="#2c8ebb" d="M79,63.87a16.8,16.8,0,0,1-3.73,6.75V55.72A2,2,0,0,0,73,53.86c-.59,0-1.1.3-1.1.72A9.14,9.14,0,0,1,72,55.94v6.83c-.51,3-1.78,5.73-3.48,5.73-1.23,0-2-1.23-2-3.52a30.76,30.76,0,0,1,1.23-8.57c.17-.64,1.4-2.33-.68-2.33-2.25,0-2,.85-2.25,1.57a41.45,41.45,0,0,0-1.42,9.55c0,3.69,1.55,6.11,4.39,6.11,1.82,0,3.14-1.23,4.16-2.93v5.39c-2.8,2.46-5.26,4.63-5.26,8.91,0,2.72,1.7,4.88,4.07,4.88,2.16,0,4.41-1.57,4.41-6V74.19a18.42,18.42,0,0,0,6.2-9.42,2,2,0,0,0,0-.42A1.87,1.87,0,0,0,80,62.6c-.42,0-.76.38-1,1.27Zm-8.15,21c-.68,0-1.1-1-1.1-2.33A7.41,7.41,0,0,1,72,77v4.54c0,.81.17,3.35-1.19,3.35Z"/><path fill="#2c8ebb" d="M91.16,68.46c-1,0-1.44-1-1.44-2v-7a2,2,0,0,0-2.29-1.87c-.59,0-1.1.3-1.1.72a9.14,9.14,0,0,1,.17,1.36v6.54c-.47,1.19-1.23,2.21-2.38,2.21-1.49,0-2.42-1.27-2.42-3.48,0-6.11,3.78-8.87,7-8.87.42,0,.85.08,1.23.08s.55-.25.55-1a1.76,1.76,0,0,0-2-1.78c-5.18,0-10.1,4.33-10.1,11.42,0,3.61,1.74,6.41,5.05,6.41a4.72,4.72,0,0,0,3.65-1.74,3.75,3.75,0,0,0,3.27,1.74c3.65,0,5.35-3.82,6.07-6.62a1.12,1.12,0,0,0,0-.3A1.87,1.87,0,0,0,95,62.6c-.42,0-.85.38-1,1.27-.38,1.87-1.15,4.58-2.84,4.58Z"/><path fill="#2c8ebb" d="M103.43,71.26c3.65,0,5.31-3.82,6.07-6.62,0-.08,0-.17,0-.3a1.87,1.87,0,0,0-1.49-1.74c-.42,0-.85.38-1,1.27-.38,1.87-1.1,4.58-3.06,4.58-1.15,0-1.7-1.1-1.7-2.29,0-4.24,1.91-9.25,1.91-9.76.17-1-1.53-2.38-2-2.38H99.95a15.82,15.82,0,0,1-2.25-.17A2.69,2.69,0,0,0,95,51.61a2,2,0,0,0-2.12,2,3.12,3.12,0,0,0,1.82,2.72A39.41,39.41,0,0,1,94,63.66c-.38,1.44,1.82,3,2.38,1.19A34,34,0,0,0,97.49,57h3.69a27.53,27.53,0,0,0-2.12,9.38c0,3.73,2.38,4.84,4.37,4.84Z"/><path fill="#2c8ebb" d="M107.21 69.39a1.78 1.78 0 0 0 2 1.87c1.23 0 1.19-1 1.19-1.82v-6.2c.3-3.35 2.93-7 4.16-7 .81 0 .89 1.1.89 2.42v8.62c0 2.16 1.32 4 3.57 4 3.65 0 5.45-3.82 6.18-6.62a1.12 1.12 0 0 0 0-.3 1.87 1.87 0 0 0-1.49-1.74c-.42 0-.85.38-1 1.27-.38 1.87-1.25 4.58-2.95 4.58-1.1 0-1.1-1.57-1.1-2V57.72c0-2-.68-4.29-3.52-4.29-2.08 0-3.61 1.82-4.75 4.2V55.72a2 2 0 0 0-2.29-1.87c-.59 0-1.1.3-1.1.72a9.14 9.14 0 0 1 .17 1.36V69.39zm-77 22.09M45.35 71.28a9.82 9.82 0 0 0-4.94 1.86c-2.62 1.62-3.92 1.51-3.92 1.51l0-.07c-.18-.29.83-2.91-.3-6-1.23-3.41-3.18-4.23-3-4.49a16.2 16.2 0 0 0 3-6.25c.4-2 .29-5.35-.6-7.09-.17-.32-1.65.54-1.65.54a21.21 21.21 0 0 0-1.77-3.34c-1.25-.8-2.61 3.32-2.61 3.32a6.09 6.09 0 0 0-5.1 2 4.2 4.2 0 0 1-1.68 1c-.18.06-.4.05-.94 1.51-.83 2.23 1.41 4.71 1.41 4.71a12.07 12.07 0 0 0-3.66 4.23 10.79 10.79 0 0 0-.76 5.09s-1.9 1.65-2 3.35a5.6 5.6 0 0 0 .77 3.41.84.84 0 0 0 1.15.4s-1.26 1.47-.08 2.1 2.89.89 3.85-.08c.7-.7.83-2.25 1.09-2.89.06-.15.27.25.47.45a4.35 4.35 0 0 0 .59.44 1.82 1.82 0 0 0-1 2.4c.23.55 1.05.91 2.4.9a71.93 71.93 0 0 0 7.45-.67 1.89 1.89 0 0 0 1.14-.64 27.45 27.45 0 0 0 6.74-3.05 12.13 12.13 0 0 1 4.58-2.11A1.25 1.25 0 0 0 45.35 71.28z"/><path fill="#2c8ebb" d="M30,37A27,27,0,1,0,57,64,27,27,0,0,0,30,37ZM46.24,75.25a10.83,10.83,0,0,0-4.1,1.9,29.18,29.18,0,0,1-6.78,3.13,3.79,3.79,0,0,1-1.58.77,68.25,68.25,0,0,1-7.8.71h-.1a4.26,4.26,0,0,1-3.26-1.11,5.45,5.45,0,0,1-4.77-.3,2.42,2.42,0,0,1-1.29-1.7,2.6,2.6,0,0,1,0-.9,2.9,2.9,0,0,1-.34-.44,7.14,7.14,0,0,1-1-4.38,6.85,6.85,0,0,1,2-3.85A12.44,12.44,0,0,1,18.07,64a11.68,11.68,0,0,1,3-3.91,5.82,5.82,0,0,1-.74-5c.51-1.36.93-2.11,1.85-2.43h0a3,3,0,0,0,1.09-.58,7.69,7.69,0,0,1,5.17-2.48c.08-.21.18-.42.28-.64A4.6,4.6,0,0,1,31,46.37a2.13,2.13,0,0,1,1.92.22c.28.19.65.42,1.7,2.6a2,2,0,0,1,1.24,0,1.66,1.66,0,0,1,1,.84c1.07,2.06,1.22,5.74.75,8.11a14.72,14.72,0,0,1-2.54,5.8A11.21,11.21,0,0,1,37.61,68a11.07,11.07,0,0,1,.62,4.53,12.5,12.5,0,0,0,1.36-.74,11.36,11.36,0,0,1,5.74-2.1,2.88,2.88,0,0,1,3,2.48A2.77,2.77,0,0,1,46.24,75.25Z"/>
    </symbol>
</svg>