<svg xmlns="http://www.w3.org/2000/svg" viewBox="0 0 15 17"><style>.st0{fill:#ffffff}</style><path class="st0" d="M4.5 0h10c.3 0 .5.2.5.5s-.2.5-.5.5h-10C4.2 1 4 .8 4 .5s.2-.5.5-.5z"/><path class="st0" d="M15 .5v16c0 .3-.2.5-.5.5s-.5-.2-.5-.5V.5c0-.3.2-.5.5-.5s.5.2.5.5zM5 .5v2c0 .3-.2.5-.5.5S4 2.8 4 2.5v-2c0-.3.2-.5.5-.5s.5.2.5.5zm0 14v2c0 .3-.2.5-.5.5s-.5-.2-.5-.5v-2c0-.3.2-.5.5-.5s.5.2.5.5z"/><path class="st0" d="M4.5 16h10c.3 0 .5.2.5.5s-.2.5-.5.5h-10c-.3 0-.5-.2-.5-.5s.2-.5.5-.5zm-3-8h7c.3 0 .5.2.5.5s-.2.5-.5.5h-7c-.3 0-.5-.2-.5-.5s.2-.5.5-.5z"/><path class="st0" d="M1 8.2c-.1.2-.1.5.1.6l2.1 2.1c.2.2.5.2.7 0 .2-.2.2-.5 0-.7L2.1 8.5l1.8-1.8c.2-.2.2-.5 0-.7-.2-.2-.5-.2-.7 0L1 8.2c0-.1 0 0 0 0z"/></svg>
