<svg xmlns="http://www.w3.org/2000/svg" viewBox="0 0 18 18"><path class="st0" d="M17.8 11.2L15 .6V.5c0-.3-.2-.5-.5-.5h-11c-.3 0-.5.2-.5.5v.1L.2 11.1c-.1.3-.2.6-.2.9v4c0 1.1.9 2 2 2h14c1.1 0 2-.9 2-2v-4c0-.3-.1-.6-.2-.8zM4 1h10.1l2.4 9.1c-.2-.1-.3-.1-.5-.1h-4c0 1.7-1.3 3-3 3s-3-1.3-3-3H2c-.2 0-.3 0-.5.1L4 1zm13 15c0 .6-.4 1-1 1H2c-.6 0-1-.4-1-1v-4c0-.6.4-1 1-1h3.1c.4 1.7 2 3 3.9 3s3.4-1.3 3.9-3H16c.4 0 .7.2.9.6 0 .1.1.2.1.4v4z"/><path class="st0" d="M4.5 7h9c.3 0 .5-.2.5-.5s-.2-.5-.5-.5h-9c-.3 0-.5.2-.5.5s.2.5.5.5zm1-3h7c.3 0 .5-.2.5-.5s-.2-.5-.5-.5h-7c-.3 0-.5.2-.5.5s.2.5.5.5z"/></svg>