<svg xmlns="http://www.w3.org/2000/svg" viewBox="0 0 18 15"><path d="M16 1H2c-.6 0-1 .4-1 1v3c0 .6.4 1 1 1h14c.6 0 1-.4 1-1V2c0-.6-.4-1-1-1zM3.5 4c-.3 0-.5-.2-.5-.5s.2-.5.5-.5.5.2.5.5-.2.5-.5.5zm8 0h-2c-.3 0-.5-.2-.5-.5s.2-.5.5-.5h2c.3 0 .5.2.5.5s-.2.5-.5.5zm3 0h-1c-.3 0-.5-.2-.5-.5s.2-.5.5-.5h1c.3 0 .5.2.5.5s-.2.5-.5.5z"/><path d="M16 0H2C.9 0 0 .9 0 2v3c0 1.1.9 2 2 2h14c1.1 0 2-.9 2-2V2c0-1.1-.9-2-2-2zm1 5c0 .6-.4 1-1 1H2c-.6 0-1-.4-1-1V2c0-.6.4-1 1-1h14c.6 0 1 .4 1 1v3z"/><circle cx="3.5" cy="3.5" r=".5"/><path d="M11.5 3h-2c-.3 0-.5.2-.5.5s.2.5.5.5h2c.3 0 .5-.2.5-.5s-.2-.5-.5-.5zm3 0h-1c-.3 0-.5.2-.5.5s.2.5.5.5h1c.3 0 .5-.2.5-.5s-.2-.5-.5-.5zM16 9H2c-.6 0-1 .4-1 1v3c0 .6.4 1 1 1h14c.6 0 1-.4 1-1v-3c0-.6-.4-1-1-1zM3.5 12c-.3 0-.5-.2-.5-.5s.2-.5.5-.5.5.2.5.5-.2.5-.5.5zm8 0h-2c-.3 0-.5-.2-.5-.5s.2-.5.5-.5h2c.3 0 .5.2.5.5s-.2.5-.5.5zm3 0h-1c-.3 0-.5-.2-.5-.5s.2-.5.5-.5h1c.3 0 .5.2.5.5s-.2.5-.5.5z"/><path d="M16 8H2c-1.1 0-2 .9-2 2v3c0 1.1.9 2 2 2h14c1.1 0 2-.9 2-2v-3c0-1.1-.9-2-2-2zm1 5c0 .6-.4 1-1 1H2c-.6 0-1-.4-1-1v-3c0-.6.4-1 1-1h14c.6 0 1 .4 1 1v3z"/><circle cx="3.5" cy="11.5" r=".5"/><path d="M11.5 11h-2c-.3 0-.5.2-.5.5s.2.5.5.5h2c.3 0 .5-.2.5-.5s-.2-.5-.5-.5zm3 0h-1c-.3 0-.5.2-.5.5s.2.5.5.5h1c.3 0 .5-.2.5-.5s-.2-.5-.5-.5z"/></svg>