<svg xmlns="http://www.w3.org/2000/svg" viewBox="0 0 18 13"><path class="st0" d="M6.4 9.8l.9.7c.9-1 2.6-1 3.5 0l.9-.7C11 9.1 10 8.7 9 8.7c-1 0-2 .4-2.6 1.1z"/><path class="st0" d="M4.8 8.3l.8.7c.9-.9 2.1-1.4 3.4-1.4 1.3 0 2.5.5 3.4 1.4l.8-.7C12.1 7.1 10.6 6.5 9 6.5s-3.1.6-4.2 1.8zM9 10.8c-.6 0-1.1.5-1.1 1.1S8.4 13 9 13c.6 0 1.1-.5 1.1-1.1s-.5-1.1-1.1-1.1z"/><path class="st0" d="M3.2 6.7l.8.8c1.3-1.3 3.1-2.1 5-2.1s3.7.8 5 2.1l.8-.7C13.3 5.2 11.2 4.3 9 4.3c-2.2 0-4.3.9-5.8 2.4z"/><path class="st0" d="M9 0C5.6 0 2.4 1.3 0 3.7l.8.8C3 2.3 5.9 1.1 9 1.1c3.1 0 6 1.2 8.2 3.3l.8-.7C15.6 1.3 12.4 0 9 0z"/><path class="st0" d="M1.6 5.2l.8.7C4.1 4.2 6.5 3.3 9 3.3s4.9 1 6.6 2.7l.8-.7c-1.9-2-4.6-3-7.4-3-2.8-.1-5.5.9-7.4 2.9z"/></svg>