<svg xmlns="http://www.w3.org/2000/svg" viewBox="0 0 18 19"><path class="st0" d="M17.2 14.4c-2-1.6-4.1-2.7-4.8-3.1V8.6c.4-.4.6-1 .6-1.6V3.6c0-2-1.6-3.6-3.7-3.6h-.7C6.6 0 5 1.6 5 3.6V7c0 .6.3 1.1.7 1.5v2.8c-.8.4-2.9 1.5-4.8 3.1-.5.4-.8 1-.8 1.7v2.3c-.1.4.1.6.4.6s.5-.2.5-.5v-2.3c0-.3.2-.7.4-.9 2.1-1.7 4.4-2.8 4.8-3.1.2-.1.4-.3.4-.6V8.3c0-.2-.1-.3-.2-.4-.2-.2-.4-.5-.4-.9V3.6C6 2.2 7.2 1 8.6 1h.7c1.4 0 2.6 1.1 2.6 2.6V7c0 .3-.2.7-.5.8-.2.1-.2.3-.2.4v3.3c0 .3.2.5.4.6.4.2 2.7 1.3 4.8 3.1.3.2.4.5.4.9v2.3c0 .3.2.5.5.5s.5-.2.5-.5v-2.3c.2-.6-.1-1.2-.6-1.7z"/></svg>