<svg viewBox="0 0 56 56" fill="none" xmlns="http://www.w3.org/2000/svg"><path d="M1.54534 19.3375C1.97045 19.5422 2.45153 19.6456 2.96636 19.6456C3.26116 19.6456 3.56707 19.6118 3.88025 19.5435C5.76056 19.1333 6.82099 17.6884 6.45954 16.0294C6.45954 16.0289 6.45954 16.0289 6.45954 16.0289L4.39123 6.54663L13.0874 4.64966L14.6204 11.677C14.1308 11.5843 13.5796 11.5971 12.9853 11.7266C11.0631 12.1457 10.0121 13.5321 10.3706 15.1757C10.6726 16.5609 11.8142 17.3974 13.2771 17.3974C13.5664 17.3974 13.8689 17.3645 14.1795 17.297C16.0598 16.8868 17.1206 15.4415 16.7588 13.7825C16.7588 13.7825 16.7588 13.7825 16.7588 13.782L14.0026 1.14581C13.8317 0.361389 13.0537 -0.137634 12.2684 0.0336912L3.21288 2.00885C2.83306 2.09174 2.50835 2.31732 2.29815 2.64417C2.08751 2.97144 2.01745 3.36108 2.10033 3.74091L4.32116 13.9239C3.83154 13.8312 3.27996 13.8436 2.68609 13.973C1.82689 14.1606 1.12194 14.5438 0.648118 15.0809C0.0858598 15.7183 -0.119219 16.5497 0.0713332 17.4222C0.260604 18.2899 0.783982 18.9701 1.54534 19.3375ZM13.8296 15.694C13.4566 15.7751 12.2193 15.9537 11.9736 14.8262C11.7561 13.8299 12.7332 13.4608 13.3352 13.3296C13.5373 13.2856 13.7544 13.2548 13.9659 13.2548C14.5038 13.2548 15.0075 13.4526 15.1557 14.1315V14.132C15.4018 15.259 14.203 15.6124 13.8296 15.694ZM12.4389 1.6756L12.7379 3.04663L4.04175 4.9436L3.74267 3.573L12.4389 1.6756ZM1.87859 16.1665C2.11657 15.8969 2.52758 15.6871 3.036 15.5761C3.23809 15.532 3.45513 15.5013 3.66662 15.5013C4.20453 15.5013 4.70825 15.6995 4.85651 16.378V16.3784C5.10217 17.5059 3.90374 17.8593 3.53033 17.9404C3.04028 18.0472 2.58825 18.0186 2.25756 17.8593C1.9478 17.7101 1.75683 17.4525 1.67437 17.0727C1.59362 16.7036 1.65856 16.4156 1.87859 16.1665Z"/><path d="M55.8759 41.0421C55.7191 40.6858 55.4328 40.4123 55.0705 40.2713L46.4303 36.914C45.6813 36.6231 44.8362 36.9956 44.5453 37.7442L40.7688 47.4653C40.4065 47.1085 39.9387 46.812 39.3816 46.5954C38.5617 46.2771 37.7627 46.2071 37.0706 46.3929C36.2498 46.6134 35.6201 47.1936 35.2966 48.0258C34.9749 48.8538 35.0356 49.71 35.4671 50.4364C35.8461 51.0742 36.4797 51.5801 37.2996 51.8984C37.7931 52.0902 38.2776 52.1821 38.7343 52.1821C39.9383 52.1821 40.9453 51.5416 41.3913 50.3941L44.9059 41.3476L53.2022 44.5711L50.5947 51.2827C50.2324 50.9264 49.765 50.6299 49.2074 50.4133C47.3737 49.7006 45.7317 50.2757 45.1225 51.8437C44.8008 52.6717 44.8614 53.5275 45.2934 54.2542C45.6724 54.8921 46.306 55.3975 47.1254 55.7163C47.6189 55.9077 48.1038 56 48.5605 56C49.7645 56 50.7716 55.3591 51.2172 54.2115L55.9007 42.1563C56.0412 41.7936 56.0327 41.398 55.8759 41.0421V41.0421ZM37.8935 50.3689C37.4256 50.1873 37.0646 49.9138 36.8775 49.5985C36.7019 49.3025 36.6848 48.9824 36.8258 48.6201C36.9625 48.2677 37.1757 48.0639 37.4965 47.9776C37.6089 47.9472 37.7332 47.9323 37.8661 47.9323C38.1434 47.9323 38.4596 47.9972 38.7873 48.125C39.2662 48.3108 39.6311 48.5761 39.8152 48.8722C39.9861 49.1469 40.0006 49.4417 39.8618 49.7998C39.4439 50.8751 38.2498 50.5073 37.8935 50.3689ZM45.4997 39.818L46.0077 38.5102L54.3045 41.7338L53.7965 43.0416L45.4997 39.818ZM47.7193 54.1867C47.2515 54.0052 46.8909 53.7313 46.7037 53.416C46.5277 53.1203 46.511 52.8003 46.6516 52.438C46.8584 51.9061 47.2681 51.7446 47.6898 51.7446C48.0214 51.7446 48.3606 51.8446 48.6131 51.9428C49.092 52.1287 49.4569 52.394 49.6411 52.6901C49.812 52.9648 49.8265 53.2596 49.6876 53.6172C49.2698 54.693 48.0756 54.3252 47.7193 54.1867V54.1867Z"/><path d="M24.0919 52.2484C19.0479 55.9141 11.3715 54.7148 6.23556 49.4589C3.24013 46.3934 1.56574 42.3704 1.64307 38.4218C1.7046 35.2666 2.9026 32.4275 5.01619 30.4272C6.52139 29.0044 8.44101 28.0449 10.5679 27.6518C13.4578 27.1182 16.0165 25.7228 17.9674 23.6169C18.2754 23.2845 18.2557 22.7654 17.9233 22.4578C17.5909 22.1493 17.0723 22.1694 16.7642 22.5018C15.0548 24.3466 12.8096 25.5694 10.2701 26.0385C7.83133 26.4888 5.62502 27.5941 3.88869 29.2352C1.45295 31.5406 0.0729393 34.7915 0.00287064 38.3898C-0.0830061 42.7755 1.76142 47.2278 5.06234 50.6056C8.5145 54.1385 13.0267 56 17.3154 56C20.1091 56 22.8089 55.2092 25.0562 53.5758C25.4228 53.3096 25.504 52.7965 25.2378 52.4299C24.9712 52.0634 24.4581 51.9822 24.0919 52.2484Z"/><path d="M38.2584 35.7532C39.973 34.0382 40.7924 31.8289 40.6271 29.3637C40.4964 27.4073 39.7538 25.3288 38.4751 23.316L43.7101 18.081C44.0306 17.7605 44.0306 17.241 43.7105 16.921C43.3901 16.6006 42.8706 16.6006 42.5506 16.921L28.0353 31.4358C27.7229 30.6617 27.256 29.9507 26.648 29.3428C26.04 28.7348 25.3295 28.2674 24.5553 27.9555L41.641 10.8686L45.1217 14.3494L45.0248 14.4464C44.7043 14.7664 44.7043 15.2859 45.0248 15.6064C45.185 15.7666 45.3948 15.8465 45.605 15.8465C45.8147 15.8465 46.0249 15.7666 46.1847 15.6064L46.3924 15.3991C46.5227 15.4402 46.659 15.4619 46.7974 15.4619C46.8115 15.4619 46.8256 15.4615 46.8397 15.4611C47.2135 15.4496 47.5694 15.2817 47.8164 15.001L48.6871 14.0123L49.6207 14.9458C49.7809 15.1061 49.9911 15.1864 50.2009 15.1864C50.4106 15.1864 50.6208 15.1061 50.7811 14.9458C51.1015 14.6254 51.1015 14.1063 50.7811 13.7859L49.7736 12.7784L51.1438 11.2224L52.1188 12.1974C52.279 12.3576 52.4892 12.4375 52.699 12.4375C52.9088 12.4375 53.119 12.3576 53.2792 12.1974C53.5996 11.8769 53.5996 11.3574 53.2792 11.037L52.2303 9.9885L53.5902 8.44443L54.2965 9.15109C54.4567 9.31131 54.6669 9.39121 54.8767 9.39121C55.0864 9.39121 55.2966 9.31131 55.4569 9.15109C55.7773 8.83066 55.7773 8.31113 55.4569 7.99069L54.6763 7.21054L55.6607 6.09287C56.1332 5.55624 56.1076 4.73978 55.6021 4.23392L51.7659 0.397674C51.26 -0.108186 50.4435 -0.133821 49.9069 0.338714L48.7888 1.32352L48.0078 0.542937C47.6874 0.22293 47.1678 0.22293 46.8478 0.543365C46.5274 0.863799 46.5278 1.38333 46.8483 1.70377L47.5549 2.41L46.0113 3.76907L44.953 2.71121C44.633 2.39078 44.1134 2.39078 43.793 2.71121C43.4726 3.03122 43.4726 3.55075 43.793 3.87119L44.7778 4.85556L43.2213 6.22617L42.2143 5.21915C41.8943 4.89871 41.3748 4.89871 41.0543 5.21915C40.7339 5.53958 40.7339 6.05911 41.0543 6.37912L41.9879 7.31265L40.9988 8.18338C40.7185 8.43033 40.551 8.78623 40.5391 9.16007C40.5344 9.30747 40.5549 9.45359 40.5968 9.59287L32.6837 17.5063C28.072 14.5429 23.4278 14.5254 20.4469 17.5067C19.6796 18.2724 19.0921 19.0201 18.6508 19.7921C18.4256 20.1856 18.5623 20.6867 18.9554 20.9115C19.084 20.985 19.2237 21.02 19.3621 21.02C19.6467 21.02 19.9235 20.8713 20.0748 20.6064C20.4431 19.963 20.9434 19.329 21.6065 18.6672C24.8672 15.406 29.3345 17.3982 31.4913 18.6988L22.6707 27.5197C22.5152 27.5082 22.3588 27.5005 22.2012 27.5005C20.5217 27.5005 18.9421 28.1546 17.7544 29.3428C16.5662 30.5305 15.9121 32.11 15.9121 33.79C15.9121 35.4699 16.5662 37.0494 17.7544 38.2372C18.9421 39.4249 20.5217 40.0794 22.2012 40.0794C23.8811 40.0794 25.4607 39.4249 26.6484 38.2372C27.8362 37.0494 28.4903 35.4699 28.4903 33.79C28.4903 33.6323 28.4826 33.4759 28.4711 33.3204L37.2813 24.5102C38.5682 26.6784 40.5096 31.182 37.098 34.5936C36.561 35.1319 35.9475 35.5917 35.275 35.9599C31.5451 38 29.0777 41.3578 28.3279 45.4145C28.0156 47.1081 27.3628 48.6393 26.3869 49.9664C26.1186 50.3316 26.1968 50.8452 26.5617 51.1135C26.7082 51.2212 26.8783 51.2729 27.047 51.2729C27.2991 51.2729 27.5478 51.1571 27.7084 50.9383C28.8325 49.4097 29.5836 47.6515 29.9412 45.7123C30.5996 42.1503 32.7734 39.198 36.0624 37.3989C36.872 36.9554 37.6112 36.4017 38.2584 35.7532V35.7532ZM50.7926 1.74478L54.2546 5.20676L46.7833 13.6914L42.3087 9.21604L50.7926 1.74478ZM25.488 37.0768C24.61 37.9548 23.4428 38.4384 22.2012 38.4384C20.9596 38.4384 19.7924 37.9548 18.9144 37.0768C18.0364 36.1988 17.5527 35.0315 17.5527 33.79C17.5527 32.548 18.0364 31.3807 18.9144 30.5027C19.7919 29.6247 20.9596 29.1411 22.2012 29.1411C23.4428 29.1411 24.61 29.6247 25.488 30.5027C26.3656 31.3807 26.8492 32.548 26.8492 33.79C26.8492 35.0315 26.366 36.1988 25.488 37.0768V37.0768Z"/><path d="M6.97869 36.6206C5.87169 37.7276 5.87169 39.5293 6.97869 40.6363L15.3549 49.0129C15.9086 49.5662 16.6358 49.843 17.3625 49.843C18.0897 49.843 18.8169 49.5662 19.3706 49.0125C20.4776 47.9055 20.4776 46.1042 19.3706 44.9968L10.9944 36.6202C10.4582 36.084 9.74511 35.7888 8.98675 35.7888C8.22839 35.7888 7.51531 36.0844 6.97869 36.6206V36.6206ZM18.2102 46.1572C18.6776 46.6246 18.6776 47.3851 18.2102 47.8525C17.7432 48.3199 16.9827 48.3203 16.5149 47.8525L8.13909 39.4763C7.67168 39.0089 7.67168 38.248 8.13909 37.7806C8.3651 37.5546 8.66631 37.4294 8.98675 37.4294C9.30676 37.4294 9.60797 37.5541 9.83441 37.7806L18.2102 46.1572Z"/><path d="M41.2336 17.3179C41.4434 17.3179 41.6536 17.2381 41.8138 17.0778C42.1338 16.7574 42.1338 16.2379 41.8138 15.9179L40.0638 14.1674C39.7434 13.8474 39.2238 13.8474 38.9034 14.1674C38.583 14.4879 38.583 15.0074 38.9034 15.3278L40.6534 17.0778C40.8136 17.2381 41.0238 17.3179 41.2336 17.3179Z"/><path d="M38.8094 19.7426C39.0196 19.7426 39.2294 19.6627 39.3896 19.5025C39.71 19.182 39.71 18.6625 39.3896 18.3425L37.6396 16.5921C37.3191 16.272 36.8 16.272 36.4796 16.5921C36.1591 16.9125 36.1591 17.432 36.4796 17.7525L38.2296 19.5025C38.3898 19.6627 38.5996 19.7426 38.8094 19.7426Z"/><path d="M36.385 22.1672C36.5948 22.1672 36.8045 22.0873 36.9648 21.9271C37.2852 21.6067 37.2852 21.0871 36.9648 20.7667L35.2148 19.0167C34.8943 18.6963 34.3752 18.6963 34.0548 19.0167C33.7343 19.3371 33.7343 19.8567 34.0548 20.1767L35.8048 21.9271C35.965 22.0873 36.1748 22.1672 36.385 22.1672Z"/><path d="M33.9607 24.5919C34.1705 24.5919 34.3807 24.512 34.5409 24.3518C34.8614 24.0313 34.8614 23.5118 34.5409 23.1914L32.7909 21.4414C32.4705 21.1209 31.951 21.1209 31.631 21.4414C31.3105 21.7618 31.3105 22.2813 31.631 22.6013L33.381 24.3518C33.5412 24.512 33.751 24.5919 33.9607 24.5919V24.5919Z"/><path d="M29.2061 23.8659C28.8857 24.1864 28.8857 24.7059 29.2061 25.0263L30.9562 26.7763C31.1164 26.9366 31.3261 27.0165 31.5364 27.0165C31.7461 27.0165 31.9559 26.9366 32.1161 26.7763C32.4366 26.4559 32.4366 25.9364 32.1161 25.6159L30.3661 23.8659C30.0457 23.5455 29.5266 23.5455 29.2061 23.8659Z"/><path d="M45.6776 8.37173C45.3572 8.0513 44.8381 8.0513 44.5177 8.37173C44.1972 8.69217 44.1972 9.21127 44.5177 9.53171C44.8381 9.85214 45.3572 9.85214 45.6776 9.53171C45.9981 9.21127 45.9981 8.69217 45.6776 8.37173V8.37173Z"/><path d="M47.6446 10.3222C47.3241 10.0018 46.8046 10.0018 46.4841 10.3222C46.1641 10.6422 46.1641 11.1618 46.4841 11.4822C46.8046 11.8026 47.3241 11.8026 47.6446 11.4822C47.9646 11.1618 47.9646 10.6422 47.6446 10.3222Z"/><path d="M48.1396 5.90622C47.8191 5.58578 47.2996 5.58578 46.9796 5.90622C46.6591 6.22665 46.6591 6.74619 46.9796 7.06619C47.2996 7.38663 47.8191 7.38663 48.1396 7.06619C48.46 6.74619 48.46 6.22665 48.1396 5.90622Z"/><path d="M50.1083 7.85873C49.7879 7.5383 49.2683 7.5383 48.9483 7.85873C48.6279 8.17917 48.6279 8.6987 48.9483 9.01871C49.2683 9.33914 49.7879 9.33914 50.1083 9.01871C50.4287 8.6987 50.4287 8.17917 50.1083 7.85873Z"/><path d="M50.6025 3.44302C50.282 3.12259 49.7629 3.12259 49.4425 3.44302C49.122 3.76346 49.122 4.28256 49.4425 4.603C49.7629 4.92343 50.282 4.92343 50.6025 4.603C50.9229 4.28256 50.9229 3.76346 50.6025 3.44302V3.44302Z"/><path d="M52.5702 5.39523C52.2498 5.0748 51.7303 5.0748 51.4102 5.39523C51.0898 5.71524 51.0898 6.23477 51.4102 6.55521C51.7303 6.87564 52.2498 6.87564 52.5702 6.55521C52.8907 6.23477 52.8907 5.71524 52.5702 5.39523V5.39523Z"/></svg>