<svg viewBox="0 0 16 16" fill="none" xmlns="http://www.w3.org/2000/svg"><path d="M8 2C4.36364 2 1.23636 4.27333 0 7.5C1.23636 10.7267 4.36364 13 8 13C11.6364 13 14.7636 10.7267 16 7.5C14.7636 4.27333 11.6364 2 8 2ZM8 11.1667C5.96364 11.1667 4.36364 9.55333 4.36364 7.5C4.36364 5.44667 5.96364 3.83333 8 3.83333C10.0364 3.83333 11.6364 5.44667 11.6364 7.5C11.6364 9.55333 10.0364 11.1667 8 11.1667ZM8 5.3C6.76364 5.3 5.81818 6.25333 5.81818 7.5C5.81818 8.74667 6.76364 9.7 8 9.7C9.23636 9.7 10.1818 8.74667 10.1818 7.5C10.1818 6.25333 9.23636 5.3 8 5.3Z"/></svg>