<svg viewBox="0 0 53 54" fill="none" xmlns="http://www.w3.org/2000/svg"><path d="M26.75 1.5C26.75 1.08579 26.4142 0.75 26 0.75C25.5858 0.75 25.25 1.08579 25.25 1.5H26.75ZM25.25 52.5C25.25 52.9142 25.5858 53.25 26 53.25C26.4142 53.25 26.75 52.9142 26.75 52.5H25.25ZM1 26.25C0.585786 26.25 0.25 26.5858 0.25 27C0.25 27.4142 0.585786 27.75 1 27.75V26.25ZM51.5 27.75C51.9142 27.75 52.25 27.4142 52.25 27C52.25 26.5858 51.9142 26.25 51.5 26.25V27.75ZM25.25 1.5V52.5H26.75V1.5H25.25ZM1 27.75H51.5V26.25H1V27.75Z"/></svg>