<svg xmlns="http://www.w3.org/2000/svg" viewBox="7.5 7.5 50 50"><path d="M30.5,9.583H10.084c-0.276,0-0.5,0.224-0.5,0.5V30.5c0,0.276,0.224,0.5,0.5,0.5H30.5c0.276,0,0.5-0.224,0.5-0.5V10.083 C31,9.807,30.776,9.583,30.5,9.583z"/><path d="M54.916,9.583H34.5c-0.276,0-0.5,0.224-0.5,0.5V30.5c0,0.276,0.224,0.5,0.5,0.5h20.416c0.276,0,0.5-0.224,0.5-0.5V10.083 C55.416,9.807,55.192,9.583,54.916,9.583z"/><path d="M30.5,34H10.084c-0.276,0-0.5,0.224-0.5,0.5v20.417c0,0.276,0.224,0.5,0.5,0.5H30.5c0.276,0,0.5-0.224,0.5-0.5V34.5 C31,34.224,30.776,34,30.5,34z"/><path d="M54.916,34H34.5c-0.276,0-0.5,0.224-0.5,0.5v20.417c0,0.276,0.224,0.5,0.5,0.5h20.416c0.276,0,0.5-0.224,0.5-0.5V34.5 C55.416,34.224,55.192,34,54.916,34z"/></svg>