<svg width="56" height="56" viewBox="0 0 56 56" fill="none" xmlns="http://www.w3.org/2000/svg"><path d="M38.1872 35.1189C38.0125 34.6341 37.4777 34.3827 36.9929 34.5574C36.5079 34.7321 36.2565 35.2667 36.4313 35.7514C36.4356 35.7633 36.4401 35.7751 36.4449 35.7869C37.2961 38.0073 37.3577 39.7053 36.6129 40.4517C35.7095 41.353 33.4593 41.0712 30.5923 39.6997C26.7539 37.7074 23.2649 35.1046 20.2617 31.9934C12.9512 24.6845 9.93485 17.5128 11.8005 15.6478C12.3958 15.1778 13.1696 14.9973 13.9116 15.1552C14.4256 15.1929 14.873 14.8069 14.9108 14.2931C14.9473 13.7964 14.5872 13.3586 14.0927 13.2985C12.795 13.069 11.4637 13.4472 10.4808 14.3248C7.06125 17.7423 12.2886 26.6568 18.942 33.3089C22.0943 36.5699 25.7572 39.2954 29.7868 41.3782C30.5165 41.7274 31.2685 42.0282 32.0379 42.2785L25.4069 44.7919C16.5523 41.4267 10.1781 33.5795 8.70104 24.2255C8.62113 23.7164 8.14352 23.3684 7.63429 23.4483C7.12507 23.5282 6.77695 24.0057 6.85686 24.5147C7.00339 25.4477 7.19938 26.3807 7.43924 27.2931C9.58837 35.4332 15.2489 42.1954 22.8852 45.7454L11.9713 49.8738C11.9212 49.7903 11.8582 49.7154 11.7846 49.6517C9.01089 47.4256 7.27054 44.1607 6.96886 40.6178L6.53581 35.3754C6.50175 34.8675 6.06217 34.4834 5.55399 34.5174C5.54431 34.5181 5.53463 34.5188 5.52506 34.5199C5.01129 34.5607 4.62782 35.0103 4.66865 35.5239C4.66877 35.526 4.669 35.5282 4.66924 35.5303L5.10975 40.7708C5.4378 44.5578 7.20498 48.0751 10.0478 50.5996L2.26228 53.546L3.66222 47.8026C3.78436 47.3017 3.47731 46.7967 2.97625 46.6746C2.47519 46.5525 1.97005 46.8595 1.8479 47.3604L0.0270577 54.8241C-0.0956698 55.3246 0.210682 55.8298 0.711392 55.9523C0.895016 55.9973 1.08786 55.9854 1.2646 55.9185L35.7963 42.8569C35.8512 42.8301 35.9031 42.7976 35.9512 42.7599C36.6985 42.6451 37.3914 42.2997 37.9326 41.7719C38.8573 40.8473 39.6534 38.9412 38.1872 35.1189Z"/><path d="M46.9945 32.7127C41.9492 30.8246 36.4961 30.2952 31.1818 31.1779L27.8471 31.7377C27.3409 31.835 27.0095 32.324 27.1068 32.83C27.2008 33.3189 27.6622 33.6479 28.1551 33.5775L31.4888 33.0224C36.4798 32.1929 41.6014 32.6904 46.3393 34.4648C46.4444 34.502 46.5554 34.5207 46.6669 34.5198C47.1823 34.5207 47.6009 34.1037 47.6017 33.5884C47.6024 33.1983 47.3602 32.849 46.9945 32.7127Z"/><path d="M50.313 18.2581C50.0914 17.7928 49.5344 17.5952 49.0689 17.8168L29.4699 27.1465C29.0045 27.368 28.8068 27.9246 29.0283 28.3899C29.0283 28.3901 29.0284 28.3902 29.0284 28.3902C29.25 28.8554 29.8068 29.0531 30.2723 28.8316C30.2724 28.8316 30.2724 28.8315 30.2725 28.8315L49.8716 19.5018C50.337 19.2802 50.5347 18.7234 50.313 18.2581Z"/><path d="M22.6666 6.332C22.564 5.82703 22.0713 5.50084 21.5662 5.60347C21.061 5.70609 20.7347 6.19859 20.8374 6.70356C20.8396 6.71475 20.8422 6.72583 20.8449 6.73691C22.0262 12.0127 21.5393 17.5252 19.4515 22.5125L18.0945 25.7676C17.8983 26.2419 18.1222 26.7855 18.5956 26.9842C18.709 27.0319 18.8309 27.0563 18.954 27.0561C19.3307 27.0561 19.6704 26.8298 19.8154 26.4823L21.1734 23.2309C23.4104 17.8886 23.9322 11.9836 22.6666 6.332Z"/><path d="M51.334 33.5869C49.7877 33.5869 48.5342 34.84 48.5342 36.3858C48.5342 37.9316 49.7877 39.1847 51.334 39.1847C52.8804 39.1847 54.1339 37.9316 54.1339 36.3858C54.1339 34.84 52.8804 33.5869 51.334 33.5869ZM51.334 37.3188C50.8186 37.3188 50.4008 36.9011 50.4008 36.3858C50.4008 35.8706 50.8186 35.4529 51.334 35.4529C51.8495 35.4529 52.2673 35.8706 52.2673 36.3858C52.2673 36.9011 51.8495 37.3188 51.334 37.3188Z"/><path d="M28.9346 7.46375C27.3883 7.46375 26.1348 8.71684 26.1348 10.2627C26.1348 11.8085 27.3883 13.0616 28.9346 13.0616C30.481 13.0616 31.7345 11.8085 31.7345 10.2627C31.7345 8.71684 30.481 7.46375 28.9346 7.46375ZM28.9346 11.1956C28.4192 11.1956 28.0013 10.7779 28.0013 10.2627C28.0013 9.74742 28.4192 9.32969 28.9346 9.32969C29.45 9.32969 29.8679 9.74742 29.8679 10.2627C29.8679 10.7779 29.45 11.1956 28.9346 11.1956Z"/><path d="M20.5345 3.73188C21.5654 3.73188 22.4011 2.89647 22.4011 1.86594C22.4011 0.83541 21.5654 0 20.5345 0C19.5037 0 18.668 0.83541 18.668 1.86594C18.668 2.89647 19.5037 3.73188 20.5345 3.73188Z"/><path d="M46.6667 4.66492C46.1513 4.66492 45.7334 5.08265 45.7334 5.59789V6.53086C45.7334 7.04609 46.1513 7.46383 46.6667 7.46383C47.1821 7.46383 47.6 7.04609 47.6 6.53086V5.59789C47.6 5.08265 47.1821 4.66492 46.6667 4.66492Z"/><path d="M46.6667 0C46.1513 0 45.7334 0.417737 45.7334 0.93297V1.86594C45.7334 2.38117 46.1513 2.79891 46.6667 2.79891C47.1821 2.79891 47.6 2.38117 47.6 1.86594V0.93297C47.6 0.417737 47.1821 0 46.6667 0Z"/><path d="M49.4672 2.79895H48.5339C48.0185 2.79895 47.6006 3.21669 47.6006 3.73192C47.6006 4.24715 48.0185 4.66489 48.5339 4.66489H49.4672C49.9826 4.66489 50.4005 4.24715 50.4005 3.73192C50.4005 3.21669 49.9826 2.79895 49.4672 2.79895Z"/><path d="M44.8002 2.79895H43.8669C43.3515 2.79895 42.9336 3.21669 42.9336 3.73192C42.9336 4.24715 43.3515 4.66489 43.8669 4.66489H44.8002C45.3156 4.66489 45.7335 4.24715 45.7335 3.73192C45.7335 3.21669 45.3156 2.79895 44.8002 2.79895Z"/><path d="M40.134 10.2432H35.4479C34.9325 10.2432 34.5146 10.6609 34.5146 11.1761V15.8606C34.5146 16.3758 34.9325 16.7936 35.4479 16.7936H40.134C40.6494 16.7936 41.0673 16.3758 41.0673 15.8606V11.1761C41.0673 10.6609 40.6494 10.2432 40.134 10.2432ZM39.2007 14.9276H36.3812V12.1091H39.2007V14.9276Z"/><path d="M33.3347 18.0339C32.9921 17.6683 32.4218 17.6384 32.0429 17.9663L22.71 26.363C22.3272 26.7077 22.2962 27.2975 22.641 27.6804C22.9858 28.0631 23.5758 28.094 23.9588 27.7494L33.2917 19.3527C33.6679 19.0004 33.6871 18.41 33.3347 18.0339Z"/><path d="M50.4001 21.4584C49.8847 21.4584 49.4668 21.8761 49.4668 22.3913V23.3243C49.4668 23.8395 49.8847 24.2573 50.4001 24.2573C50.9155 24.2573 51.3334 23.8395 51.3334 23.3243V22.3913C51.3334 21.8761 50.9155 21.4584 50.4001 21.4584Z"/><path d="M54.3606 21.2978L53.7008 20.6382C53.33 20.2801 52.7393 20.2904 52.3811 20.661C52.0318 21.0226 52.0318 21.5958 52.3811 21.9574L53.0409 22.617C53.4117 22.975 54.0025 22.9648 54.3606 22.5941C54.71 22.2325 54.71 21.6593 54.3606 21.2978Z"/><path d="M55.0668 17.7263H54.1335C53.6181 17.7263 53.2002 18.1441 53.2002 18.6593C53.2002 19.1745 53.6181 19.5923 54.1335 19.5923H55.0668C55.5822 19.5923 56.0001 19.1745 56.0001 18.6593C56.0001 18.1441 55.5822 17.7263 55.0668 17.7263Z"/><path d="M54.3373 14.7017C53.9757 14.3525 53.4023 14.3525 53.0405 14.7017L52.3807 15.3613C52.0162 15.7257 52.0164 16.3164 52.3809 16.6808C52.5559 16.8556 52.7932 16.9539 53.0405 16.9539C53.2881 16.9539 53.5254 16.8555 53.7004 16.6805L54.3602 16.0209C54.7183 15.6503 54.7081 15.0596 54.3373 14.7017Z"/><path d="M50.4001 13.0616C49.8847 13.0616 49.4668 13.4794 49.4668 13.9946V14.9276C49.4668 15.4428 49.8847 15.8606 50.4001 15.8606C50.9155 15.8606 51.3334 15.4428 51.3334 14.9276V13.9946C51.3334 13.4794 50.9155 13.0616 50.4001 13.0616Z"/><path d="M48.4202 15.3613L47.7603 14.7017C47.3896 14.3438 46.7988 14.354 46.4407 14.7246C46.0914 15.0861 46.0914 15.6593 46.4407 16.021L47.1005 16.6806C47.4713 17.0386 48.062 17.0283 48.4202 16.6577C48.7696 16.2961 48.7696 15.7229 48.4202 15.3613Z"/><path d="M11.1569 4.0342C11.047 3.6967 10.755 3.45086 10.4037 3.39978L7.66449 3.0014L6.44282 0.520636C6.17053 0.0584654 5.57498 -0.0955913 5.11265 0.176603C4.97055 0.26022 4.85214 0.378591 4.7685 0.520636L3.54122 3.0014L0.802021 3.39978C0.291862 3.47337 -0.0619714 3.9465 0.0116418 4.45649C0.0409237 4.65953 0.136352 4.84717 0.283112 4.9905L2.26448 6.92175L1.79784 9.64882C1.70824 10.1562 2.04703 10.6402 2.55462 10.7298C2.75901 10.7658 2.96947 10.7328 3.15297 10.6359L5.60286 9.34467L8.05274 10.6322C8.509 10.8719 9.07329 10.6967 9.31315 10.2406C9.40869 10.059 9.44159 9.85104 9.40694 9.64882L8.9403 6.92175L10.9226 4.9905C11.1763 4.74221 11.2671 4.37159 11.1569 4.0342ZM7.28278 5.92813C7.06299 6.14213 6.96254 6.45048 7.01399 6.75288L7.24545 8.10102L6.03684 7.4638C5.76513 7.32117 5.44058 7.32117 5.16888 7.4638L3.9556 8.10009L4.18706 6.75194C4.23944 6.45071 4.14074 6.14283 3.92294 5.92813L2.94205 4.9737L4.29625 4.77685C4.60027 4.73276 4.86311 4.54185 4.99902 4.26651L5.60286 3.04152L6.20763 4.26651C6.34342 4.54162 6.60579 4.73241 6.90946 4.77685L8.26273 4.9737L7.28278 5.92813Z"/><path d="M52.8471 46.7652H52.8434L52.4589 46.1886C50.3028 42.9655 46.9126 40.774 43.0877 40.1308C42.5774 40.058 42.1047 40.4126 42.0319 40.9227C41.9616 41.4155 42.2907 41.8767 42.7797 41.9706C45.5385 42.4387 48.0527 43.8398 49.9016 45.9395C48.3471 46.219 46.9876 47.1523 46.1685 48.5024C45.1633 50.3019 45.8079 52.5752 47.6081 53.58C49.4083 54.5849 51.6824 53.9405 52.6875 52.1409C53.0714 51.4 53.2788 50.5803 53.2932 49.746C54.2862 51.1878 54.3657 53.0706 53.4976 54.5909C53.2347 55.0341 53.3808 55.6065 53.8241 55.8693C54.2675 56.1322 54.84 55.9861 55.103 55.5429C55.1114 55.5287 55.1194 55.5143 55.1271 55.4996C56.836 52.4484 55.8294 48.5927 52.8471 46.7652ZM51.0599 51.2304C50.5617 52.1327 49.4263 52.4604 48.5238 51.9624C47.6213 51.4644 47.2933 50.3293 47.7915 49.4272C47.7943 49.4221 47.7971 49.417 47.7999 49.412C48.3506 48.5105 49.2796 47.9062 50.3272 47.7681C50.4895 47.7637 50.6501 47.801 50.7939 47.8763C51.5816 48.3158 51.6236 50.2209 51.0599 51.2304Z"/></svg>