<svg viewBox="0 0 58 57" fill="none" xmlns="http://www.w3.org/2000/svg"><path d="M42.3002 21.7L42.9896 21.4046C42.8714 21.1288 42.6002 20.95 42.3002 20.95V21.7ZM56.3002 47.6V48.35C56.7144 48.35 57.0502 48.0142 57.0502 47.6H56.3002ZM48.6002 36.4L47.9108 36.6954C48.029 36.9712 48.3002 37.15 48.6002 37.15V36.4ZM52.1002 44.8H51.3502C51.3502 45.2142 51.686 45.55 52.1002 45.55V44.8ZM52.1002 41.3V40.55C51.686 40.55 51.3502 40.8858 51.3502 41.3H52.1002ZM31.8002 25.2V24.45C31.386 24.45 31.0502 24.7858 31.0502 25.2H31.8002ZM31.8002 34.3H31.0502C31.0502 34.7142 31.386 35.05 31.8002 35.05V34.3ZM47.7002 34.3L48.3896 34.0045L48.3896 34.0045L47.7002 34.3ZM36.0502 28.7C36.0502 28.2858 35.7144 27.95 35.3002 27.95C34.886 27.95 34.5502 28.2858 34.5502 28.7H36.0502ZM35.3002 31.5H34.5502C34.5502 31.9142 34.886 32.25 35.3002 32.25V31.5ZM38.8002 32.25C39.2144 32.25 39.5502 31.9142 39.5502 31.5C39.5502 31.0858 39.2144 30.75 38.8002 30.75V32.25ZM28.3002 25.2H29.0502C29.0502 24.7858 28.7144 24.45 28.3002 24.45V25.2ZM5.9002 25.2V24.45C5.48598 24.45 5.1502 24.7858 5.1502 25.2H5.9002ZM5.9002 39.9H5.1502C5.1502 40.3142 5.48598 40.65 5.9002 40.65V39.9ZM28.3002 39.9V40.65C28.7144 40.65 29.0502 40.3142 29.0502 39.9H28.3002ZM9.4002 28H8.6502C8.6502 28.4142 8.98598 28.75 9.4002 28.75V28ZM13.6002 28V28.75C14.0144 28.75 14.3502 28.4142 14.3502 28H13.6002ZM19.9002 28H19.1502C19.1502 28.4142 19.486 28.75 19.9002 28.75V28ZM24.1002 28V28.75C24.5144 28.75 24.8502 28.4142 24.8502 28H24.1002ZM9.4002 32.15C8.98598 32.15 8.6502 32.4858 8.6502 32.9C8.6502 33.3142 8.98598 33.65 9.4002 33.65V32.15ZM13.6002 33.65C14.0144 33.65 14.3502 33.3142 14.3502 32.9C14.3502 32.4858 14.0144 32.15 13.6002 32.15V33.65ZM19.9002 32.15C19.486 32.15 19.1502 32.4858 19.1502 32.9C19.1502 33.3142 19.486 33.65 19.9002 33.65V32.15ZM24.1002 33.65C24.5144 33.65 24.8502 33.3142 24.8502 32.9C24.8502 32.4858 24.5144 32.15 24.1002 32.15V33.65ZM17.5002 34.3C17.5002 33.8858 17.1644 33.55 16.7502 33.55C16.336 33.55 16.0002 33.8858 16.0002 34.3H17.5002ZM40.2002 39.15C39.786 39.15 39.4502 39.4858 39.4502 39.9C39.4502 40.3142 39.786 40.65 40.2002 40.65V39.15ZM43.0002 40.65C43.4144 40.65 43.7502 40.3142 43.7502 39.9C43.7502 39.4858 43.4144 39.15 43.0002 39.15V40.65ZM8.0002 9.05C7.58598 9.05 7.2502 9.38579 7.2502 9.8C7.2502 10.2142 7.58598 10.55 8.0002 10.55V9.05ZM35.3002 10.55C35.7144 10.55 36.0502 10.2142 36.0502 9.8C36.0502 9.38579 35.7144 9.05 35.3002 9.05V10.55ZM9.4002 12.55C8.98598 12.55 8.6502 12.8858 8.6502 13.3C8.6502 13.7142 8.98598 14.05 9.4002 14.05V12.55ZM33.9002 14.05C34.3144 14.05 34.6502 13.7142 34.6502 13.3C34.6502 12.8858 34.3144 12.55 33.9002 12.55V14.05ZM1.7002 54.55C1.28598 54.55 0.950195 54.8858 0.950195 55.3C0.950195 55.7142 1.28598 56.05 1.7002 56.05V54.55ZM56.3002 56.05C56.7144 56.05 57.0502 55.7142 57.0502 55.3C57.0502 54.8858 56.7144 54.55 56.3002 54.55V56.05ZM5.2002 56.05C5.61441 56.05 5.9502 55.7142 5.9502 55.3C5.9502 54.8858 5.61441 54.55 5.2002 54.55V56.05ZM38.1002 56.05C38.5144 56.05 38.8502 55.7142 38.8502 55.3C38.8502 54.8858 38.5144 54.55 38.1002 54.55V56.05ZM0.950195 23.7V45.6H2.4502V23.7H0.950195ZM3.7002 48.35H6.6002V46.85H3.7002V48.35ZM51.4002 35.65H48.6002V37.15H51.4002V35.65ZM57.0502 47.6V44.8H55.5502V47.6H57.0502ZM56.3002 44.05H52.1002V45.55H56.3002V44.05ZM52.8502 44.8V41.3H51.3502V44.8H52.8502ZM57.0502 44.8V41.3H55.5502V44.8H57.0502ZM52.1002 42.05H56.3002V40.55H52.1002V42.05ZM44.4896 24.9046L42.9896 21.4046L41.6108 21.9954L43.1108 25.4954L44.4896 24.9046ZM43.8002 24.45H31.8002V25.95H43.8002V24.45ZM31.0502 25.2V34.3H32.5502V25.2H31.0502ZM49.2896 36.1045L48.3896 34.0045L47.0108 34.5954L47.9108 36.6954L49.2896 36.1045ZM48.3896 34.0045L44.4896 24.9046L43.1108 25.4954L47.0108 34.5954L48.3896 34.0045ZM31.8002 35.05H47.7002V33.55H31.8002V35.05ZM34.5502 28.7V31.5H36.0502V28.7H34.5502ZM35.3002 32.25H38.8002V30.75H35.3002V32.25ZM5.9002 40.65H28.3002V39.15H5.9002V40.65ZM5.1502 25.2V36.4H6.6502V25.2H5.1502ZM5.1502 36.4V39.9H6.6502V36.4H5.1502ZM29.0502 39.9V36.4H27.5502V39.9H29.0502ZM29.0502 36.4V25.2H27.5502V36.4H29.0502ZM9.4002 24.45H5.9002V25.95H9.4002V24.45ZM8.6502 25.2V28H10.1502V25.2H8.6502ZM9.4002 28.75H13.6002V27.25H9.4002V28.75ZM13.6002 24.45H9.4002V25.95H13.6002V24.45ZM14.3502 28V25.2H12.8502V28H14.3502ZM19.9002 24.45H13.6002V25.95H19.9002V24.45ZM19.1502 25.2V28H20.6502V25.2H19.1502ZM19.9002 28.75H24.1002V27.25H19.9002V28.75ZM28.3002 24.45H24.1002V25.95H28.3002V24.45ZM24.1002 24.45H19.9002V25.95H24.1002V24.45ZM24.8502 28V25.2H23.3502V28H24.8502ZM9.4002 33.65H11.5002V32.15H9.4002V33.65ZM11.5002 33.65H13.6002V32.15H11.5002V33.65ZM5.9002 37.15H11.5002V35.65H5.9002V37.15ZM10.7502 32.9V36.4H12.2502V32.9H10.7502ZM22.0002 37.15H28.3002V35.65H22.0002V37.15ZM22.7502 36.4V32.9H21.2502V36.4H22.7502ZM22.0002 32.15H19.9002V33.65H22.0002V32.15ZM22.0002 33.65H24.1002V32.15H22.0002V33.65ZM11.5002 37.15H16.7502V35.65H11.5002V37.15ZM16.7502 37.15H22.0002V35.65H16.7502V37.15ZM17.5002 36.4V34.3H16.0002V36.4H17.5002ZM40.2002 40.65H43.0002V39.15H40.2002V40.65ZM8.7002 20.95H3.7002V22.45H8.7002V20.95ZM9.4502 21.7V17.5H7.9502V21.7H9.4502ZM8.7002 16.75H5.8002V18.25H8.7002V16.75ZM4.5502 15.5V7.60001H3.0502V15.5H4.5502ZM5.8002 6.35001H37.5002V4.85001H5.8002V6.35001ZM38.7502 7.60001V15.5H40.2502V7.60001H38.7502ZM37.5002 16.75H34.6002V18.25H37.5002V16.75ZM42.3002 20.95H34.6002V22.45H42.3002V20.95ZM33.8502 17.5V21.7H35.3502V17.5H33.8502ZM12.2002 20.95H8.7002V22.45H12.2002V20.95ZM12.9502 21.7V17.5H11.4502V21.7H12.9502ZM12.2002 18.25H31.1002V16.75H12.2002V18.25ZM34.6002 20.95H31.1002V22.45H34.6002V20.95ZM31.1002 20.95H12.2002V22.45H31.1002V20.95ZM30.3502 17.5V21.7H31.8502V17.5H30.3502ZM8.7002 18.25H12.2002V16.75H8.7002V18.25ZM31.1002 18.25H34.6002V16.75H31.1002V18.25ZM8.0002 10.55H35.3002V9.05H8.0002V10.55ZM9.4002 14.05H33.9002V12.55H9.4002V14.05ZM17.4502 48.35H39.8502V46.85H17.4502V48.35ZM50.3502 48.35H56.3002V46.85H50.3502V48.35ZM1.7002 56.05H5.2002V54.55H1.7002V56.05ZM45.1002 56.05H56.3002V54.55H45.1002V56.05ZM12.2002 56.05H38.1002V54.55H12.2002V56.05ZM37.5002 6.35001C38.1905 6.35001 38.7502 6.90965 38.7502 7.60001H40.2502C40.2502 6.08122 39.019 4.85001 37.5002 4.85001V6.35001ZM38.7502 15.5C38.7502 16.1904 38.1906 16.75 37.5002 16.75V18.25C39.019 18.25 40.2502 17.0188 40.2502 15.5H38.7502ZM51.4002 37.15C53.6922 37.15 55.5502 39.008 55.5502 41.3H57.0502C57.0502 38.1796 54.5206 35.65 51.4002 35.65V37.15ZM4.5502 7.60001C4.5502 6.90965 5.10984 6.35001 5.8002 6.35001V4.85001C4.28141 4.85001 3.0502 6.08122 3.0502 7.60001H4.5502ZM0.950195 45.6C0.950195 47.1188 2.18141 48.35 3.7002 48.35V46.85C3.00984 46.85 2.4502 46.2903 2.4502 45.6H0.950195ZM5.8002 16.75C5.10984 16.75 4.5502 16.1904 4.5502 15.5H3.0502C3.0502 17.0188 4.28141 18.25 5.8002 18.25V16.75ZM2.4502 23.7C2.4502 23.0096 3.00984 22.45 3.7002 22.45V20.95C2.18141 20.95 0.950195 22.1812 0.950195 23.7H2.4502Z"/><ellipse cx="12.2" cy="49.7" rx="5.6" ry="5.6" stroke="#2D2A26" stroke-width="1.5" stroke-linecap="round"/><ellipse cx="12.2" cy="49.7" rx="2.1" ry="2.1" stroke="#2D2A26" stroke-width="1.5" stroke-linecap="round"/><ellipse cx="45.1" cy="49.7" rx="5.6" ry="5.6" stroke="#2D2A26" stroke-width="1.5" stroke-linecap="round"/><ellipse cx="45.1" cy="49.7" rx="2.1" ry="2.1" stroke="#2D2A26" stroke-width="1.5" stroke-linecap="round"/></svg>