<svg viewBox="0 0 56 56" fill="none" xmlns="http://www.w3.org/2000/svg"><path d="M20.2016 22.4202C18.3565 22.4202 16.8555 23.9169 16.8555 25.7567C16.8555 27.5964 18.3565 29.0931 20.2016 29.0931C22.0466 29.0931 23.5477 27.5964 23.5477 25.7567C23.5477 23.9169 22.0466 22.4202 20.2016 22.4202ZM20.2016 27.4571C19.2612 27.4571 18.4962 26.6944 18.4962 25.7567C18.4962 24.819 19.2612 24.0562 20.2016 24.0562C21.1419 24.0562 21.907 24.819 21.907 25.7567C21.907 26.6942 21.1419 27.4571 20.2016 27.4571Z"/><path d="M28.9253 22.4202C27.0803 22.4202 25.5791 23.9169 25.5791 25.7567C25.5791 27.5964 27.0803 29.0931 28.9253 29.0931C30.7704 29.0931 32.2714 27.5964 32.2714 25.7567C32.2714 23.9169 30.7704 22.4202 28.9253 22.4202ZM28.9253 27.4571C27.9848 27.4571 27.2198 26.6944 27.2198 25.7567C27.2198 24.819 27.9849 24.0562 28.9253 24.0562C29.8657 24.0562 30.6307 24.819 30.6307 25.7567C30.6307 26.6944 29.8656 27.4571 28.9253 27.4571Z"/><path d="M37.6488 22.4202C35.8038 22.4202 34.3027 23.9169 34.3027 25.7567C34.3027 27.5964 35.8038 29.0931 37.6488 29.0931C39.4939 29.0931 40.995 27.5964 40.995 25.7567C40.995 23.9169 39.4938 22.4202 37.6488 22.4202ZM37.6488 27.4571C36.7084 27.4571 35.9435 26.6944 35.9435 25.7567C35.9435 24.819 36.7085 24.0562 37.6488 24.0562C38.5891 24.0562 39.3542 24.819 39.3542 25.7567C39.3542 26.6944 38.5891 27.4571 37.6488 27.4571Z"/><path d="M20.2016 30.5588C18.3565 30.5588 16.8555 32.0555 16.8555 33.8953C16.8555 35.735 18.3565 37.2318 20.2016 37.2318C22.0466 37.2318 23.5477 35.735 23.5477 33.8953C23.5477 32.0555 22.0466 30.5588 20.2016 30.5588ZM20.2016 35.5957C19.2612 35.5957 18.4962 34.833 18.4962 33.8953C18.4962 32.9576 19.2612 32.1948 20.2016 32.1948C21.1419 32.1948 21.907 32.9576 21.907 33.8953C21.907 34.833 21.1419 35.5957 20.2016 35.5957Z"/><path d="M37.6488 30.5588C35.8038 30.5588 34.3027 32.0555 34.3027 33.8953C34.3027 35.735 35.8038 37.2318 37.6488 37.2318C39.4939 37.2318 40.995 35.735 40.995 33.8953C40.9948 32.0555 39.4938 30.5588 37.6488 30.5588ZM37.6488 35.5957C36.7084 35.5957 35.9435 34.833 35.9435 33.8953C35.9435 32.9576 36.7085 32.1948 37.6488 32.1948C38.5891 32.1948 39.3542 32.9576 39.3542 33.8953C39.3541 34.833 38.5891 35.5957 37.6488 35.5957Z"/><path d="M28.9253 30.5588C27.0803 30.5588 25.5791 32.0555 25.5791 33.8953C25.5791 35.735 27.0803 37.2318 28.9253 37.2318C30.7704 37.2318 32.2714 35.735 32.2714 33.8953C32.2714 32.0555 30.7704 30.5588 28.9253 30.5588ZM28.9253 35.5957C27.9848 35.5957 27.2198 34.833 27.2198 33.8953C27.2198 32.9576 27.9849 32.1948 28.9253 32.1948C29.8657 32.1948 30.6307 32.9576 30.6307 33.8953C30.6307 34.833 29.8656 35.5957 28.9253 35.5957Z"/><path d="M28.9252 38.6974C27.0802 38.6974 25.5791 40.1942 25.5791 42.034C25.5791 43.8737 27.0802 45.3705 28.9252 45.3705C30.7703 45.3705 32.2713 43.8737 32.2713 42.034C32.2713 40.1942 30.7703 38.6974 28.9252 38.6974ZM28.9252 43.7343C27.9847 43.7343 27.2197 42.9716 27.2197 42.0339C27.2198 41.0963 27.9848 40.3333 28.9252 40.3333C29.8656 40.3333 30.6306 41.0961 30.6306 42.0339C30.6306 42.9716 29.8655 43.7343 28.9252 43.7343Z"/><path d="M20.2016 38.6974C18.3565 38.6974 16.8555 40.1942 16.8555 42.034C16.8555 43.8737 18.3565 45.3705 20.2016 45.3705C22.0466 45.3705 23.5477 43.8737 23.5477 42.034C23.5477 40.1942 22.0466 38.6974 20.2016 38.6974ZM20.2016 43.7343C19.2612 43.7343 18.4962 42.9716 18.4962 42.0339C18.4962 41.0962 19.2612 40.3333 20.2016 40.3333C21.1419 40.3333 21.907 41.0961 21.907 42.0339C21.9068 42.9716 21.1419 43.7343 20.2016 43.7343Z"/><path d="M12.6378 25.7567L13.8438 24.5542C14.1641 24.2348 14.1641 23.717 13.8437 23.3974C13.5234 23.0781 13.004 23.078 12.6835 23.3975L11.4777 24.5999L10.2718 23.3975C9.95143 23.0781 9.43201 23.078 9.11165 23.3974C8.79118 23.717 8.79118 24.2348 9.11154 24.5542L10.3175 25.7567L9.11154 26.9592C8.79096 27.2786 8.79096 27.7964 9.11143 28.116C9.27156 28.2757 9.48156 28.3555 9.69145 28.3555C9.90134 28.3555 10.1113 28.2757 10.2716 28.1159L11.4774 26.9135L12.6833 28.1159C12.8435 28.2757 13.0534 28.3555 13.2634 28.3555C13.4733 28.3555 13.6833 28.2757 13.8434 28.116C14.1639 27.7965 14.1639 27.2787 13.8435 26.9592L12.6378 25.7567Z"/><path d="M12.6378 33.8953L13.8438 32.6928C14.1641 32.3734 14.1641 31.8556 13.8437 31.536C13.5234 31.2167 13.004 31.2166 12.6835 31.5361L11.4777 32.7385L10.2718 31.5361C9.95143 31.2166 9.43201 31.2167 9.11165 31.536C8.79118 31.8556 8.79118 32.3734 9.11154 32.6928L10.3175 33.8953L9.11154 35.0978C8.79096 35.4172 8.79096 35.935 9.11143 36.2546C9.27156 36.4143 9.48156 36.4941 9.69145 36.4941C9.90134 36.4941 10.1113 36.4143 10.2716 36.2545L11.4774 35.0521L12.6833 36.2545C12.8435 36.4143 13.0534 36.4941 13.2634 36.4941C13.4733 36.4941 13.6833 36.4143 13.8434 36.2546C14.1639 35.9351 14.1639 35.4173 13.8435 35.0978L12.6378 33.8953Z"/><path d="M13.8438 43.2361L12.6379 42.0337L13.8438 40.8313C14.1639 40.5119 14.1639 39.9941 13.8436 39.6744C13.5231 39.3551 13.0038 39.3551 12.6833 39.6744L11.4775 40.8768L10.2716 39.6744C9.95114 39.3551 9.43183 39.3551 9.11136 39.6744C8.791 39.994 8.791 40.5118 9.11136 40.8313L10.3172 42.0337L9.11136 43.2361C8.791 43.5557 8.791 44.0735 9.11136 44.393C9.2716 44.5527 9.4816 44.6325 9.69149 44.6325C9.90138 44.6325 10.1114 44.5527 10.2716 44.393L11.4775 43.1907L12.6833 44.393C12.8436 44.5527 13.0536 44.6325 13.2635 44.6325C13.4733 44.6325 13.6833 44.5527 13.8436 44.393C14.1642 44.0734 14.1642 43.5556 13.8438 43.2361Z"/><path d="M55.9529 45.6697L53.7156 33.9299C53.6311 33.4862 53.2007 33.1947 52.7564 33.279C52.3113 33.3634 52.0191 33.7915 52.1036 34.2355L54.3409 45.9753C54.466 46.6324 53.9096 47.2526 53.1518 47.2526H41.0122L48.8862 39.4015C49.0302 39.2579 49.1263 39.048 49.1263 38.823V18.6125L51.3761 30.4181C51.4606 30.8618 51.8905 31.1533 52.3352 31.0689C52.7802 30.9846 53.0725 30.5565 52.9879 30.1125L49.121 9.82099C49.0653 8.6138 48.0658 7.64818 46.8418 7.64818H39.6526V5.01797C39.6526 4.56613 39.2854 4.20001 38.8323 4.20001C38.3792 4.20001 38.012 4.56613 38.012 5.01797V7.64807H32.5181V5.01797C32.5181 4.56613 32.1509 4.20001 31.6978 4.20001C31.2446 4.20001 30.8774 4.56613 30.8774 5.01797V7.64807H25.3834V5.01797C25.3834 4.56613 25.0163 4.20001 24.5631 4.20001C24.11 4.20001 23.7428 4.56613 23.7428 5.01797V7.64807H18.2489V5.01797C18.2489 4.56613 17.8817 4.20001 17.4286 4.20001C16.9754 4.20001 16.6083 4.56613 16.6083 5.01797V7.64807H11.1144V5.01797C11.1144 4.56613 10.7472 4.20001 10.294 4.20001C9.84091 4.20001 9.47374 4.56613 9.47374 5.01797V7.64807H2.28452C1.02484 7.64818 0 8.66997 0 9.92613V48.8221C0 50.0782 1.02484 51.1 2.28452 51.1H22.6491C23.1022 51.1 23.4694 50.7339 23.4694 50.282C23.4694 49.8302 23.1022 49.4641 22.6491 49.4641H2.28452C1.92959 49.4641 1.64073 49.1761 1.64073 48.8222V18.2687H47.4857V38.0047H38.2779C37.0182 38.0047 35.9935 39.0266 35.9935 40.2827V49.464H26.4773C26.0241 49.464 25.657 49.8301 25.657 50.2819C25.657 50.7337 26.0241 51.0999 26.4773 51.0999H36.8138C37.0254 51.0999 37.2376 51.0162 37.3939 50.8604L39.3714 48.8886H53.1519C54.9336 48.8886 56.2716 47.3419 55.9529 45.6697ZM1.64073 16.6327V9.92613C1.64073 9.57223 1.92959 9.2842 2.28452 9.2842H9.47374V12.9584C9.47374 13.4103 9.84091 13.7764 10.294 13.7764C10.7472 13.7764 11.1144 13.4103 11.1144 12.9584V9.2842H16.6083V12.9584C16.6083 13.4103 16.9754 13.7764 17.4286 13.7764C17.8817 13.7764 18.2489 13.4103 18.2489 12.9584V9.2842H23.7428V12.9584C23.7428 13.4103 24.11 13.7764 24.5631 13.7764C25.0163 13.7764 25.3834 13.4103 25.3834 12.9584V9.2842H30.8774V12.9584C30.8774 13.4103 31.2446 13.7764 31.6978 13.7764C32.1509 13.7764 32.5181 13.4103 32.5181 12.9584V9.2842H38.012V12.9584C38.012 13.4103 38.3792 13.7764 38.8323 13.7764C39.2854 13.7764 39.6526 13.4103 39.6526 12.9584V9.2842H46.8418C47.1967 9.2842 47.4856 9.57223 47.4856 9.92613V16.6328H1.64073V16.6327ZM37.6341 48.3072V40.2828C37.6341 39.9289 37.9228 39.6409 38.2778 39.6409H46.3254C45.5045 40.4595 38.4567 47.4869 37.6341 48.3072Z"/></svg>