<svg width="38" height="38" viewBox="0 0 38 38" fill="none" xmlns="http://www.w3.org/2000/svg">
<path d="M34.8436 2.00007H11.4879C11.1573 2.00007 10.8893 2.26808 10.8893 2.59872C10.8893 2.92929 11.1573 3.19737 11.4879 3.19737H34.245V32.5267H4.91582V27.4982H6.39648V30.4474C6.39648 30.778 6.6645 31.0461 6.99513 31.0461H10.4445C10.775 31.0461 11.0431 30.778 11.0431 30.4474C11.0431 30.1168 10.7751 29.8488 10.4445 29.8488H7.59372V27.4982H8.11036C8.44093 27.4982 8.70901 27.2302 8.70901 26.8995V20.8746C8.70901 20.544 8.441 20.2759 8.11036 20.2759H7.59372V15.4482H8.11036C8.44093 15.4482 8.70901 15.1802 8.70901 14.8495V8.82443C8.70901 8.49386 8.441 8.22578 8.11036 8.22578H7.59372V5.8752H31.5671V9.10911C31.5671 9.43968 31.8351 9.70777 32.1657 9.70777C32.4963 9.70777 32.7644 9.43975 32.7644 9.10911V5.27661C32.7644 4.94604 32.4964 4.67796 32.1657 4.67796H6.99507C6.6645 4.67796 6.39642 4.94598 6.39642 5.27661V8.22571H4.91582V3.1973H9.40116C9.73173 3.1973 9.99981 2.92929 9.99981 2.59865C9.99981 2.26808 9.7318 2 9.40116 2H4.31717C3.9866 2 3.71852 2.26802 3.71852 2.59865V8.22578H3.15639C2.82582 8.22578 2.55774 8.49379 2.55774 8.82443V14.8495C2.55774 15.1801 2.82575 15.4482 3.15639 15.4482H3.71852V20.2759H3.15639C2.82582 20.2759 2.55774 20.5439 2.55774 20.8746V26.8995C2.55774 27.2301 2.82575 27.4982 3.15639 27.4982H3.71852V33.1253C3.71852 33.4559 3.98653 33.724 4.31717 33.724H6.7309V35.4016C6.7309 35.7322 6.99892 36.0003 7.32956 36.0003H13.6223C13.9529 36.0003 14.221 35.7323 14.221 35.4016V33.724H24.9399V35.4016C24.9399 35.7322 25.2079 36.0003 25.5385 36.0003H31.8313C32.1619 36.0003 32.43 35.7323 32.43 35.4016V33.724H34.8438C35.1743 33.724 35.4424 33.4559 35.4424 33.1253V2.59872C35.4422 2.26808 35.1743 2.00007 34.8436 2.00007ZM3.75504 14.2508V9.42308H7.51164V14.2509H3.75504V14.2508ZM6.39648 15.448V20.2758H4.91582V15.448H6.39648ZM3.75504 26.3009V21.4731H7.51164V26.3009H3.75504ZM7.92814 34.8028V33.7238H13.0237V34.8028H7.92814ZM31.2327 34.8028H26.1371V33.7238H31.2327V34.8028Z" fill="#8FCE0D"/>
<path d="M32.1658 10.5967C31.8352 10.5967 31.5671 10.8647 31.5671 11.1953V29.8481H12.5313C12.2007 29.8481 11.9326 30.1161 11.9326 30.4467C11.9326 30.7773 12.2006 31.0454 12.5313 31.0454H32.1658C32.4964 31.0454 32.7644 30.7774 32.7644 30.4467V11.1953C32.7644 10.8647 32.4964 10.5967 32.1658 10.5967Z" fill="#8FCE0D"/>
<path d="M19.8371 11.2979C16.2202 11.2979 13.2776 14.2404 13.2776 17.8573C13.2776 21.4742 16.2202 24.4168 19.8371 24.4168C23.4541 24.4167 26.3966 21.4741 26.3966 17.8573C26.3966 14.2404 23.454 11.2979 19.8371 11.2979ZM25.1651 17.2587H22.9221C22.8403 16.8363 22.6743 16.4437 22.4414 16.0997L24.0259 14.5152C24.6418 15.2855 25.0501 16.2282 25.1651 17.2587ZM20.4358 12.5294C21.4663 12.6444 22.409 13.0527 23.1793 13.6686L21.5948 15.2531C21.2507 15.0201 20.8581 14.8541 20.4358 14.7723V12.5294ZM19.2386 12.5294V14.7722H19.2385C18.8163 14.854 18.4235 15.0201 18.0795 15.253L16.4951 13.6686C17.2653 13.0527 18.2081 12.6444 19.2386 12.5294ZM15.6485 14.5152L17.233 16.0996C17 16.4437 16.834 16.8363 16.7522 17.2587H14.5093C14.6242 16.2282 15.0326 15.2855 15.6485 14.5152ZM14.5094 18.4558H16.7522V18.4559C16.834 18.8782 17 19.2709 17.2329 19.6149L15.6485 21.1993C15.0326 20.429 14.6244 19.4863 14.5094 18.4558ZM19.2385 23.1852C18.208 23.0702 17.2654 22.6619 16.495 22.046L18.0795 20.4615C18.4237 20.6945 18.8163 20.8605 19.2385 20.9423V23.1852ZM17.8915 17.8573C17.8915 16.7845 18.7643 15.9116 19.8371 15.9116C20.9099 15.9116 21.7828 16.7845 21.7828 17.8573C21.7828 18.9302 20.91 19.8029 19.8371 19.8029C18.7643 19.8029 17.8915 18.9301 17.8915 17.8573ZM20.4358 23.1851V20.9423H20.4358C20.858 20.8605 21.2508 20.6945 21.5949 20.4615L23.1794 22.046C22.409 22.6618 21.4663 23.0701 20.4358 23.1851ZM24.0259 21.1995L22.4414 19.615C22.6743 19.2708 22.8403 18.8783 22.9221 18.456H25.1651C25.0501 19.4865 24.6417 20.429 24.0259 21.1995Z" fill="#8FCE0D"/>
</svg>
