<svg width="19" height="16" fill="none" xmlns="http://www.w3.org/2000/svg"><path d="M4.984 1.016H19v1.968H4.984V1.016zm0 7.968V7.016H19v1.968H4.984zm0 6v-1.968H19v1.968H4.984zM.906 12.97c.313-.313.672-.469 1.078-.469.407 0 .75.156 1.032.469.312.281.468.625.468 1.031 0 .406-.156.766-.468 1.078a1.403 1.403 0 0 1-1.032.422c-.406 0-.765-.14-1.078-.422A1.564 1.564 0 0 1 .484 14c0-.406.141-.75.422-1.031zm0-12.047A1.564 1.564 0 0 1 1.984.5c.407 0 .75.14 1.032.422.312.281.468.64.468 1.078 0 .438-.156.797-.468 1.078a1.403 1.403 0 0 1-1.032.422c-.406 0-.765-.14-1.078-.422C.625 2.797.484 2.438.484 2c0-.438.141-.797.422-1.078zm0 6A1.564 1.564 0 0 1 1.984 6.5c.407 0 .75.14 1.032.422.312.281.468.64.468 1.078 0 .438-.156.797-.468 1.078a1.403 1.403 0 0 1-1.032.422c-.406 0-.765-.14-1.078-.422C.625 8.797.484 8.438.484 8c0-.438.141-.797.422-1.078z" fill="#136BFB"/></svg>