<svg width="68" height="64" viewBox="0 0 68 64" fill="none" xmlns="http://www.w3.org/2000/svg">
<path d="M3.16718 60.8764H2.2772V63.2969H1.67855V60.8764H0.800537V60.3915H3.16718V60.8764Z" fill="#082746"/>
<path d="M5.95679 63.2969H5.35815V62.0517H4.19079V63.2969H3.59214V60.3915H4.19079V61.5688H5.35815V60.3915H5.95679V63.2969Z" fill="#082746"/>
<path d="M8.31139 62.0377H7.16199V62.816H8.51093V63.2969H6.56334V60.3915H8.50694V60.8764H7.16199V61.5688H8.31139V62.0377Z" fill="#082746"/>
<path d="M12.3062 62.4588L12.6973 60.3915H13.294L12.6494 63.2969H12.0468L11.5738 61.3533L11.1009 63.2969H10.4983L9.85374 60.3915H10.4504L10.8435 62.4548L11.3224 60.3915H11.8293L12.3062 62.4588Z" fill="#082746"/>
<path d="M15.2534 62.6983H14.2038L14.0043 63.2969H13.3677L14.4493 60.3915H15.004L16.0915 63.2969H15.455L15.2534 62.6983ZM14.3655 62.2134H15.0918L14.7266 61.1258L14.3655 62.2134Z" fill="#082746"/>
<path d="M17.1471 61.7005L17.7517 60.3915H18.4062L17.4524 62.2433V63.2969H16.8438V62.2433L15.8899 60.3915H16.5464L17.1471 61.7005Z" fill="#082746"/>
<path d="M22.2394 61.91C22.2394 62.1961 22.1888 62.4468 22.0877 62.6623C21.9866 62.8778 21.8416 63.0441 21.6527 63.1612C21.4652 63.2783 21.2496 63.3368 21.0062 63.3368C20.7654 63.3368 20.5506 63.2789 20.3616 63.1632C20.1727 63.0475 20.0264 62.8825 19.9226 62.6683C19.8189 62.4528 19.7663 62.2054 19.765 61.926V61.7823C19.765 61.4963 19.8162 61.2449 19.9186 61.028C20.0224 60.8099 20.1681 60.6429 20.3557 60.5272C20.5446 60.4101 20.7601 60.3516 21.0022 60.3516C21.2443 60.3516 21.4592 60.4101 21.6467 60.5272C21.8356 60.6429 21.9813 60.8099 22.0838 61.028C22.1875 61.2449 22.2394 61.4956 22.2394 61.7803V61.91ZM21.6328 61.7783C21.6328 61.4737 21.5782 61.2422 21.4691 61.0839C21.3601 60.9256 21.2044 60.8464 21.0022 60.8464C20.8013 60.8464 20.6463 60.9249 20.5372 61.0819C20.4282 61.2376 20.373 61.4664 20.3716 61.7684V61.91C20.3716 62.2067 20.4262 62.4368 20.5353 62.6005C20.6443 62.7641 20.8013 62.8459 21.0062 62.8459C21.2071 62.8459 21.3614 62.7674 21.4691 62.6105C21.5769 62.4521 21.6314 62.222 21.6328 61.92V61.7783Z" fill="#082746"/>
<path d="M24.5042 62.1096H23.3548V63.2969H22.7562V60.3915H24.6479V60.8764H23.3548V61.6267H24.5042V62.1096Z" fill="#082746"/>
<path d="M26.1763 63.2969V60.3915H27.194C27.5465 60.3915 27.8139 60.4593 27.9961 60.595C28.1784 60.7294 28.2695 60.9269 28.2695 61.1877C28.2695 61.33 28.2329 61.4557 28.1598 61.5648C28.0866 61.6726 27.9848 61.7517 27.8545 61.8023C28.0035 61.8395 28.1205 61.9147 28.2057 62.0278C28.2921 62.1408 28.3354 62.2792 28.3354 62.4428C28.3354 62.7222 28.2462 62.9337 28.068 63.0774C27.8897 63.2211 27.6356 63.2942 27.3057 63.2969H26.1763ZM26.7749 62.0318V62.816H27.2877C27.4288 62.816 27.5385 62.7827 27.617 62.7162C27.6968 62.6484 27.7367 62.5552 27.7367 62.4368C27.7367 62.1708 27.599 62.0358 27.3237 62.0318H26.7749ZM26.7749 61.6087H27.2179C27.5199 61.6034 27.6709 61.483 27.6709 61.2475C27.6709 61.1158 27.6323 61.0214 27.5551 60.9642C27.4793 60.9056 27.3589 60.8764 27.194 60.8764H26.7749V61.6087Z" fill="#082746"/>
<path d="M29.9437 62.2333H29.4667V63.2969H28.8681V60.3915H29.9476C30.2909 60.3915 30.5556 60.468 30.7418 60.621C30.9281 60.7739 31.0212 60.9901 31.0212 61.2695C31.0212 61.4677 30.978 61.6333 30.8915 61.7664C30.8064 61.8981 30.6767 62.0032 30.5024 62.0816L31.131 63.269V63.2969H30.4884L29.9437 62.2333ZM29.4667 61.7484H29.9496C30.1 61.7484 30.2164 61.7105 30.2988 61.6347C30.3813 61.5575 30.4226 61.4517 30.4226 61.3174C30.4226 61.1804 30.3833 61.0726 30.3048 60.9941C30.2277 60.9156 30.1086 60.8764 29.9476 60.8764H29.4667V61.7484Z" fill="#082746"/>
<path d="M33.2002 62.6983H32.1506L31.951 63.2969H31.3145L32.396 60.3915H32.9508L34.0383 63.2969H33.4017L33.2002 62.6983ZM32.3122 62.2134H33.0386L32.6734 61.1258L32.3122 62.2134Z" fill="#082746"/>
<path d="M35.026 62.816H36.4907V63.2969H34.2777V62.9457L35.7144 60.8764H34.2797V60.3915H36.4588V60.7347L35.026 62.816Z" fill="#082746"/>
<path d="M37.5881 63.2969H36.9895V60.3915H37.5881V63.2969Z" fill="#082746"/>
<path d="M38.8252 62.816H40.0964V63.2969H38.2266V60.3915H38.8252V62.816Z" fill="#082746"/>
<path d="M41.1599 63.2969H40.5612V60.3915H41.1599V63.2969Z" fill="#082746"/>
<path d="M43.4746 62.6983H42.4249L42.2254 63.2969H41.5888L42.6704 60.3915H43.2251L44.3127 63.2969H43.6761L43.4746 62.6983ZM42.5866 62.2134H43.3129L42.9478 61.1258L42.5866 62.2134Z" fill="#082746"/>
<path d="M47.0284 63.2969H46.4298L45.2644 61.3852V63.2969H44.6658V60.3915H45.2644L46.4318 62.3071V60.3915H47.0284V63.2969Z" fill="#082746"/>
<path d="M49.9038 60.3915H50.5024V62.4029C50.5024 62.5878 50.4612 62.7515 50.3787 62.8938C50.2976 63.0348 50.1825 63.1439 50.0335 63.2211C49.8845 63.2982 49.7162 63.3368 49.5286 63.3368C49.2213 63.3368 48.9819 63.259 48.8102 63.1033C48.6386 62.9464 48.5528 62.7249 48.5528 62.4388H49.1555C49.1555 62.5812 49.1854 62.6863 49.2453 62.7541C49.3051 62.822 49.3996 62.8559 49.5286 62.8559C49.643 62.8559 49.7342 62.8167 49.802 62.7382C49.8699 62.6597 49.9038 62.5479 49.9038 62.4029V60.3915Z" fill="#082746"/>
<path d="M51.7336 63.2969H51.1349V60.3915H51.7336V63.2969Z" fill="#082746"/>
<path d="M54.5711 60.3915V62.3051C54.5711 62.6231 54.4713 62.8745 54.2717 63.0594C54.0735 63.2444 53.8021 63.3368 53.4576 63.3368C53.1183 63.3368 52.849 63.247 52.6494 63.0674C52.4499 62.8878 52.3481 62.6411 52.3441 62.3271V60.3915H52.9427V62.3091C52.9427 62.4994 52.988 62.6384 53.0784 62.7262C53.1702 62.8127 53.2966 62.8559 53.4576 62.8559C53.7942 62.8559 53.9651 62.679 53.9704 62.3251V60.3915H54.5711Z" fill="#082746"/>
<path d="M57.4145 60.3915H58.0131V62.4029C58.0131 62.5878 57.9719 62.7515 57.8894 62.8938C57.8082 63.0348 57.6932 63.1439 57.5442 63.2211C57.3952 63.2982 57.2269 63.3368 57.0393 63.3368C56.732 63.3368 56.4926 63.259 56.3209 63.1033C56.1493 62.9464 56.0635 62.7249 56.0635 62.4388H56.6662C56.6662 62.5812 56.6961 62.6863 56.756 62.7541C56.8158 62.822 56.9103 62.8559 57.0393 62.8559C57.1537 62.8559 57.2449 62.8167 57.3127 62.7382C57.3805 62.6597 57.4145 62.5479 57.4145 62.4029V60.3915Z" fill="#082746"/>
<path d="M59.2443 63.2969H58.6456V60.3915H59.2443V63.2969Z" fill="#082746"/>
<path d="M62.0099 60.8764H61.1199V63.2969H60.5213V60.8764H59.6433V60.3915H62.0099V60.8764Z" fill="#082746"/>
<path d="M63.9095 62.5346C63.9095 62.4215 63.8696 62.3351 63.7898 62.2752C63.71 62.214 63.5663 62.1502 63.3588 62.0836C63.1513 62.0158 62.987 61.9493 62.8659 61.8841C62.536 61.7058 62.371 61.4657 62.371 61.1637C62.371 61.0067 62.4149 60.8671 62.5027 60.7447C62.5919 60.621 62.7189 60.5245 62.8839 60.4553C63.0501 60.3862 63.2364 60.3516 63.4426 60.3516C63.6501 60.3516 63.835 60.3895 63.9973 60.4653C64.1596 60.5398 64.2854 60.6456 64.3745 60.7826C64.4649 60.9196 64.5102 61.0753 64.5102 61.2495H63.9115C63.9115 61.1165 63.8696 61.0134 63.7858 60.9402C63.702 60.8657 63.5843 60.8285 63.4326 60.8285C63.2863 60.8285 63.1725 60.8597 63.0914 60.9223C63.0102 60.9835 62.9697 61.0646 62.9697 61.1657C62.9697 61.2602 63.0169 61.3393 63.1113 61.4032C63.2071 61.467 63.3475 61.5269 63.5324 61.5828C63.873 61.6852 64.1211 61.8123 64.2767 61.9639C64.4324 62.1156 64.5102 62.3045 64.5102 62.5306C64.5102 62.7821 64.4151 62.9796 64.2248 63.1233C64.0346 63.2656 63.7785 63.3368 63.4566 63.3368C63.2331 63.3368 63.0295 63.2962 62.8459 63.2151C62.6624 63.1326 62.522 63.0202 62.4249 62.8778C62.3291 62.7355 62.2812 62.5705 62.2812 62.383H62.8819C62.8819 62.7036 63.0734 62.8639 63.4566 62.8639C63.5989 62.8639 63.71 62.8353 63.7898 62.7781C63.8696 62.7195 63.9095 62.6384 63.9095 62.5346Z" fill="#082746"/>
<path d="M67.198 60.3915V62.3051C67.198 62.6231 67.0982 62.8745 66.8987 63.0594C66.7005 63.2444 66.4291 63.3368 66.0845 63.3368C65.7453 63.3368 65.4759 63.247 65.2764 63.0674C65.0768 62.8878 64.975 62.6411 64.9711 62.3271V60.3915H65.5697V62.3091C65.5697 62.4994 65.6149 62.6384 65.7054 62.7262C65.7972 62.8127 65.9236 62.8559 66.0845 62.8559C66.4211 62.8559 66.5921 62.679 66.5974 62.3251V60.3915H67.198Z" fill="#082746"/>
<path fill-rule="evenodd" clip-rule="evenodd" d="M63.0126 55.126C60.5552 55.126 58.6706 53.8032 58.6706 51.3158C58.6706 51.2279 58.6891 50.8398 59.1141 50.8398H61.0726C61.4976 50.8398 61.5345 51.1221 61.5345 51.2103C61.59 52.2508 62.181 52.6742 63.0126 52.6742C64.2322 52.6742 64.6942 52.0391 64.6942 50.9456V45.7244H61.4606C61.0171 45.7244 60.9247 45.5304 60.9247 45.2128V43.7486C60.9247 43.4314 61.0171 43.2373 61.4606 43.2373H67.0592C67.4842 43.2373 67.5948 43.4314 67.5948 43.7486V51.3335C67.5948 54.0852 65.2113 55.126 63.0126 55.126ZM53.219 55.126C50.7616 55.126 48.877 53.8032 48.877 51.3158C48.877 51.2279 48.8955 50.8398 49.3205 50.8398H51.279C51.704 50.8398 51.741 51.1221 51.741 51.2103C51.7964 52.2508 52.3875 52.6742 53.219 52.6742C54.4386 52.6742 54.9003 52.0391 54.9003 50.9456V45.7244H51.6671C51.2236 45.7244 51.1312 45.5304 51.1312 45.2128V43.7486C51.1312 43.4314 51.2236 43.2373 51.6671 43.2373H57.2656C57.6904 43.2373 57.8013 43.4314 57.8013 43.7486V51.3335C57.8013 54.0852 55.4177 55.126 53.219 55.126ZM43.8869 55.126H38.4546C38.0299 55.126 37.919 54.932 37.919 54.6145V44.0132C37.919 43.6957 38.0299 43.5019 38.4546 43.5019H43.6285C46.64 43.5019 47.9335 45.0364 47.9335 46.6944C47.9335 48.4762 46.7508 49.0404 46.5845 49.111C46.7324 49.1639 48.2846 49.8343 48.2846 51.7392C48.2846 53.9794 46.4552 55.126 43.8869 55.126ZM43.3882 48.0351H43.6285C44.7 48.0351 45.1619 47.6647 45.1619 46.9767C45.1619 46.1828 44.5891 45.989 43.6285 45.989H40.8199V52.6213H43.9238C44.8293 52.6213 45.3467 52.2685 45.3467 51.4746C45.3467 50.6457 44.7 50.3988 43.813 50.3988H43.3882C42.9632 50.3988 42.8523 50.2047 42.8523 49.8872V48.5467C42.8523 48.2292 42.9632 48.0351 43.3882 48.0351Z" fill="#8FCE0D"/>
<path fill-rule="evenodd" clip-rule="evenodd" d="M33.4282 50.7665V54.6118C33.4282 55.0175 33.2249 55.1233 32.8923 55.1233H31.0447C30.6936 55.1233 30.5088 55.0175 30.5088 54.6118V50.7665L26.5548 44.0105C26.4624 43.8165 26.4994 43.5166 26.8505 43.5166H28.9753C29.4003 43.5166 29.5851 43.5695 29.8438 44.0458L32.0056 47.8384L34.0934 44.0458C34.3337 43.5695 34.5185 43.5166 34.9435 43.5166H36.9389C37.29 43.5166 37.327 43.8165 37.2346 44.0105L33.4282 50.7665ZM27.6068 55.1233H25.6668C25.2602 55.1233 25.1124 55.0175 24.9646 54.5941L24.4472 53.2007H19.9204L19.4029 54.5941C19.2551 55.0175 19.1073 55.1233 18.7008 55.1233H16.7607C16.3542 55.1233 16.3542 54.8411 16.4466 54.6294L20.5484 44.0635C20.6962 43.693 20.8995 43.5166 21.306 43.5166H23.08C23.4862 43.5166 23.671 43.693 23.8374 44.0635L27.9209 54.6294C28.0133 54.8411 28.0133 55.1233 27.6068 55.1233ZM22.193 46.8329L20.8071 50.7313H23.5786L22.193 46.8329ZM13.2117 54.7529C13.2117 54.7529 13.1193 55.1233 12.7128 55.1233H11.1605C10.6803 55.1233 10.5695 54.7176 10.5695 54.7176L8.72158 49.0906L6.87396 54.7176C6.87396 54.7176 6.76308 55.1233 6.28263 55.1233H4.65676C4.25022 55.1233 4.15782 54.7529 4.15782 54.7529L0.739493 44.0282C0.684056 43.8165 0.739493 43.5166 1.07211 43.5166H3.10453C3.65889 43.5166 3.76977 43.8694 3.84368 44.0811L5.67283 50.0785L7.4468 44.0811C7.52072 43.8341 7.65007 43.5166 8.07509 43.5166H9.36834C9.77488 43.5166 9.90423 43.8341 9.97815 44.0811L11.7703 50.0785L13.5997 44.0811C13.6552 43.8694 13.7843 43.5166 14.3386 43.5166H16.2974C16.6298 43.5166 16.6852 43.8165 16.6113 44.0282L13.2117 54.7529Z" fill="#082746"/>
<path fill-rule="evenodd" clip-rule="evenodd" d="M34.6919 0C44.0728 0 51.6775 7.6047 51.6775 16.9856C51.6775 26.3665 44.0728 33.9712 34.6919 33.9712C25.3111 33.9712 17.7064 26.3665 17.7064 16.9856C17.7064 7.6047 25.3111 0 34.6919 0Z" fill="#082746"/>
<path fill-rule="evenodd" clip-rule="evenodd" d="M34.6919 0.469727C43.8122 0.469727 51.2056 7.86318 51.2056 16.9835C51.2056 26.1038 43.8122 33.4972 34.6919 33.4972C25.5716 33.4972 18.1781 26.1038 18.1781 16.9835C18.1781 7.86318 25.5716 0.469727 34.6919 0.469727Z" fill="white"/>
<path fill-rule="evenodd" clip-rule="evenodd" d="M24.8807 19.1074H27.0455C27.2295 19.1074 27.3786 19.252 27.3786 19.4302V24.9183C27.3786 25.0966 27.2295 25.2411 27.0455 25.2411H24.8807C24.6968 25.2411 24.5477 25.0966 24.5477 24.9183V19.4302C24.5477 19.252 24.6968 19.1074 24.8807 19.1074Z" fill="white" stroke="#201E43"/>
<path fill-rule="evenodd" clip-rule="evenodd" d="M28.6554 16.749H30.8202C31.0041 16.749 31.1533 16.8996 31.1533 17.0854V24.9055C31.1533 25.0912 31.0041 25.2418 30.8202 25.2418H28.6554C28.4715 25.2418 28.3223 25.0912 28.3223 24.9055V17.0854C28.3223 16.8996 28.4715 16.749 28.6554 16.749Z" fill="#005AFF" stroke="#201E43"/>
<path fill-rule="evenodd" clip-rule="evenodd" d="M32.4297 14.8574H34.5946C34.7785 14.8574 34.9276 15.005 34.9276 15.1869V24.908C34.9276 25.09 34.7785 25.2375 34.5946 25.2375H32.4297C32.2458 25.2375 32.0967 25.09 32.0967 24.908V15.1869C32.0967 15.005 32.2458 14.8574 32.4297 14.8574Z" fill="#8147FF" stroke="#201E43"/>
<path fill-rule="evenodd" clip-rule="evenodd" d="M36.2045 12.9746H38.3693C38.5533 12.9746 38.7024 13.1201 38.7024 13.2996V24.917C38.7024 25.0965 38.5533 25.242 38.3693 25.242H36.2045C36.0206 25.242 35.8715 25.0965 35.8715 24.917V13.2996C35.8715 13.1201 36.0206 12.9746 36.2045 12.9746Z" fill="#7C5252" stroke="#201E43"/>
<path fill-rule="evenodd" clip-rule="evenodd" d="M42.3382 12.9746H44.503C44.6869 12.9746 44.8361 13.1201 44.8361 13.2996V24.917C44.8361 25.0965 44.6869 25.242 44.503 25.242H42.3382C42.1543 25.242 42.0051 25.0965 42.0051 24.917V13.2996C42.0051 13.1201 42.1543 12.9746 42.3382 12.9746Z" fill="#201E43" stroke="#201E43"/>
<path fill-rule="evenodd" clip-rule="evenodd" d="M42.3382 8.25684H44.503C44.6869 8.25684 44.8361 8.3944 44.8361 8.56407V11.2524C44.8361 11.422 44.6869 11.5596 44.503 11.5596H42.3382C42.1543 11.5596 42.0051 11.422 42.0051 11.2524V8.56407C42.0051 8.3944 42.1543 8.25684 42.3382 8.25684Z" fill="#CD2F41" stroke="#201E43"/>
</svg>
