<svg width="38" height="38" viewBox="0 0 38 38" fill="none" xmlns="http://www.w3.org/2000/svg">
<path d="M37.9313 30.7639C37.753 29.9058 37.2485 29.1726 36.5107 28.6991C35.7729 28.226 34.8964 28.0732 34.0418 28.2686L30.0809 29.1755V27.5563C30.8753 26.808 31.7024 25.831 32.2907 24.938C33.3222 23.3722 34.0522 21.6527 34.4604 19.8282C34.9457 17.6576 34.9562 15.3598 34.4903 13.1822C34.4044 12.7815 34.0099 12.5258 33.6092 12.6119C33.2083 12.6974 32.9531 13.092 33.0387 13.493C33.4602 15.4624 33.4509 17.5411 33.0117 19.5041C32.6429 21.1526 31.9831 22.7063 31.051 24.1213C30.7747 24.5408 30.4395 24.9809 30.0809 25.4013V17.1746C30.0809 16.7647 29.7487 16.4324 29.3387 16.4324H23.4676V8.5067C23.4676 8.09792 23.1368 7.76596 22.728 7.76451L16.1147 7.74219C16.1139 7.74219 16.1133 7.74219 16.1124 7.74219C15.9159 7.74219 15.7274 7.81989 15.5885 7.95876C15.4488 8.09792 15.3702 8.28694 15.3702 8.48438V12.6073H9.49826C9.08861 12.6073 8.75607 12.9395 8.75607 13.3495V20.6992H7.10239V19.6911C7.10239 19.2815 6.77014 18.9492 6.3602 18.9492H5.59888C5.46928 18.2357 5.3942 17.5109 5.37651 16.7873C5.33302 15.0278 5.61192 13.3063 6.20509 11.67C6.34338 11.2885 6.50052 10.9081 6.67186 10.5399C6.84494 10.1682 6.68375 9.72667 6.31236 9.55359C5.94069 9.38109 5.49915 9.5417 5.32635 9.91338C5.13646 10.321 4.96251 10.742 4.80972 11.1641C4.15335 12.9746 3.84488 14.8791 3.89243 16.8238C3.91011 17.5347 3.97795 18.2462 4.09305 18.9492H0.742188C0.332245 18.9492 0 19.2815 0 19.6914V32.7371C0 33.147 0.332245 33.4793 0.742188 33.4793H6.3602C6.77014 33.4793 7.10239 33.147 7.10239 32.7371V32.0314H9.89429L21.2037 36.4672C22.2595 36.8815 23.3656 37.0899 24.4774 37.0899C25.2187 37.0899 25.9632 36.9971 26.6964 36.8107L35.5606 34.5578C37.2433 34.1301 38.2844 32.4637 37.9313 30.7639ZM28.5968 17.9168V29.5152L26.6126 29.9695C26.3993 30.0182 26.1836 30.0568 25.9667 30.087C25.1399 30.2009 24.2962 30.1768 23.4781 30.0148C23.4746 30.0139 23.4711 30.0133 23.4676 30.0125V28.887C24.0335 28.0428 24.2211 26.9724 23.9245 25.9954C23.8419 25.7228 23.7245 25.4599 23.5752 25.2172C23.5413 25.1621 23.5059 25.1082 23.4691 25.0555C23.4688 25.0546 23.4682 25.054 23.4676 25.0531V17.9165H28.5968V17.9168ZM16.8546 9.22917L21.9835 9.24628V23.8743L19.1171 22.688L16.8546 21.7513V9.22917ZM10.2404 14.0917H15.3694V21.1364L14.4489 20.7554C14.3587 20.718 14.2622 20.6989 14.1651 20.6989H10.2404V14.0917ZM5.61801 31.9949H1.48438V20.4333H4.98599C4.98744 20.4333 4.98918 20.4336 4.99092 20.4336C4.99237 20.4336 4.99353 20.4333 4.99498 20.4333H5.61801V31.9949ZM35.1951 33.1192L26.3308 35.3721C24.8007 35.7609 23.2151 35.6615 21.7455 35.0854L10.3057 30.5984C10.2193 30.5645 10.1274 30.5473 10.0346 30.5473H7.10239V22.1835H14.0172L18.8194 24.1712L21.4472 25.259C22.377 25.6446 22.822 26.7352 22.4407 27.6638C22.3642 27.8503 22.2694 28.0274 22.1436 28.1854C21.6788 28.7719 20.9137 29.0305 20.1982 28.8566C20.1924 28.8551 20.1866 28.8537 20.1808 28.8522C20.1379 28.8415 20.0953 28.829 20.053 28.8151L15.0592 26.8953C15.0186 26.8796 14.9971 26.8715 14.9971 26.8715C14.6147 26.7242 14.1853 26.9153 14.0381 27.298C13.8911 27.6804 14.0818 28.11 14.4645 28.257C14.4645 28.257 17.2802 29.3396 19.4273 30.1676C19.4705 30.1844 19.5134 30.2 19.5566 30.2145L21.2054 30.8486C21.7038 31.0402 22.1998 31.231 22.7185 31.3635C23.5992 31.5884 24.5134 31.6789 25.4214 31.6293C25.9334 31.6015 26.4445 31.5307 26.9443 31.4165L29.5046 30.8306C29.5072 30.83 29.5098 30.8289 29.5124 30.8283L34.3731 29.7156C34.8356 29.6098 35.3102 29.6924 35.7091 29.9484C36.1086 30.2047 36.3814 30.6016 36.4779 31.066C36.6693 31.9859 36.1057 32.8878 35.1951 33.1192Z" fill="#8FCE0D"/>
<path d="M9.49101 6.24365C9.66844 6.24365 9.84645 6.18045 9.98822 6.05231C11.3126 4.85611 12.8941 3.90199 14.5625 3.29288C16.3702 2.63302 18.3518 2.35152 20.2933 2.47908C21.6829 2.5704 23.0444 2.86699 24.3397 3.36043C24.7224 3.50625 25.1515 3.31433 25.2973 2.93106C25.4434 2.54808 25.2512 2.11929 24.8679 1.97346C23.4346 1.42726 21.9282 1.09907 20.3907 0.997893C18.2448 0.856993 16.0533 1.16836 14.0534 1.89866C12.2075 2.57243 10.4579 3.62802 8.99351 4.95062C8.6891 5.22546 8.66533 5.69484 8.94017 5.99896C9.08658 6.16131 9.28836 6.24365 9.49101 6.24365Z" fill="#8FCE0D"/>
<path d="M26.3393 11.5402C26.4799 11.6623 26.6532 11.722 26.8257 11.722C27.033 11.722 27.2395 11.6356 27.3864 11.4668L33.4927 4.43781C33.7617 4.12847 33.7287 3.65967 33.4193 3.39092C33.1097 3.12217 32.6412 3.15493 32.3724 3.46427L26.2659 10.4933C25.9969 10.8026 26.0299 11.2714 26.3393 11.5402Z" fill="#8FCE0D"/>
<path d="M31.8114 8.36719C30.784 8.36719 29.9481 9.20302 29.9481 10.2305C29.9481 11.2579 30.784 12.0938 31.8114 12.0938C32.8389 12.0938 33.6747 11.2577 33.6747 10.2305C33.6747 9.20302 32.8389 8.36719 31.8114 8.36719ZM31.8114 10.6094C31.6024 10.6094 31.4325 10.4395 31.4325 10.2305C31.4325 10.0217 31.6024 9.85156 31.8114 9.85156C32.0202 9.85156 32.1903 10.0217 32.1903 10.2305C32.1903 10.4395 32.0202 10.6094 31.8114 10.6094Z" fill="#8FCE0D"/>
<path d="M27.69 6.71487C28.7175 6.71487 29.5533 5.87904 29.5533 4.85158C29.5533 3.82411 28.7175 2.98828 27.69 2.98828C26.6626 2.98828 25.8267 3.82411 25.8267 4.85158C25.8267 5.87904 26.6626 6.71487 27.69 6.71487ZM27.69 4.47236C27.899 4.47236 28.0689 4.64255 28.0689 4.85158C28.0689 5.06032 27.899 5.2305 27.69 5.2305C27.481 5.2305 27.3111 5.06032 27.3111 4.85158C27.3111 4.64255 27.481 4.47236 27.69 4.47236Z" fill="#8FCE0D"/>
<path d="M6.85245 7.98802C6.97132 8.2733 7.26384 8.46174 7.57376 8.44551C7.88021 8.42956 8.14867 8.22227 8.24347 7.93119C8.33914 7.63751 8.23477 7.30294 7.98921 7.11537C7.73902 6.9246 7.38764 6.91272 7.12555 7.08696C6.83476 7.28033 6.71822 7.66592 6.85245 7.98802Z" fill="#8FCE0D"/>
</svg>
