<svg width="38" height="38" viewBox="0 0 38 38" fill="none" xmlns="http://www.w3.org/2000/svg">
<path d="M13.4366 36.2488C13.8232 36.2488 14.1366 35.9354 14.1366 35.5488C14.1366 35.1622 13.8232 34.8488 13.4366 34.8488V36.2488ZM5.01828 31.1783L4.33082 31.0464L4.33082 31.0464L5.01828 31.1783ZM7.02385 20.7263L7.71131 20.8582V20.8582L7.02385 20.7263ZM19.5845 13.7661C19.9533 13.882 20.3462 13.6769 20.4621 13.3081C20.578 12.9393 20.373 12.5464 20.0042 12.4305L19.5845 13.7661ZM27.1639 23.6175C27.4372 23.3442 27.4372 22.901 27.1639 22.6276C26.8905 22.3542 26.4473 22.3542 26.1739 22.6276L27.1639 23.6175ZM20.1285 28.6731C19.8551 28.9465 19.8551 29.3897 20.1285 29.6631C20.4018 29.9364 20.8451 29.9364 21.1184 29.6631L20.1285 28.6731ZM13.4366 34.8488H8.62981V36.2488H13.4366V34.8488ZM8.62981 34.8488C6.75904 34.8488 5.35382 33.1444 5.70574 31.3102L4.33082 31.0464C3.8135 33.7426 5.87883 36.2488 8.62981 36.2488V34.8488ZM5.70574 31.3102L7.71131 20.8582L6.3364 20.5944L4.33082 31.0464L5.70574 31.3102ZM7.71131 20.8582C8.75156 15.437 14.3057 12.1073 19.5845 13.7661L20.0042 12.4305C13.9255 10.5203 7.53401 14.353 6.3364 20.5944L7.71131 20.8582ZM26.1739 22.6276L20.1285 28.6731L21.1184 29.6631L27.1639 23.6175L26.1739 22.6276ZM23.7793 34.8488C19.0543 34.8488 15.2092 31.0036 15.2092 26.2786H13.8092C13.8092 31.7768 18.2811 36.2488 23.7793 36.2488V34.8488ZM15.2092 26.2786C15.2092 21.5536 19.0543 17.7084 23.7793 17.7084V16.3084C18.2811 16.3084 13.8092 20.7804 13.8092 26.2786H15.2092ZM23.7793 17.7084C28.5043 17.7084 32.3495 21.5536 32.3495 26.2786H33.7495C33.7495 20.7804 29.2775 16.3084 23.7793 16.3084V17.7084ZM32.3495 26.2786C32.3495 31.0036 28.5043 34.8488 23.7793 34.8488V36.2488C29.2775 36.2488 33.7495 31.7768 33.7495 26.2786H32.3495Z" fill="#8FCE0D"/>
<circle cx="21" cy="23" r="1" stroke="#8FCE0D" stroke-width="1.4"/>
<circle cx="27" cy="29" r="1" stroke="#8FCE0D" stroke-width="1.4"/>
<path d="M14 4.5V3.8C13.7677 3.8 13.5506 3.91522 13.4204 4.10756C13.2901 4.2999 13.2638 4.54431 13.3501 4.75997L14 4.5ZM20 4.5L20.6499 4.75997C20.7362 4.54431 20.7099 4.2999 20.5796 4.10756C20.4494 3.91522 20.2323 3.8 20 3.8V4.5ZM18.5 11.8H15.5V13.2H18.5V11.8ZM15.5 10.2H16V8.8H15.5V10.2ZM16.6499 9.24003L14.6499 4.24003L13.3501 4.75997L15.3501 9.75997L16.6499 9.24003ZM14 5.2H20V3.8H14V5.2ZM16 10.2H18V8.8H16V10.2ZM18 10.2H18.5V8.8H18V10.2ZM19.3501 4.24003L17.3501 9.24003L18.6499 9.75997L20.6499 4.75997L19.3501 4.24003ZM15.5 11.8C15.0582 11.8 14.7 11.4418 14.7 11H13.3C13.3 12.215 14.285 13.2 15.5 13.2V11.8ZM19.3 11C19.3 11.4418 18.9418 11.8 18.5 11.8V13.2C19.715 13.2 20.7 12.215 20.7 11H19.3ZM20.7 11C20.7 9.78497 19.715 8.8 18.5 8.8V10.2C18.9418 10.2 19.3 10.5582 19.3 11H20.7ZM14.7 11C14.7 10.5582 15.0582 10.2 15.5 10.2V8.8C14.285 8.8 13.3 9.78497 13.3 11H14.7Z" fill="#8FCE0D"/>
</svg>
