<svg width="24" height="14" fill="none" xmlns="http://www.w3.org/2000/svg"><path d="M15.984 7.984c.875 0 1.829.125 2.86.375a9.3 9.3 0 0 1 2.86 1.22c.874.562 1.312 1.202 1.312 1.921v2.484h-6V11.5c0-1.375-.657-2.531-1.97-3.469.22-.031.532-.047.938-.047zM5.156 8.36c1.032-.25 1.985-.375 2.86-.375.875 0 1.828.125 2.859.375a8.735 8.735 0 0 1 2.813 1.22c.874.56 1.312 1.2 1.312 1.92v2.484H.984V11.5c0-.719.438-1.36 1.313-1.922a9.3 9.3 0 0 1 2.86-1.219zm4.922-3.234a2.73 2.73 0 0 1-2.062.89c-.813 0-1.516-.296-2.11-.89-.593-.594-.89-1.297-.89-2.11 0-.812.296-1.515.89-2.109.594-.594 1.297-.89 2.11-.89.812 0 1.5.296 2.062.89.594.594.89 1.297.89 2.11 0 .812-.296 1.515-.89 2.109zm8.016 0c-.594.594-1.297.89-2.11.89-.812 0-1.515-.296-2.109-.89-.594-.594-.89-1.297-.89-2.11 0-.812.296-1.515.89-2.109.594-.594 1.297-.89 2.11-.89.812 0 1.515.296 2.109.89.593.594.89 1.297.89 2.11 0 .812-.297 1.515-.89 2.109z" fill="#F2994A"/></svg>